<?xml version="1.0" encoding="UTF-8"?>
<!DOCTYPE svg PUBLIC "-//W3C//DTD SVG 1.1//EN" "http://www.w3.org/Graphics/SVG/1.1/DTD/svg11.dtd">
<!-- Creator: CorelDRAW X6 -->
<svg xmlns="http://www.w3.org/2000/svg" xml:space="preserve" width="200mm" height="200mm" version="1.1" style="shape-rendering:geometricPrecision; text-rendering:geometricPrecision; image-rendering:optimizeQuality; fill-rule:evenodd; clip-rule:evenodd"
viewBox="0 0 20000 20000"
 xmlns:xlink="http://www.w3.org/1999/xlink">
 <defs>
  <style type="text/css">
   <![CDATA[
    .fil0 {fill:blue;fill-rule:nonzero}
   ]]>
  </style>
 </defs>
 <g id="Layer_x0020_1">
  <metadata id="CorelCorpID_0Corel-Layer"/>
  <path class="fil0" d="M-4650 19705l0 0 0 0 0 0 1 1 0 0c4,3 6,8 6,13 1,38 0,76 -2,114l0 0c-2,38 -6,76 -11,114l0 0c0,2 -1,5 -1,7l0 0 0 0c-2,5 -4,9 -9,12 -6,4 -10,4 -14,4 -1,0 -1,0 -2,0 -53,-4 -106,-13 -158,-27 -52,-14 -102,-33 -149,-57l-1 0c-8,-4 -17,-9 -25,-14 -9,-6 -17,-13 -24,-22 -15,-20 -18,-45 -13,-68 5,-24 19,-48 39,-64l0 0 0 0c18,-14 39,-23 60,-29 21,-5 43,-8 64,-9l0 0c39,-2 79,-2 119,2 39,4 78,11 116,20 2,0 4,1 5,2zm-26 29c-32,-8 -65,-13 -98,-16 -38,-4 -75,-4 -113,-2 -19,1 -39,3 -57,8 -17,5 -34,11 -47,22l0 0c-13,11 -23,27 -26,43 -3,14 -1,29 7,40 4,5 9,10 15,14 6,4 14,8 21,12l1 0c46,23 94,41 143,54 46,13 94,21 143,26 5,-34 8,-69 10,-103l0 0c2,-33 3,-65 2,-98zm-2 98c1,-9 9,-17 19,-16"/>
  <path class="fil0" d="M-4592 18867l0 0c-35,7 -70,13 -109,20l0 0c-19,3 -37,7 -56,12 -18,5 -35,11 -50,20l0 0c-16,9 -30,21 -40,36 -9,13 -14,27 -15,42l0 0 0 0c0,7 1,15 3,22 2,6 5,11 10,15 3,3 7,5 11,8 5,3 10,5 15,6 38,14 78,22 120,27 37,4 73,6 110,7 3,-36 5,-72 6,-108 0,-35 -1,-71 -3,-107zm-7 -35l18 -3c1,0 2,0 3,-1 10,-1 18,6 19,16 4,43 5,86 5,129 0,43 -3,86 -7,128l0 0c-1,9 -9,16 -18,16 -43,-1 -87,-3 -129,-8 -43,-5 -86,-14 -128,-29 -7,-2 -13,-5 -19,-8 -7,-3 -13,-8 -19,-13l0 0 0 0c-9,-8 -15,-18 -19,-29 -4,-11 -6,-24 -5,-36l0 0c1,-22 9,-42 21,-60 13,-19 32,-35 52,-46l0 0 0 0c19,-10 38,-17 58,-23 19,-5 39,-9 59,-13l0 0 0 0c34,-6 71,-13 109,-20z"/>
  <path class="fil0" d="M-3618 21367c4,0 8,1 11,3l0 0 0 0 0 0 0 0 0 0 0 0 0 0c2,1 3,3 5,5 3,3 5,7 6,11 1,6 1,11 -2,16 0,1 -1,2 -1,2 -16,29 -10,133 -7,191l0 0 1 14 0 0c0,8 -5,16 -13,18 -29,7 -72,0 -114,-18 -30,-13 -60,-31 -85,-52 -25,-22 -45,-48 -52,-76 -5,-19 -4,-39 4,-59l0 0 0 0c29,-68 119,-62 190,-57 21,1 41,3 56,2zm-17 36c-12,0 -26,-1 -41,-2 -61,-4 -137,-9 -156,36l0 0c-5,12 -6,25 -3,36 5,20 21,40 41,58 21,19 48,34 75,46 29,12 57,19 78,18 -3,-55 -8,-146 5,-192z"/>
  <path class="fil0" d="M-5061 20608l0 -1c-5,-19 -2,-39 7,-57 9,-18 25,-35 43,-45 16,-9 34,-15 52,-18 17,-3 35,-4 52,-4l0 0c38,-1 75,-1 113,1 37,2 74,5 111,10 9,1 16,9 16,18l-9 174 0 1c-1,9 -1,18 -4,27 -3,11 -9,21 -19,28l0 0c-4,2 -8,4 -13,3 -43,-8 -85,-17 -126,-27 -43,-11 -84,-22 -126,-36l0 0 0 0c-19,-6 -39,-13 -56,-24 -19,-12 -34,-28 -40,-50zm34 -10l0 1c4,13 13,23 25,31 14,9 31,15 47,20l0 0c41,13 82,25 123,35 38,10 76,18 115,25 1,-1 1,-3 2,-4 2,-6 2,-13 3,-19l0 0 9 -158c-31,-4 -61,-6 -92,-8 -37,-2 -73,-2 -110,-1l0 0c-16,0 -31,1 -47,4 -14,2 -28,7 -41,14 -12,7 -22,18 -29,30 -5,10 -7,21 -4,32zm315 88c1,-9 9,-17 19,-16"/>
  <path class="fil0" d="M4647 19706l0 0 1 -1 0 0 0 0 0 0c2,-1 3,-2 5,-2 38,-10 77,-17 116,-20 39,-4 79,-5 119,-2l0 0c21,1 43,4 64,9 22,6 42,15 60,29l0 0 0 0c20,16 34,39 39,64 5,24 2,48 -13,68 -7,9 -15,16 -24,22 -8,6 -17,10 -25,14l0 0 0 0c-48,24 -98,43 -150,57 -52,14 -105,23 -158,27 -1,0 -2,0 -2,0 -4,0 -9,0 -14,-4l0 0c-5,-3 -8,-7 -9,-12l0 0c-1,-3 -1,-5 -2,-7 -5,-38 -9,-76 -11,-114l0 0c-2,-38 -3,-76 -2,-114 0,-5 2,-10 6,-13zm127 11c-33,3 -66,9 -98,16 0,32 0,65 2,98l0 0c2,35 5,69 10,103 48,-4 96,-13 143,-26 49,-14 98,-32 144,-55l0 0c7,-4 15,-8 21,-12 6,-4 11,-9 15,-14 8,-11 10,-26 7,-40 -3,-17 -13,-33 -26,-43l0 0c-14,-11 -30,-18 -47,-22 -18,-5 -38,-7 -57,-8 -38,-2 -76,-1 -113,2zm-131 116c0,-10 7,-18 17,-18"/>
  <path class="fil0" d="M4581 18829l18 3c37,7 74,14 109,20l0 0 0 0c20,4 40,7 59,13 20,5 40,13 58,23l0 0 0 0c20,11 38,27 52,46 12,18 20,38 21,60l0 0c1,12 -1,24 -5,36 -4,11 -10,21 -19,29l0 0 0 0c-6,5 -12,9 -19,13 -6,3 -12,6 -19,8 -41,15 -84,24 -128,29 -42,5 -86,7 -129,8 -9,0 -17,-7 -18,-16l0 0c-5,-42 -7,-85 -7,-128 0,-43 1,-87 5,-129 1,-10 9,-17 19,-16 1,0 2,0 3,1zm12 38l0 0c-3,36 -4,71 -3,107 0,36 2,72 6,108 37,-1 73,-3 110,-7 41,-5 81,-13 120,-27 5,-2 10,-4 15,-6 4,-2 8,-5 11,-8 4,-4 7,-10 10,-15 2,-7 3,-15 3,-22l0 0 0 0c-1,-15 -6,-29 -15,-42 -10,-15 -24,-27 -40,-36l0 0c-15,-9 -33,-15 -50,-20 -19,-5 -37,-9 -56,-12l0 0c-38,-7 -73,-13 -109,-20z"/>
  <path class="fil0" d="M3606 21371l0 0 0 0 0 0 0 0 0 0c3,-2 7,-3 11,-3 14,1 34,0 56,-2 72,-5 162,-11 190,57l0 0 0 0c8,20 9,39 4,59 -7,28 -27,54 -52,76 -24,21 -55,39 -85,52 -42,18 -85,25 -114,18 -8,-2 -14,-10 -13,-18l0 0 1 -14 0 0c3,-58 9,-162 -7,-191 -1,-1 -1,-1 -1,-2 -3,-5 -3,-10 -2,-16 1,-4 3,-8 6,-11 1,-2 3,-3 5,-5zm70 30c-15,1 -28,2 -41,2 13,46 8,137 5,192 21,1 49,-6 78,-18 27,-11 54,-27 75,-46 20,-18 36,-38 41,-58 3,-12 3,-24 -3,-36l0 0c-19,-45 -95,-40 -156,-36z"/>
  <path class="fil0" d="M5027 20599l0 -1c3,-10 1,-21 -4,-32 -6,-12 -17,-23 -29,-30 -12,-7 -26,-11 -41,-14 -15,-3 -31,-3 -47,-4l0 0c-37,-1 -73,-1 -110,1 -31,2 -62,4 -92,8l9 158 0 0c0,7 1,14 3,19l0 0 0 0c0,1 1,3 2,4 38,-7 76,-16 115,-25 41,-10 82,-22 123,-35l0 0c16,-5 33,-12 47,-20 12,-8 22,-18 25,-31zm34 9l0 1c-6,22 -21,38 -40,50 -17,11 -37,19 -56,24l0 0 0 0c-41,13 -83,25 -126,36 -41,10 -84,19 -126,27 -5,1 -9,0 -13,-3l0 0c-10,-7 -16,-17 -19,-28l0 0c-3,-9 -4,-18 -4,-27l0 -1 -9 -174c0,-9 7,-18 16,-18 37,-5 74,-8 111,-10 37,-2 75,-2 113,-1l0 0c17,0 35,1 52,4 18,3 36,9 52,18 18,10 34,26 43,45 9,17 12,37 7,57z"/>
 </g>
</svg>
