<?xml version="1.0" encoding="UTF-8"?>
<!DOCTYPE svg PUBLIC "-//W3C//DTD SVG 1.1//EN" "http://www.w3.org/Graphics/SVG/1.1/DTD/svg11.dtd">
<!-- Creator: CorelDRAW X6 -->
<svg xmlns="http://www.w3.org/2000/svg" xml:space="preserve" width="200mm" height="200mm" version="1.1" style="shape-rendering:geometricPrecision; text-rendering:geometricPrecision; image-rendering:optimizeQuality; fill-rule:evenodd; clip-rule:evenodd"
viewBox="0 0 20000 20000"
 xmlns:xlink="http://www.w3.org/1999/xlink">
 <defs>
  <style type="text/css">
   <![CDATA[
    .str0 {stroke:black;stroke-width:52.92;stroke-linecap:round;stroke-linejoin:round}
    .fil0 {fill:none}
   ]]>
  </style>
 </defs>
 <g id="Layer_x0020_1">
  <metadata id="CorelCorpID_0Corel-Layer"/>
  <path class="fil0 str0" d="M1700 20700l-3400 0c-276,0 -500,-224 -500,-500l0 -400c0,-276 224,-500 500,-500l1213 0 0 -265 -1842 0c-166,0 -300,-134 -300,-300l0 -2766c0,-704 571,-1275 1275,-1275l2714 0c704,0 1275,571 1275,1275l0 2766c0,166 -134,300 -300,300l-1847 0 0 265 1213 0c276,0 500,224 500,500l0 400c0,276 -224,500 -500,500z"/>
 </g>
</svg>
