<?xml version="1.0" encoding="UTF-8"?>
<!DOCTYPE svg PUBLIC "-//W3C//DTD SVG 1.1//EN" "http://www.w3.org/Graphics/SVG/1.1/DTD/svg11.dtd">
<!-- Creator: CorelDRAW X6 -->
<svg xmlns="http://www.w3.org/2000/svg" xml:space="preserve" width="200mm" height="200mm" version="1.1" style="shape-rendering:geometricPrecision; text-rendering:geometricPrecision; image-rendering:optimizeQuality; fill-rule:evenodd; clip-rule:evenodd"
viewBox="0 0 20000 20000"
 xmlns:xlink="http://www.w3.org/1999/xlink">
 <defs>
  <style type="text/css">
   <![CDATA[
    .fil0 {fill:blue;fill-rule:nonzero}
   ]]>
  </style>
 </defs>
 <g id="Layer_x0020_1">
  <metadata id="CorelCorpID_0Corel-Layer"/>
  <path class="fil0" d="M-3154 22397c31,-31 50,-73 50,-120 0,-47 -19,-89 -50,-120 -31,-31 -73,-50 -120,-50 -47,0 -89,19 -120,50l0 0 0 0c-31,31 -49,73 -49,120 0,46 18,87 47,118 1,1 2,1 2,2 31,31 73,50 120,50 47,0 89,-19 120,-50z"/>
  <path class="fil0" d="M-3004 22277c0,74 -30,142 -79,191 -49,49 -116,79 -191,79 -74,0 -142,-30 -191,-79 -1,-1 -2,-2 -3,-3 -47,-49 -76,-115 -76,-188 0,-74 30,-142 79,-190l0 0c49,-49 116,-79 191,-79 74,0 142,30 190,79l0 0c49,49 79,116 79,190z"/>
  <path class="fil0" d="M-2950 22600c83,-83 134,-197 134,-324 0,-126 -51,-241 -134,-324 -83,-83 -197,-134 -324,-134 -126,0 -241,51 -324,134 -83,83 -134,197 -134,324 0,126 51,241 134,324 83,83 197,134 324,134 126,0 241,-51 324,-134z"/>
  <path class="fil0" d="M3294 22600c83,-83 134,-197 134,-324 0,-126 -51,-241 -134,-324 -83,-83 -197,-134 -324,-134 -126,0 -241,51 -324,134 -83,83 -134,197 -134,324 0,126 51,241 134,324 83,83 197,134 324,134 125,0 239,-50 321,-132 1,-1 2,-2 2,-3z"/>
  <path class="fil0" d="M3090 22397c31,-31 50,-73 50,-120 0,-47 -19,-89 -50,-120 -31,-31 -73,-50 -120,-50 -47,0 -89,19 -120,50l0 0 0 0c-31,31 -49,73 -49,120 0,46 18,87 47,118 1,1 2,1 2,2 31,31 73,50 120,50 47,0 89,-19 120,-50z"/>
  <path class="fil0" d="M3240 22277c0,74 -30,142 -79,191 -49,49 -116,79 -191,79 -74,0 -142,-30 -191,-79 -1,-1 -2,-2 -3,-3 -47,-49 -76,-115 -76,-188 0,-74 30,-142 79,-190l0 0c49,-49 116,-79 191,-79 74,0 142,30 190,79l0 0c49,49 79,116 79,190z"/>
  <path class="fil0" d="M-4805 21192c-7,0 -14,-1 -20,-4 -231,-78 -472,-180 -721,-302 -250,-123 -508,-265 -772,-424 -24,-14 -31,-45 -17,-68 14,-24 45,-31 68,-17 263,157 518,299 765,420 243,119 479,219 705,295l9315 0c203,-74 405,-175 608,-298 206,-126 412,-274 617,-440 21,-17 53,-14 70,8 17,21 14,53 -8,70 -209,168 -418,320 -628,448 -209,128 -419,232 -630,308 -6,3 -14,5 -21,5l-9331 0z"/>
 </g>
</svg>
