<?xml version="1.0" encoding="UTF-8"?>
<!DOCTYPE svg PUBLIC "-//W3C//DTD SVG 1.1//EN" "http://www.w3.org/Graphics/SVG/1.1/DTD/svg11.dtd">
<!-- Creator: CorelDRAW X6 -->
<svg xmlns="http://www.w3.org/2000/svg" xml:space="preserve" width="200mm" height="200mm" version="1.1" style="shape-rendering:geometricPrecision; text-rendering:geometricPrecision; image-rendering:optimizeQuality; fill-rule:evenodd; clip-rule:evenodd"
viewBox="0 0 20000 20000"
 xmlns:xlink="http://www.w3.org/1999/xlink">
 <defs>
  <style type="text/css">
   <![CDATA[
    .fil0 {fill:blue;fill-rule:nonzero}
   ]]>
  </style>
 </defs>
 <g id="Layer_x0020_1">
  <metadata id="CorelCorpID_0Corel-Layer"/>
  <path class="fil0" d="M-1508 19431c-28,0 -50,-22 -50,-50 0,-28 22,-50 50,-50l971 0c28,0 50,22 50,50 0,28 -22,50 -50,50l-971 0z"/>
  <path class="fil0" d="M-1222 21889c28,0 50,22 50,50 0,28 -22,50 -50,50l-2229 0c-28,0 -50,-22 -50,-50 0,-28 22,-50 50,-50l2229 0z"/>
  <path class="fil0" d="M-2281 20489c-28,0 -50,-22 -50,-50 0,-28 22,-50 50,-50l2118 0c28,0 50,22 50,50 0,28 -22,50 -50,50l-2118 0z"/>
  <path class="fil0" d="M-163 21161c28,0 50,22 50,50 0,28 -22,50 -50,50l-721 0c-28,0 -50,-22 -50,-50 0,-28 22,-50 50,-50l721 0z"/>
  <path class="fil0" d="M-884 21161c28,0 50,22 50,50 0,28 -22,50 -50,50 -79,0 -151,32 -203,84 -52,52 -84,124 -84,203 0,28 -22,50 -50,50 -28,0 -50,-22 -50,-50 0,-107 43,-204 114,-274 70,-70 167,-114 274,-114z"/>
  <path class="fil0" d="M-1272 21549c0,-28 22,-50 50,-50 28,0 50,22 50,50l0 340 959 0 0 -678c0,-28 22,-50 50,-50 28,0 50,22 50,50l0 728c0,28 -22,50 -50,50l-1059 0c-28,0 -50,-22 -50,-50l0 -390z"/>
  <path class="fil0" d="M-2281 19806c-28,0 -50,-22 -50,-50 0,-28 22,-50 50,-50l2118 0c28,0 50,22 50,50 0,28 -22,50 -50,50l-2118 0z"/>
  <path class="fil0" d="M1219 21975c-28,0 -50,-22 -50,-50 0,-28 22,-50 50,-50l2229 0c28,0 50,22 50,50 0,28 -22,50 -50,50l-2229 0z"/>
  <path class="fil0" d="M2278 20375c28,0 50,22 50,50 0,28 -22,50 -50,50l-2118 0c-28,0 -50,-22 -50,-50 0,-28 22,-50 50,-50l2118 0z"/>
  <path class="fil0" d="M160 21247c-28,0 -50,-22 -50,-50 0,-28 22,-50 50,-50l721 0c28,0 50,22 50,50 0,28 -22,50 -50,50l-721 0z"/>
  <path class="fil0" d="M882 21247c-28,0 -50,-22 -50,-50 0,-28 22,-50 50,-50 107,0 204,43 274,114 70,70 114,167 114,274 0,28 -22,50 -50,50 -28,0 -50,-22 -50,-50 0,-79 -32,-151 -84,-203 -52,-52 -124,-84 -203,-84z"/>
  <path class="fil0" d="M1169 21535c0,-28 22,-50 50,-50 28,0 50,22 50,50l0 390c0,28 -22,50 -50,50l-1059 0c-28,0 -50,-22 -50,-50l0 -728c0,-28 22,-50 50,-50 28,0 50,22 50,50l0 678 959 0 0 -340z"/>
  <path class="fil0" d="M2278 19691c28,0 50,22 50,50 0,28 -22,50 -50,50l-2118 0c-28,0 -50,-22 -50,-50 0,-28 22,-50 50,-50l2118 0z"/>
  <path class="fil0" d="M634 19415c-28,0 -50,-22 -50,-50 0,-28 22,-50 50,-50l969 4c28,0 50,22 50,50 0,28 -22,50 -50,50l-969 -4z"/>
 </g>
</svg>
