<?xml version="1.0" encoding="UTF-8"?>
<!DOCTYPE svg PUBLIC "-//W3C//DTD SVG 1.1//EN" "http://www.w3.org/Graphics/SVG/1.1/DTD/svg11.dtd">
<!-- Creator: CorelDRAW X6 -->
<svg xmlns="http://www.w3.org/2000/svg" xml:space="preserve" width="200mm" height="200mm" version="1.1" style="shape-rendering:geometricPrecision; text-rendering:geometricPrecision; image-rendering:optimizeQuality; fill-rule:evenodd; clip-rule:evenodd"
viewBox="0 0 20000 20000"
 xmlns:xlink="http://www.w3.org/1999/xlink">
 <defs>
  <style type="text/css">
   <![CDATA[
    .str0 {stroke:black;stroke-width:52.92;stroke-linecap:round;stroke-linejoin:round}
    .fil0 {fill:none}
   ]]>
  </style>
 </defs>
 <g id="Layer_x0020_1">
  <metadata id="CorelCorpID_0Corel-Layer"/>
  <path class="fil0 str0" d="M-1450 20950l0 -525 -690 0 0 -15c-179,385 -569,652 -1021,652l-1500 0 0 -750 1683 0c352,-122 319,-671 -26,-750l-1656 0 0 -750 1500 0c452,0 842,267 1021,652l0 -14 690 0 0 -400c0,-276 224,-500 500,-500l400 0c276,0 500,224 500,500l0 1900c0,276 -224,500 -500,500l-400 0c-276,0 -500,-224 -500,-500z"/>
  <path class="fil0 str0" d="M1450 20950l0 -525 690 0 0 -15c179,385 569,652 1021,652l1500 0 0 -750 -1683 0c-352,-122 -319,-671 26,-750l1656 0 0 -750 -1500 0c-452,0 -842,267 -1021,652l0 -14 -690 0 0 -400c0,-276 -224,-500 -500,-500l-400 0c-276,0 -500,224 -500,500l0 1900c0,276 224,500 500,500l400 0c276,0 500,-224 500,-500z"/>
 </g>
</svg>
