<?xml version="1.0" encoding="UTF-8"?>
<!DOCTYPE svg PUBLIC "-//W3C//DTD SVG 1.1//EN" "http://www.w3.org/Graphics/SVG/1.1/DTD/svg11.dtd">
<!-- Creator: CorelDRAW X6 -->
<svg xmlns="http://www.w3.org/2000/svg" xml:space="preserve" width="200mm" height="200mm" version="1.1" style="shape-rendering:geometricPrecision; text-rendering:geometricPrecision; image-rendering:optimizeQuality; fill-rule:evenodd; clip-rule:evenodd"
viewBox="0 0 20000 20000"
 xmlns:xlink="http://www.w3.org/1999/xlink">
 <defs>
  <style type="text/css">
   <![CDATA[
    .fil0 {fill:blue;fill-rule:nonzero}
   ]]>
  </style>
 </defs>
 <g id="Layer_x0020_1">
  <metadata id="CorelCorpID_0Corel-Layer"/>
  <path class="fil0" d="M2316 19258c-119,-58 -187,62 -177,166 -79,-6 -167,68 -236,115 20,-244 -479,-25 -604,-49 -41,-8 -86,-2 -116,24l0 0c-69,59 -47,202 -53,283l-5 69 0 0c-19,292 84,142 440,258 -95,82 -261,60 -379,60l0 0c-97,0 -60,247 -40,270 38,43 413,73 500,82 46,4 81,-5 126,-9l0 0c86,-7 26,-318 -2,-363 41,-9 67,-38 81,-80 22,37 49,80 78,121l0 0 48 24c-18,41 61,264 191,303l0 0 14 3c38,4 101,-11 113,-53l0 0 2 -14c30,28 69,46 109,42 -29,145 286,233 420,293 112,50 460,253 604,169 59,105 245,71 520,210 36,18 98,23 136,4 34,108 191,102 282,110l32 3 0 0c16,1 28,-2 38,-10 60,78 240,66 326,37l0 0c90,-29 -17,-162 -71,-172 -374,-66 -139,-33 -309,-106 -87,-37 -175,-48 -267,-34 -12,-19 -28,-36 -47,-50l0 0 -3 -2 0 0c-84,-60 -202,-66 -293,-108l0 0 -173 -103 0 0c-15,-11 -29,-18 -47,-25l0 0 -25 -12 0 0c-19,-10 -43,-5 -58,10 -68,-59 -353,-83 -703,-306 196,15 740,346 892,199 6,13 15,25 26,35l0 0c51,51 710,130 802,114 18,-3 34,-9 47,-17 21,22 55,42 82,39l0 0c118,-10 225,13 339,44l0 0c37,11 85,20 119,3 54,49 472,96 440,-25 -50,-190 -106,-106 -246,-152 -39,-13 -91,-29 -134,-25 -34,-80 -444,-97 -559,-116l-27 2c-28,-36 -115,-44 -162,-38l0 0c-3,0 -7,1 -11,1l0 0c-112,6 -217,-35 -322,-76l0 0c-92,-40 -360,-189 -394,-44 -145,-113 -522,-11 -826,-229 264,-64 606,85 872,144l0 0c64,14 110,-3 145,-42 84,87 404,-57 875,55 43,10 89,-11 89,-58 32,20 337,11 546,77l51 3 46 -13 0 0c51,-16 212,3 271,11l0 0c47,7 246,-36 155,-157 -74,-99 -210,-64 -311,-125 -22,-13 -54,-15 -83,-8 -23,-25 -92,-32 -122,-27l0 0c-266,39 -442,-104 -556,-32 -38,-99 -374,63 -730,-61l-76 -20 0 0c-76,-12 -125,-9 -147,46 -171,-181 -369,102 -879,-36l0 0c-74,-20 -145,-62 -219,-85 214,-121 624,-94 848,-38 103,26 190,-7 245,-89 42,68 151,34 223,16l0 0c226,-57 585,-6 619,-31 47,60 205,-69 385,-34l0 0c34,7 83,1 114,-19 57,65 515,66 493,-103 -14,-107 -434,-135 -479,-96 -5,4 -9,9 -13,14 -70,-53 -378,-27 -481,-27l0 0c-20,0 -37,11 -45,28 -46,-40 -85,-43 -142,-43l0 0c-174,0 -213,43 -447,14 -59,-7 -223,-48 -241,46 -247,-220 -207,43 -1105,18 -20,-1 -41,-4 -63,-8 248,-218 92,-211 548,-211l0 0c69,0 47,-88 42,-133 146,65 170,-96 500,-97 42,0 142,-13 143,-69 18,4 37,3 59,-5l0 0c115,-43 208,-119 312,-186l0 0c30,-19 39,-52 58,-83l0 0c47,-77 -105,-98 -149,-88l0 0c-88,19 -366,56 -393,153 -81,-41 -310,85 -596,94 -36,1 -81,37 -77,74 -112,-19 -291,116 -621,191 -67,15 -137,82 -167,141l0 0 -10 27z"/>
  <path class="fil0" d="M-2314 19263c119,-58 187,62 177,166 79,-6 167,68 236,115 -20,-244 479,-25 604,-49 41,-8 86,-2 116,24l0 0c69,59 47,202 53,283l5 69 0 0c19,292 -84,142 -440,258 95,82 261,60 379,60l0 0c97,0 60,247 40,270 -38,43 -413,73 -500,82 -46,4 -81,-5 -126,-9l0 0c-86,-7 -26,-318 2,-363 -41,-9 -67,-38 -81,-80 -22,37 -49,80 -78,121l0 0 -48 24c18,41 -61,264 -191,303l0 0 -14 3c-38,4 -101,-11 -113,-53l0 0 -2 -14c-30,28 -69,46 -109,42 29,145 -286,233 -420,293 -112,50 -460,253 -604,169 -59,105 -245,71 -520,210 -36,18 -98,23 -136,4 -34,108 -191,102 -282,110l-32 3 0 0c-16,1 -28,-2 -38,-10 -60,78 -240,66 -326,37l0 0c-90,-29 17,-162 71,-172 374,-66 139,-33 309,-106 87,-37 175,-48 267,-34 12,-19 28,-36 47,-50l0 0 3 -2 0 0c84,-60 202,-66 293,-108l0 0 173 -103 0 0c15,-11 29,-18 47,-25l0 0 25 -12 0 0c19,-10 43,-5 58,10 68,-59 353,-83 703,-306 -196,15 -740,346 -892,199 -6,13 -15,25 -26,35l0 0c-51,51 -710,130 -802,114 -18,-3 -34,-9 -47,-17 -21,22 -55,42 -82,39l0 0c-118,-10 -225,13 -339,44l0 0c-37,11 -85,20 -119,3 -54,49 -472,96 -440,-25 50,-190 106,-106 246,-152 39,-13 91,-29 134,-25 34,-80 444,-97 559,-116l27 2c28,-36 115,-44 162,-38l0 0c3,0 7,1 11,1l0 0c112,6 217,-35 322,-76l0 0c92,-40 360,-189 394,-44 145,-113 522,-11 826,-229 -264,-64 -606,85 -872,144l0 0c-64,14 -110,-3 -145,-42 -84,87 -404,-57 -875,55 -43,10 -89,-11 -89,-58 -32,20 -337,11 -546,77l-51 3 -46 -13 0 0c-51,-16 -212,3 -271,11l0 0c-47,7 -246,-36 -155,-157 74,-99 210,-64 311,-125 22,-13 54,-15 83,-8 23,-25 92,-32 122,-27l0 0c266,39 442,-104 556,-32 38,-99 374,63 730,-61l76 -20 0 0c76,-12 125,-9 147,46 171,-181 369,102 879,-36l0 0c74,-20 145,-62 219,-85 -214,-121 -624,-94 -848,-38 -103,26 -190,-7 -245,-89 -42,68 -151,34 -223,16l0 0c-226,-57 -585,-6 -619,-31 -47,60 -205,-69 -385,-34l0 0c-34,7 -83,1 -114,-19 -57,65 -515,66 -493,-103 14,-107 434,-135 479,-96 5,4 9,9 13,14 70,-53 378,-27 481,-27l0 0c20,0 37,11 45,28 46,-40 85,-43 142,-43l0 0c174,0 213,43 447,14 59,-7 223,-48 241,46 247,-220 207,43 1105,18 20,-1 41,-4 63,-8 -248,-218 -92,-211 -548,-211l0 0c-69,0 -47,-88 -42,-133 -146,65 -170,-96 -500,-97 -42,0 -142,-13 -143,-69 -18,4 -37,3 -59,-5l0 0c-115,-43 -208,-119 -312,-186l0 0c-30,-19 -39,-52 -58,-83l0 0c-47,-77 105,-98 149,-88l0 0c88,19 366,56 393,153 81,-41 310,85 596,94 36,1 81,37 77,74 112,-19 291,116 621,191 67,15 137,82 167,141l0 0 10 27z"/>
 </g>
</svg>
