<?xml version="1.0" encoding="UTF-8"?>
<!DOCTYPE svg PUBLIC "-//W3C//DTD SVG 1.1//EN" "http://www.w3.org/Graphics/SVG/1.1/DTD/svg11.dtd">
<!-- Creator: CorelDRAW X6 -->
<svg xmlns="http://www.w3.org/2000/svg" xml:space="preserve" width="200mm" height="200mm" version="1.1" style="shape-rendering:geometricPrecision; text-rendering:geometricPrecision; image-rendering:optimizeQuality; fill-rule:evenodd; clip-rule:evenodd"
viewBox="0 0 20000 20000"
 xmlns:xlink="http://www.w3.org/1999/xlink">
 <defs>
  <style type="text/css">
   <![CDATA[
    .fil0 {fill:blue;fill-rule:nonzero}
   ]]>
  </style>
 </defs>
 <g id="Layer_x0020_1">
  <metadata id="CorelCorpID_0Corel-Layer"/>
  <path class="fil0" d="M2716 21052c27,6 44,32 38,59 -6,27 -32,44 -59,38 -77,-17 -153,-38 -225,-60 -70,-22 -138,-47 -201,-70l-8 -3 -2 -1c-70,-26 -187,-72 -174,-178 2,-20 16,-36 34,-42 104,-42 208,-20 310,2 44,9 88,19 128,22 29,2 58,3 86,2l0 0c28,-1 57,-3 88,-6 27,-3 52,17 55,44 3,27 -17,52 -44,55 -31,4 -63,6 -97,7l0 0c-33,1 -65,0 -95,-2 -47,-3 -94,-13 -142,-24 -71,-15 -144,-31 -209,-20 23,19 65,35 95,46l3 1 8 3c59,22 125,46 195,68 70,22 142,42 215,58zm-72 -230l0 0"/>
  <path class="fil0" d="M2437 21600c26,10 38,39 28,65 -10,26 -39,38 -65,28 -58,-23 -115,-52 -167,-83 -58,-35 -112,-73 -158,-111 -35,-28 -120,-99 -189,-179 -79,-91 -135,-194 -85,-275 58,-94 221,-17 352,64 42,26 79,51 106,69 17,11 30,20 37,25 40,25 82,47 126,66 44,20 90,36 137,51 26,8 41,36 34,62 -8,26 -36,41 -62,34 -50,-15 -100,-33 -149,-55 -47,-21 -93,-45 -137,-73 -10,-6 -24,-15 -40,-27 -28,-19 -65,-43 -103,-67 -92,-57 -201,-119 -215,-96 -20,32 22,95 76,157 64,73 144,140 177,167 43,35 93,70 147,103 48,29 100,55 153,76z"/>
  <path class="fil0" d="M1409 21657c21,18 23,50 5,70 -18,21 -50,23 -70,5 -7,-7 -15,-14 -23,-23 -8,-8 -15,-18 -23,-28 -7,-9 -21,-27 -41,-51 -85,-105 -255,-317 -318,-463 -40,-94 -39,-168 35,-200 46,-19 110,-10 175,11 86,29 179,80 223,110 119,81 215,182 311,283 34,36 68,71 102,105 20,19 20,51 0,71 -19,20 -51,20 -71,0 -36,-36 -70,-71 -104,-107 -93,-98 -185,-195 -294,-269 -39,-26 -121,-72 -198,-98 -44,-15 -84,-23 -104,-14 -7,3 1,30 18,69 57,134 222,338 303,439 19,24 34,43 43,54 6,8 12,15 17,21 5,5 10,10 14,14z"/>
  <path class="fil0" d="M-2711 21153c-27,6 -53,-12 -59,-39 -6,-27 12,-53 39,-59 75,-16 151,-36 223,-59 73,-23 141,-47 202,-71l8 -3 2 -1c30,-11 72,-27 95,-46 -65,-11 -138,4 -209,20 -48,10 -95,20 -142,24 -31,2 -63,3 -95,2l0 0c-33,-1 -65,-3 -97,-7 -27,-3 -47,-28 -44,-55 3,-27 28,-47 55,-44 30,3 59,6 88,6l0 0c28,1 57,0 86,-2 40,-3 84,-12 128,-22 102,-22 207,-44 310,-2 18,6 32,22 34,42 13,106 -104,152 -174,178l-2 1 -8 3c-64,24 -134,49 -208,73 -74,23 -153,45 -233,61zm67 -331l0 0"/>
  <path class="fil0" d="M-2379 21684c-25,11 -55,-1 -65,-26 -11,-25 1,-55 26,-65 50,-21 98,-47 143,-74 51,-31 97,-64 137,-97 33,-27 113,-94 177,-167 54,-62 96,-125 76,-157 -14,-22 -123,40 -215,96 -39,24 -75,49 -103,67 -17,11 -30,20 -40,27 -40,25 -82,47 -124,67 -43,20 -88,37 -134,52 -26,8 -54,-6 -63,-32 -8,-26 6,-54 32,-63 42,-13 83,-29 123,-48 39,-18 77,-38 113,-61 7,-5 21,-13 37,-25 28,-19 65,-43 106,-69 131,-81 294,-158 352,-64 50,81 -6,184 -85,275 -69,79 -155,151 -189,179 -43,36 -94,72 -148,105 -49,30 -102,58 -156,81z"/>
  <path class="fil0" d="M-1352 21738c-21,17 -53,14 -70,-8 -17,-21 -14,-53 8,-70 5,-4 10,-9 16,-15 6,-7 13,-14 19,-23 9,-12 24,-30 43,-54 82,-101 247,-306 303,-439 16,-39 25,-66 18,-69 -20,-9 -60,-1 -104,14 -77,26 -160,71 -198,98 -109,74 -202,172 -294,269 -34,36 -68,72 -104,107 -20,19 -51,19 -71,0 -19,-20 -19,-51 0,-71 34,-34 68,-70 102,-105 96,-101 192,-202 311,-283 43,-29 137,-81 223,-110 65,-22 129,-31 175,-11 74,32 75,106 35,200 -62,146 -233,358 -318,463 -19,24 -34,42 -41,51 -9,12 -18,23 -26,32 -9,9 -18,18 -27,25z"/>
 </g>
</svg>
