<?xml version="1.0" encoding="UTF-8"?>
<!DOCTYPE svg PUBLIC "-//W3C//DTD SVG 1.1//EN" "http://www.w3.org/Graphics/SVG/1.1/DTD/svg11.dtd">
<!-- Creator: CorelDRAW X6 -->
<svg xmlns="http://www.w3.org/2000/svg" xml:space="preserve" width="200mm" height="200mm" version="1.1" style="shape-rendering:geometricPrecision; text-rendering:geometricPrecision; image-rendering:optimizeQuality; fill-rule:evenodd; clip-rule:evenodd"
viewBox="0 0 20000 20000"
 xmlns:xlink="http://www.w3.org/1999/xlink">
 <defs>
  <style type="text/css">
   <![CDATA[
    .str0 {stroke:black;stroke-width:52.92;stroke-linecap:round;stroke-linejoin:round}
    .fil0 {fill:none}
   ]]>
  </style>
 </defs>
 <g id="Layer_x0020_1">
  <metadata id="CorelCorpID_0Corel-Layer"/>
  <path class="fil0 str0" d="M1691 18942l-126 0c3,296 7,550 8,572 22,283 96,564 304,769 209,206 429,294 723,293 136,-1 267,-48 388,-107 98,-48 275,-123 339,-214 113,-160 113,-387 368,-369 121,9 230,74 264,188 34,114 15,237 -45,340 -52,87 -125,121 -219,145 -101,26 -190,-23 -284,0 -105,25 -206,138 -301,190 -11,6 -23,12 -35,18 -104,51 -220,85 -321,96 -19,3 -72,30 -86,65 -26,63 25,109 38,170 176,42 357,55 508,8 77,-24 82,-59 127,-120 144,-191 424,-192 545,28 47,85 68,254 31,343 -50,118 -192,159 -310,151 -62,-4 -126,-20 -178,-55 -52,-34 -72,-90 -123,-98 -67,-10 -195,52 -269,59 -87,9 -175,8 -262,-1 -78,-8 -155,-24 -229,-46 -196,10 -166,110 -133,276 142,57 286,80 410,30 62,-25 98,-26 164,-10 210,52 301,260 241,464 -86,292 -621,295 -715,10 -35,-107 32,-133 -88,-189 -178,-82 -352,-175 -510,-292 -58,-43 -112,-93 -144,-125 -43,-34 -121,-33 -172,-28 -147,14 -168,65 -219,188 52,49 97,36 180,53 91,18 177,85 215,170 24,54 22,120 24,179 11,262 -268,422 -500,348 -257,-82 -261,-430 -97,-603 -244,-295 -516,-593 -640,-962 -122,-364 -40,-807 6,-1180 25,-206 4,-402 23,-604l0 -150 -1177 0 0 150c19,202 -2,398 23,604 46,373 128,816 6,1180 -124,369 -396,668 -640,962 164,173 160,521 -97,603 -232,74 -511,-86 -500,-348 2,-58 0,-125 24,-179 38,-85 124,-151 215,-170 80,-16 125,-4 175,-50 -50,-126 -72,-177 -219,-191 -51,-5 -129,-7 -170,28 -30,33 -84,82 -142,125 -158,117 -332,210 -510,292 -121,56 -53,82 -88,189 -94,285 -628,282 -715,-10 -60,-203 31,-412 241,-464 66,-16 101,-16 164,10 129,52 282,25 418,-34 21,-161 50,-261 -129,-276 -66,22 -153,41 -241,50 -87,9 -175,10 -262,1 -74,-7 -202,-70 -269,-59 -51,8 -71,64 -123,98 -52,34 -117,51 -178,55 -118,8 -260,-34 -310,-151 -38,-89 -16,-258 31,-343 120,-221 400,-220 545,-28 45,60 50,95 127,120 147,46 322,35 498,-6 18,-63 69,-108 43,-171 -14,-34 -67,-61 -84,-65 -98,-11 -214,-45 -319,-96 -12,-6 -23,-12 -35,-18 -95,-52 -195,-165 -301,-190 -94,-23 -183,26 -284,0 -94,-24 -168,-57 -219,-145 -61,-102 -79,-226 -45,-340 34,-114 143,-179 264,-188 255,-19 255,208 368,369 64,91 241,166 339,214 120,59 252,106 388,107 294,2 515,-87 723,-293 208,-205 282,-486 304,-769 2,-22 5,-276 8,-572l-144 0c-276,0 -500,-224 -500,-500l0 -400c0,-276 224,-500 500,-500l3400 0c276,0 500,224 500,500l0 400c0,276 -224,500 -500,500z"/>
 </g>
</svg>
