<?xml version="1.0" encoding="UTF-8"?>
<!DOCTYPE svg PUBLIC "-//W3C//DTD SVG 1.1//EN" "http://www.w3.org/Graphics/SVG/1.1/DTD/svg11.dtd">
<!-- Creator: CorelDRAW X6 -->
<svg xmlns="http://www.w3.org/2000/svg" xml:space="preserve" width="200mm" height="200mm" version="1.1" style="shape-rendering:geometricPrecision; text-rendering:geometricPrecision; image-rendering:optimizeQuality; fill-rule:evenodd; clip-rule:evenodd"
viewBox="0 0 20000 20000"
 xmlns:xlink="http://www.w3.org/1999/xlink">
 <defs>
  <style type="text/css">
   <![CDATA[
    .str0 {stroke:black;stroke-width:52.99;stroke-linejoin:bevel}
    .fil0 {fill:none}
   ]]>
  </style>
 </defs>
 <g id="Layer_x0020_1">
  <metadata id="CorelCorpID_0Corel-Layer"/>
  <path class="fil0 str0" d="M1450 22040l309 0c-19,129 -36,257 -26,386 5,65 -15,197 10,254 44,101 230,160 324,201 153,68 320,93 478,144 352,113 1001,214 1339,26 -88,-83 -188,-153 -292,-215 -51,-30 -104,-58 -157,-86 -35,-18 -74,-30 -112,-42 62,7 121,29 183,32 134,6 270,4 403,-8 237,-23 458,-102 682,-176 100,-33 193,-67 288,-112 135,-64 260,-123 370,-229 -11,11 -163,-29 -186,-32 -66,-8 -132,-13 -198,-19 -133,-11 -275,-15 -403,-54 24,-21 62,-24 88,-42 35,-23 69,-47 103,-70 95,-64 189,-129 282,-196 140,-100 277,-205 413,-310 95,-73 188,-148 277,-227 46,-41 91,-82 135,-125 38,-37 98,-81 120,-127 -22,-1 -43,7 -65,9 -34,2 -66,2 -100,1 -76,-3 -155,-7 -230,-14 -65,-6 -130,-2 -196,-5 66,-40 126,-90 191,-130 82,-51 171,-95 243,-160 133,-121 260,-250 383,-380 155,-163 305,-335 394,-542 -217,8 -488,133 -711,159 157,-177 485,-666 479,-1012 0,9 -151,87 -168,98 -61,40 -120,82 -181,121 -127,81 -245,122 -391,150 195,-150 340,-361 427,-590 44,-115 73,-237 86,-360 12,-118 -10,-233 -5,-349 -3,64 -84,151 -120,202 -52,76 -108,149 -167,220 -171,205 -364,379 -588,525 24,-16 32,-81 42,-106 20,-52 39,-104 57,-156 35,-101 67,-204 96,-307 44,-155 80,-312 110,-470 14,-74 25,-148 35,-223 5,-39 11,-78 16,-117 3,-24 -1,-101 14,-118 -74,64 -117,147 -168,229 -56,90 -115,178 -177,264 -180,249 -404,459 -585,705 320,-510 521,-1241 230,-1812 24,48 -49,164 -67,206 -37,90 -74,180 -110,270 -67,167 -129,336 -195,504 -30,76 -62,151 -94,227 -17,39 -33,78 -51,117 -13,30 -52,85 -52,116 -209,457 -460,902 -801,1275 -228,249 -503,449 -802,604 -26,14 -53,27 -80,40 -141,69 -278,124 -429,161 -88,21 -272,62 -307,161 -31,89 0,247 0,341 0,65 2,131 5,197l-403 0 0 -400c0,-276 -224,-500 -500,-500l-400 0c-276,0 -500,224 -500,500l0 1900c0,276 224,500 500,500l400 0c276,0 500,-224 500,-500l0 -525z"/>
  <path class="fil0 str0" d="M-1450 22040l-309 0c19,129 36,257 26,386 -5,65 15,197 -10,254 -44,101 -231,160 -324,201 -153,68 -320,93 -478,144 -352,113 -1001,214 -1339,26 88,-83 188,-153 292,-215 51,-30 104,-58 157,-86 35,-18 74,-30 112,-42 -62,7 -121,29 -183,32 -134,6 -270,4 -403,-8 -237,-23 -458,-102 -682,-176 -100,-33 -193,-67 -288,-112 -135,-64 -260,-123 -370,-229 11,11 163,-29 186,-32 66,-8 132,-13 198,-19 133,-11 275,-15 403,-54 -24,-21 -62,-24 -88,-42 -35,-23 -69,-47 -103,-70 -95,-64 -189,-129 -282,-196 -140,-100 -277,-205 -413,-310 -95,-73 -188,-148 -277,-227 -46,-41 -91,-82 -135,-125 -38,-37 -98,-81 -120,-127 22,-1 43,7 65,9 34,2 66,2 100,1 76,-3 155,-7 230,-14 65,-6 130,-2 196,-5 -66,-40 -126,-90 -191,-130 -82,-51 -171,-95 -243,-160 -133,-121 -260,-250 -383,-380 -155,-163 -305,-335 -394,-542 217,8 488,133 711,159 -157,-177 -485,-666 -479,-1012 0,9 151,87 168,98 61,40 120,82 181,121 127,81 245,122 391,150 -195,-150 -340,-361 -427,-590 -44,-115 -73,-237 -86,-360 -12,-118 10,-233 5,-349 3,64 84,151 120,202 52,76 108,149 167,220 171,205 364,379 588,525 -24,-16 -32,-81 -42,-106 -20,-52 -39,-104 -57,-156 -35,-101 -67,-204 -96,-307 -44,-155 -80,-312 -110,-470 -14,-74 -25,-148 -35,-223 -5,-39 -11,-78 -16,-117 -3,-24 1,-101 -14,-118 74,64 117,147 168,229 56,90 115,178 177,264 180,249 404,459 585,705 -320,-510 -521,-1241 -230,-1812 -24,48 49,164 67,206 37,90 74,180 110,270 67,167 129,336 195,504 30,76 62,151 94,227 17,39 33,78 51,117 13,30 52,85 52,116 209,457 460,902 801,1275 228,249 503,449 802,604 26,14 53,27 80,40 141,69 278,124 429,161 88,21 272,62 307,161 31,89 0,247 0,341 0,65 -2,131 -5,197l403 0 0 -400c0,-276 224,-500 500,-500l400 0c276,0 500,224 500,500l0 1900c0,276 -224,500 -500,500l-400 0c-276,0 -500,-224 -500,-500l0 -525z"/>
 </g>
</svg>
