<?xml version="1.0" encoding="UTF-8"?>
<!DOCTYPE svg PUBLIC "-//W3C//DTD SVG 1.1//EN" "http://www.w3.org/Graphics/SVG/1.1/DTD/svg11.dtd">
<!-- Creator: CorelDRAW X6 -->
<svg xmlns="http://www.w3.org/2000/svg" xml:space="preserve" width="200mm" height="200mm" version="1.1" style="shape-rendering:geometricPrecision; text-rendering:geometricPrecision; image-rendering:optimizeQuality; fill-rule:evenodd; clip-rule:evenodd"
viewBox="0 0 20000 20000"
 xmlns:xlink="http://www.w3.org/1999/xlink">
 <defs>
  <style type="text/css">
   <![CDATA[
    .fil0 {fill:blue;fill-rule:nonzero}
   ]]>
  </style>
 </defs>
 <g id="Layer_x0020_1">
  <metadata id="CorelCorpID_0Corel-Layer"/>
  <path class="fil0" d="M-418 24080c0,61 -25,116 -65,156 -1,1 -2,2 -3,3 -40,38 -93,62 -153,62 -61,0 -116,-25 -156,-65 -1,-1 -2,-2 -3,-3 -38,-40 -62,-93 -62,-153 0,-61 25,-116 65,-156l0 0c40,-40 95,-65 156,-65 61,0 116,25 156,65l0 0 0 0c40,40 65,95 65,156zm-135 85c22,-22 35,-52 35,-85 0,-33 -13,-63 -35,-85l0 0c-22,-22 -52,-35 -85,-35 -33,0 -63,13 -85,35l0 0 0 0c-22,22 -35,52 -35,85 0,32 13,61 33,83 1,1 2,1 2,2 22,22 52,35 85,35 32,0 61,-13 83,-33 1,-1 1,-1 2,-2z"/>
  <path class="fil0" d="M-1227 24080c0,61 -25,116 -65,156 -1,1 -2,2 -3,3 -40,38 -94,62 -153,62 -61,0 -116,-25 -156,-65 -40,-40 -65,-95 -65,-156 0,-61 25,-116 65,-156 40,-40 95,-65 156,-65 61,0 116,25 156,65 40,40 65,95 65,156zm-135 85c22,-22 35,-52 35,-85 0,-33 -13,-63 -35,-85 -22,-22 -52,-35 -85,-35 -33,0 -64,13 -85,35 -22,22 -35,52 -35,85 0,33 13,63 35,85 22,22 52,35 85,35 32,0 61,-13 83,-33 1,-1 1,-2 2,-2z"/>
  <path class="fil0" d="M-2030 24080c0,61 -25,116 -65,156 -1,1 -2,2 -3,3 -40,38 -93,62 -153,62 -61,0 -116,-25 -156,-65 -40,-40 -65,-95 -65,-156 0,-61 25,-116 65,-156l0 0 0 0 1 -1c40,-40 95,-64 155,-64 61,0 116,25 156,65 40,40 65,95 65,156zm-135 85c22,-22 35,-52 35,-85 0,-33 -13,-63 -35,-85 -22,-22 -52,-35 -85,-35 -33,0 -63,13 -85,35l0 0c-22,22 -35,52 -35,85 0,33 13,63 35,85 22,22 52,35 85,35 32,0 61,-13 83,-33 1,-1 1,-2 2,-2z"/>
  <path class="fil0" d="M-3404 24079c0,28 -22,50 -50,50 -28,0 -50,-22 -50,-50 0,-123 50,-234 130,-314 80,-80 191,-130 314,-130 122,0 232,49 314,129 37,36 68,78 91,124 23,-46 54,-88 91,-124 82,-79 192,-128 313,-128 122,0 232,49 314,129 35,35 65,75 88,120 23,-45 53,-86 88,-120 81,-80 192,-129 314,-129 122,0 232,49 314,129 37,36 68,78 91,124 23,-46 54,-88 91,-124 82,-79 192,-128 313,-128 123,0 234,50 314,130 80,80 130,191 130,314 0,28 -22,50 -50,50 -28,0 -50,-22 -50,-50 0,-95 -39,-181 -101,-243 -62,-62 -148,-101 -243,-101 -95,0 -181,38 -244,100 -65,63 -106,150 -111,246 -1,25 -22,46 -47,47 -28,1 -51,-20 -52,-47 -5,-97 -46,-184 -111,-247 -63,-62 -149,-100 -244,-100 -95,0 -181,38 -244,100 -64,63 -105,150 -108,246 -1,26 -22,47 -48,48 -28,1 -51,-21 -52,-48 -3,-96 -44,-183 -108,-246 -63,-62 -149,-100 -244,-100 -95,0 -181,38 -244,100 -65,63 -106,150 -111,246 -1,25 -22,46 -47,47 -28,1 -51,-20 -52,-47 -5,-97 -46,-184 -111,-247 -63,-62 -149,-100 -244,-100 -95,0 -181,39 -243,101 -62,62 -101,148 -101,243z"/>
  <path class="fil0" d="M-2839 24079c0,61 -25,116 -65,156 -40,40 -95,65 -156,65 -61,0 -116,-25 -156,-65l0 0 0 0 -1 -1c-40,-40 -64,-95 -64,-155 0,-61 25,-116 65,-156 1,-1 2,-2 3,-3 40,-38 93,-62 153,-62 61,0 116,25 156,65 1,1 2,2 3,3 38,40 62,93 62,153zm-135 85c22,-22 35,-52 35,-85 0,-32 -13,-61 -33,-83 -1,-1 -2,-1 -2,-2 -22,-22 -52,-35 -85,-35 -32,0 -61,13 -83,33 -1,1 -1,1 -2,2 -22,22 -35,52 -35,85 0,33 13,63 35,85l0 0c22,22 52,35 85,35 33,0 63,-13 85,-35z"/>
  <path class="fil0" d="M-1544 20950c-28,0 -50,-22 -50,-50 0,-28 22,-50 50,-50l971 0c28,0 50,22 50,50 0,28 -22,50 -50,50l-971 0z"/>
  <path class="fil0" d="M-1258 23408c28,0 50,22 50,50 0,28 -22,50 -50,50l-2229 0c-28,0 -50,-22 -50,-50 0,-28 22,-50 50,-50l2229 0z"/>
  <path class="fil0" d="M-2317 22008c-28,0 -50,-22 -50,-50 0,-28 22,-50 50,-50l2118 0c28,0 50,22 50,50 0,28 -22,50 -50,50l-2118 0z"/>
  <path class="fil0" d="M-199 22680c28,0 50,22 50,50 0,28 -22,50 -50,50l-721 0c-28,0 -50,-22 -50,-50 0,-28 22,-50 50,-50l721 0z"/>
  <path class="fil0" d="M-921 22680c28,0 50,22 50,50 0,28 -22,50 -50,50 -79,0 -151,32 -203,84 -52,52 -84,124 -84,203 0,28 -22,50 -50,50 -28,0 -50,-22 -50,-50 0,-107 43,-204 114,-274 70,-70 167,-114 274,-114z"/>
  <path class="fil0" d="M-1308 23068c0,-28 22,-50 50,-50 28,0 50,22 50,50l0 340 959 0 0 -678c0,-28 22,-50 50,-50 28,0 50,22 50,50l0 728c0,28 -22,50 -50,50l-1059 0c-28,0 -50,-22 -50,-50l0 -390z"/>
  <path class="fil0" d="M-2317 21325c-28,0 -50,-22 -50,-50 0,-28 22,-50 50,-50l2118 0c28,0 50,22 50,50 0,28 -22,50 -50,50l-2118 0z"/>
  <path class="fil0" d="M1183 23494c-28,0 -50,-22 -50,-50 0,-28 22,-50 50,-50l2229 0c28,0 50,22 50,50 0,28 -22,50 -50,50l-2229 0z"/>
  <path class="fil0" d="M2242 21894c28,0 50,22 50,50 0,28 -22,50 -50,50l-2118 0c-28,0 -50,-22 -50,-50 0,-28 22,-50 50,-50l2118 0z"/>
  <path class="fil0" d="M124 22766c-28,0 -50,-22 -50,-50 0,-28 22,-50 50,-50l721 0c28,0 50,22 50,50 0,28 -22,50 -50,50l-721 0z"/>
  <path class="fil0" d="M845 22766c-28,0 -50,-22 -50,-50 0,-28 22,-50 50,-50 107,0 204,43 274,114 70,70 114,167 114,274 0,28 -22,50 -50,50 -28,0 -50,-22 -50,-50 0,-79 -32,-151 -84,-204 -52,-52 -124,-84 -203,-84z"/>
  <path class="fil0" d="M1133 23054c0,-28 22,-50 50,-50 28,0 50,22 50,50l0 390c0,28 -22,50 -50,50l-1059 0c-28,0 -50,-22 -50,-50l0 -728c0,-28 22,-50 50,-50 28,0 50,22 50,50l0 678 959 0 0 -340z"/>
  <path class="fil0" d="M2242 21211c28,0 50,22 50,50 0,28 -22,50 -50,50l-2118 0c-28,0 -50,-22 -50,-50 0,-28 22,-50 50,-50l2118 0z"/>
  <path class="fil0" d="M597 20934c-28,0 -50,-22 -50,-50 0,-28 22,-50 50,-50l969 4c28,0 50,22 50,50 0,28 -22,50 -50,50l-969 -4z"/>
  <path class="fil0" d="M-3454 23735c-28,0 -50,-22 -50,-50 0,-28 22,-50 50,-50l3210 0c28,0 50,22 50,50 0,28 -22,50 -50,50l-3210 0z"/>
  <path class="fil0" d="M157 23735c-28,0 -50,-22 -50,-50 0,-28 22,-50 50,-50l3210 -7c28,0 50,22 50,50 0,28 -22,50 -50,50l-3210 7z"/>
  <path class="fil0" d="M3193 24080c0,61 -25,116 -65,156 -1,1 -2,2 -3,3 -40,38 -93,62 -153,62 -61,0 -116,-25 -156,-65 -1,-1 -2,-2 -3,-3 -38,-40 -62,-93 -62,-153 0,-61 25,-116 65,-156l0 0c40,-40 95,-65 156,-65 61,0 116,25 156,65l0 0 0 0c40,40 65,95 65,156zm-135 85c22,-22 35,-52 35,-85 0,-33 -13,-63 -35,-85l0 0c-22,-22 -52,-35 -85,-35 -33,0 -63,13 -85,35l0 0 0 0c-22,22 -35,52 -35,85 0,32 13,61 33,83 1,1 2,1 2,2 22,22 52,35 85,35 32,0 61,-13 83,-33 1,-1 1,-1 2,-2z"/>
  <path class="fil0" d="M2384 24079c0,61 -25,116 -65,156 -1,1 -2,2 -3,3 -40,38 -94,62 -153,62 -61,0 -116,-25 -156,-65 -40,-40 -65,-95 -65,-156 0,-61 25,-116 65,-156 40,-40 95,-65 156,-65 61,0 116,25 156,65 40,40 65,95 65,156zm-135 85c22,-22 35,-52 35,-85 0,-33 -13,-63 -35,-85 -22,-22 -52,-35 -85,-35 -33,0 -64,13 -85,35 -22,22 -35,52 -35,85 0,33 13,63 35,85 22,22 52,35 85,35 32,0 61,-13 83,-33 1,-1 1,-2 2,-2z"/>
  <path class="fil0" d="M1580 24079c0,61 -25,116 -65,156 -1,1 -2,2 -3,3 -40,38 -93,62 -153,62 -61,0 -116,-25 -156,-65 -40,-40 -65,-95 -65,-156 0,-61 25,-116 65,-156l0 0 0 0 1 -1c40,-40 95,-64 155,-64 61,0 116,25 156,65 40,40 65,95 65,156zm-135 85c22,-22 35,-52 35,-85 0,-33 -13,-63 -35,-85 -22,-22 -52,-35 -85,-35 -33,0 -63,13 -85,35l0 0c-22,22 -35,52 -35,85 0,33 13,63 35,85 22,22 52,35 85,35 32,0 61,-13 83,-33 1,-1 1,-2 2,-2z"/>
  <path class="fil0" d="M207 24079c0,28 -22,50 -50,50 -28,0 -50,-22 -50,-50 0,-123 50,-234 130,-314 1,-1 2,-2 3,-3 80,-79 190,-127 311,-127 122,0 232,49 314,129 37,36 68,78 91,124 23,-46 54,-88 91,-124 82,-79 192,-128 313,-128 122,0 232,49 314,129 35,35 65,75 88,120 23,-45 53,-86 88,-120 81,-80 192,-129 314,-129 122,0 232,49 314,129 37,36 68,78 91,124 23,-46 54,-88 91,-124 82,-79 192,-128 313,-128 123,0 234,50 314,130 80,80 130,191 130,314 0,28 -22,50 -50,50 -28,0 -50,-22 -50,-50 0,-95 -39,-181 -101,-243 -62,-62 -148,-101 -243,-101 -95,0 -181,38 -244,100 -65,63 -106,150 -111,246 -1,25 -22,46 -47,47 -28,1 -51,-20 -52,-47 -5,-97 -46,-184 -111,-247 -63,-62 -149,-100 -244,-100 -95,0 -181,38 -244,100 -64,63 -105,150 -108,246 -1,26 -22,47 -48,48 -28,1 -51,-21 -52,-48 -3,-96 -44,-183 -108,-246 -63,-62 -149,-100 -244,-100 -95,0 -181,38 -244,100 -65,63 -106,150 -111,246 -1,25 -22,46 -47,47 -28,1 -51,-20 -52,-47 -5,-97 -46,-184 -111,-247 -63,-62 -149,-100 -244,-100 -94,0 -179,38 -241,98 -1,1 -1,2 -2,2 -62,62 -101,148 -101,243z"/>
  <path class="fil0" d="M771 24079c0,61 -25,116 -65,156 -40,40 -95,65 -156,65 -61,0 -116,-25 -156,-65l0 0 0 0 -1 -1c-40,-40 -64,-95 -64,-155 0,-61 25,-116 65,-156 1,-1 2,-2 3,-3 40,-38 93,-62 153,-62 61,0 116,25 156,65 1,1 2,2 3,3 38,40 62,93 62,153zm-135 85c22,-22 35,-52 35,-85 0,-32 -13,-61 -33,-83 -1,-1 -2,-1 -2,-2 -22,-22 -52,-35 -85,-35 -32,0 -61,13 -83,33 -1,1 -1,1 -2,2 -22,22 -35,52 -35,85 0,33 13,63 35,85l0 0c22,22 52,35 85,35 33,0 63,-13 85,-35z"/>
 </g>
</svg>
