<?xml version="1.0" encoding="UTF-8"?>
<!DOCTYPE svg PUBLIC "-//W3C//DTD SVG 1.1//EN" "http://www.w3.org/Graphics/SVG/1.1/DTD/svg11.dtd">
<!-- Creator: CorelDRAW X6 -->
<svg xmlns="http://www.w3.org/2000/svg" xml:space="preserve" width="200mm" height="200mm" version="1.1" style="shape-rendering:geometricPrecision; text-rendering:geometricPrecision; image-rendering:optimizeQuality; fill-rule:evenodd; clip-rule:evenodd"
viewBox="0 0 20000 20000"
 xmlns:xlink="http://www.w3.org/1999/xlink">
 <defs>
  <style type="text/css">
   <![CDATA[
    .str0 {stroke:black;stroke-width:52.92;stroke-linecap:round;stroke-linejoin:round}
    .fil0 {fill:none}
   ]]>
  </style>
 </defs>
 <g id="Layer_x0020_1">
  <metadata id="CorelCorpID_0Corel-Layer"/>
  <path class="fil0 str0" d="M1700 20700l-133 0 0 188 300 -3c207,0 375,168 375,375l0 683 420 0c414,0 750,336 750,750l0 750 4 234 -50 0 0 401c0,218 -176,394 -394,394 -218,0 -394,-176 -405,-394 -11,217 -187,394 -405,394 -218,0 -394,-176 -402,-394 -8,218 -184,394 -402,394 -218,0 -394,-176 -405,-394 -10,217 -187,394 -405,394 -218,0 -394,-176 -394,-394l0 -393 -28 0 -5 -2425c0,-206 166,-373 371,-375l102 -1 0 -185 -1168 0 0 200c206,2 371,169 371,375l0 2183 0 227 -45 0 0 395c0,218 -176,394 -394,394 -218,0 -394,-176 -405,-394 -11,217 -187,394 -405,394 -218,0 -394,-176 -402,-394 -8,218 -184,394 -402,394 -218,0 -394,-176 -405,-394 -10,217 -187,394 -405,394 -218,0 -394,-176 -394,-394l0 -394 -35 0 1 -227 0 -750c0,-414 336,-750 750,-750l420 0 0 -683c0,-207 168,-375 375,-375l397 0 0 -200 -154 0c-276,0 -500,-224 -500,-500l0 -400c0,-276 224,-500 500,-500l3400 0c276,0 500,224 500,500l0 400c0,276 -224,500 -500,500z"/>
 </g>
</svg>
