<?xml version="1.0" encoding="UTF-8"?>
<!DOCTYPE svg PUBLIC "-//W3C//DTD SVG 1.1//EN" "http://www.w3.org/Graphics/SVG/1.1/DTD/svg11.dtd">
<!-- Creator: CorelDRAW X6 -->
<svg xmlns="http://www.w3.org/2000/svg" xml:space="preserve" width="200mm" height="200mm" version="1.1" style="shape-rendering:geometricPrecision; text-rendering:geometricPrecision; image-rendering:optimizeQuality; fill-rule:evenodd; clip-rule:evenodd"
viewBox="0 0 20000 20000"
 xmlns:xlink="http://www.w3.org/1999/xlink">
 <defs>
  <style type="text/css">
   <![CDATA[
    .str0 {stroke:black;stroke-width:7.62}
    .fil0 {fill:none;fill-rule:nonzero}
   ]]>
  </style>
 </defs>
 <g id="Layer_x0020_1">
  <metadata id="CorelCorpID_0Corel-Layer"/>
  <path class="fil0 str0" d="M-190 17008c0,-206 -84,-393 -219,-528 -135,-135 -322,-219 -528,-219 -206,0 -393,84 -528,219 -135,135 -219,322 -219,528 0,206 84,393 219,528 123,123 288,203 472,217 -20,-13 -38,-29 -52,-49 -16,-22 -28,-49 -33,-78 -8,-45 3,-85 25,-117 19,-27 45,-48 76,-62 30,-13 63,-19 95,-17 42,4 84,22 115,58 3,3 6,7 9,11l0 0 0 0c26,36 36,82 30,126 -5,43 -26,85 -59,114 145,-30 275,-102 376,-203 135,-135 219,-322 219,-528z"/>
  <path class="fil0 str0" d="M1667 17008c0,-206 -84,-393 -219,-528 -135,-135 -322,-219 -528,-219 -206,0 -393,84 -528,219 -135,135 -219,322 -219,528 0,206 84,393 219,528 114,114 264,191 432,212 -13,-9 -24,-19 -35,-30 -21,-23 -37,-50 -45,-80 -8,-31 -8,-64 4,-97 10,-34 31,-61 56,-81l0 0c24,-19 54,-31 85,-37 30,-5 62,-4 91,5 33,10 64,29 86,58l0 0c19,24 29,52 33,81 4,30 1,60 -9,88 -10,28 -25,55 -47,76 -5,5 -11,10 -17,15 163,-23 309,-100 421,-211 135,-135 219,-322 219,-528z"/>
  <path class="fil0 str0" d="M6 18190c-105,-1 -200,-43 -269,-112 -69,-69 -112,-165 -112,-271 0,-28 22,-50 50,-50 28,0 50,22 50,50 0,78 32,149 83,200 51,51 122,83 200,83l1 0c78,0 149,-32 200,-83 51,-51 83,-122 83,-200 0,-28 22,-50 50,-50 28,0 50,22 50,50 0,106 -43,202 -112,271 -69,69 -164,112 -269,112l-1 0 -1 0 -1 0z"/>
  <path class="fil0 str0" d="M-2629 16135l317 0c28,0 50,22 50,50l0 2081c0,28 -22,50 -50,50l-317 0c-28,0 -50,-22 -50,-50l0 -2081c0,-28 22,-50 50,-50z"/>
  <path class="fil0 str0" d="M2319 16135l318 0c28,0 50,22 50,50l0 2081c0,28 -22,50 -50,50l-318 0c-28,0 -50,-22 -50,-50l0 -2081c0,-28 22,-50 50,-50z"/>
  <path class="fil0 str0" d="M77 14806l121 245 270 39c27,4 46,29 42,56 -2,12 -8,22 -16,30l-194 189 46 269c5,27 -14,53 -41,58 -12,2 -24,0 -33,-6l-240 -126 -242 127c-24,13 -55,3 -67,-21 -5,-10 -7,-21 -5,-32l0 0 46 -269 -195 -190c-20,-19 -20,-51 -1,-71 8,-8 18,-13 29,-15l0 0 270 -39 121 -245c12,-25 42,-35 67,-23 10,5 18,13 23,23l0 0z"/>
  <path class="fil0 str0" d="M-1988 18480l4022 0c28,0 50,22 50,50l0 505c0,28 -22,50 -50,50l-4022 0c-28,0 -50,-22 -50,-50l0 -505c0,-28 22,-50 50,-50z"/>
 </g>
</svg>
