<?xml version="1.0" encoding="UTF-8"?>
<!DOCTYPE svg PUBLIC "-//W3C//DTD SVG 1.1//EN" "http://www.w3.org/Graphics/SVG/1.1/DTD/svg11.dtd">
<!-- Creator: CorelDRAW X6 -->
<svg xmlns="http://www.w3.org/2000/svg" xml:space="preserve" width="200mm" height="200mm" version="1.1" style="shape-rendering:geometricPrecision; text-rendering:geometricPrecision; image-rendering:optimizeQuality; fill-rule:evenodd; clip-rule:evenodd"
viewBox="0 0 20000 20000"
 xmlns:xlink="http://www.w3.org/1999/xlink">
 <defs>
  <style type="text/css">
   <![CDATA[
    .fil0 {fill:blue;fill-rule:nonzero}
   ]]>
  </style>
 </defs>
 <g id="Layer_x0020_1">
  <metadata id="CorelCorpID_0Corel-Layer"/>
  <path class="fil0" d="M-1544 20950c-28,0 -50,-22 -50,-50 0,-28 22,-50 50,-50l971 0c28,0 50,22 50,50 0,28 -22,50 -50,50l-971 0z"/>
  <path class="fil0" d="M-2317 22008c-28,0 -50,-22 -50,-50 0,-28 22,-50 50,-50l2118 0c28,0 50,22 50,50 0,28 -22,50 -50,50l-2118 0z"/>
  <path class="fil0" d="M-149 22730l0 728c0,28 -22,50 -50,50l-1059 0c-1,0 -3,0 -4,0l-2225 0c-28,0 -50,-22 -50,-50 0,-28 22,-50 50,-50l2179 0 0 -340c0,-107 43,-204 114,-274 70,-70 167,-114 274,-114l721 0c28,0 50,22 50,50z"/>
  <path class="fil0" d="M-2317 21325c-28,0 -50,-22 -50,-50 0,-28 22,-50 50,-50l2118 0c28,0 50,22 50,50 0,28 -22,50 -50,50l-2118 0z"/>
  <path class="fil0" d="M-1383 23955c-28,0 -50,-22 -50,-50 0,-28 22,-50 50,-50l1134 0c28,0 50,22 50,50 0,28 -22,50 -50,50l-1134 0z"/>
  <path class="fil0" d="M1233 23054l0 340 2179 0c28,0 50,22 50,50 0,28 -22,50 -50,50l-2225 0c-1,0 -3,0 -4,0l-1059 0c-28,0 -50,-22 -50,-50l0 -728c0,-28 22,-50 50,-50l721 0c107,0 204,43 274,114 70,70 114,167 114,274z"/>
  <path class="fil0" d="M2242 21211c28,0 50,22 50,50 0,28 -22,50 -50,50l-2118 0c-28,0 -50,-22 -50,-50 0,-28 22,-50 50,-50l2118 0z"/>
  <path class="fil0" d="M1308 23840c28,0 50,22 50,50 0,28 -22,50 -50,50l-1134 0c-28,0 -50,-22 -50,-50 0,-28 22,-50 50,-50l1134 0z"/>
  <path class="fil0" d="M597 20934c-28,0 -50,-22 -50,-50 0,-28 22,-50 50,-50l969 4c28,0 50,22 50,50 0,28 -22,50 -50,50l-969 -4z"/>
  <path class="fil0" d="M281 24154c-28,0 -50,-22 -50,-50 0,-28 22,-50 50,-50l920 0c28,0 50,22 50,50 0,28 -22,50 -50,50l-121 0c36,40 79,88 91,101 10,9 16,22 16,36 0,28 -22,50 -50,50l-62 0 105 194c13,24 4,54 -20,68 -13,7 -28,8 -41,3l0 0 -92 -33 66 248c7,27 -9,54 -35,61 -16,4 -32,0 -44,-9l-141 -103 -42 172c-6,27 -33,43 -60,37 -18,-4 -31,-17 -36,-33l-61 -170 -133 140c-19,20 -51,21 -71,2 -12,-12 -17,-28 -15,-43l24 -264 -69 39c-24,14 -54,5 -68,-19 -8,-15 -9,-32 -2,-46l121 -310 -139 39c-27,7 -54,-8 -62,-35 -4,-14 -1,-28 6,-40l50 -85 -35 0z"/>
  <path class="fil0" d="M-1276 24168c-28,0 -50,-22 -50,-50 0,-28 22,-50 50,-50l920 0c28,0 50,22 50,50 0,28 -22,50 -50,50l-35 0 50 85c7,11 10,26 6,40 -7,27 -35,42 -62,35l-139 -39 121 310c7,14 7,31 -2,46 -14,24 -44,32 -68,19l-69 -39 24 264c2,15 -3,32 -15,43 -20,19 -52,18 -71,-2l-133 -140 -61 170c-5,16 -18,29 -36,33 -27,6 -54,-10 -60,-37l-42 -172 -141 103c-12,10 -28,14 -44,9 -27,-7 -42,-34 -35,-61l66 -248 -92 33 0 0c-13,5 -28,4 -41,-3 -24,-13 -33,-43 -20,-68l105 -194 -62 0c-28,0 -50,-22 -50,-50 0,-14 6,-27 16,-36 12,-13 54,-61 91,-101l-121 0z"/>
  <path class="fil0" d="M2242 21894c28,0 50,22 50,50 0,28 -22,50 -50,50l-2118 0c-28,0 -50,-22 -50,-50 0,-28 22,-50 50,-50l2118 0z"/>
 </g>
</svg>
