<?xml version="1.0" encoding="UTF-8"?>
<!DOCTYPE svg PUBLIC "-//W3C//DTD SVG 1.1//EN" "http://www.w3.org/Graphics/SVG/1.1/DTD/svg11.dtd">
<!-- Creator: CorelDRAW X6 -->
<svg xmlns="http://www.w3.org/2000/svg" xml:space="preserve" width="200mm" height="200mm" version="1.1" style="shape-rendering:geometricPrecision; text-rendering:geometricPrecision; image-rendering:optimizeQuality; fill-rule:evenodd; clip-rule:evenodd"
viewBox="0 0 20000 20000"
 xmlns:xlink="http://www.w3.org/1999/xlink">
 <defs>
  <style type="text/css">
   <![CDATA[
    .str0 {stroke:black;stroke-width:52.92;stroke-linecap:round;stroke-linejoin:round}
    .fil0 {fill:none}
   ]]>
  </style>
 </defs>
 <g id="Layer_x0020_1">
  <metadata id="CorelCorpID_0Corel-Layer"/>
  <path class="fil0 str0" d="M1563 20700l0 352c58,-7 119,-7 178,-3 -38,62 -33,171 -11,246 -5,-42 102,-122 137,-153 101,-90 224,-170 364,-174 -21,99 -31,170 -21,273 0,2 0,4 1,6 1,-3 2,-5 3,-8 28,-76 78,-168 122,-235 86,-128 332,-360 498,-336 -40,89 -94,189 -68,290 2,8 5,16 8,24 7,-12 14,-24 22,-36 121,-185 383,-415 605,-326 -83,64 -150,204 -151,309 113,27 221,75 312,136 179,122 333,309 407,514 35,96 62,193 27,293 -24,68 -49,146 -129,156 -142,17 -234,-113 -337,-187 -81,-58 -165,-101 -254,-145 -48,-23 -230,-114 -258,-20 -15,51 60,97 92,119 66,47 133,92 197,143 47,37 83,71 120,119 51,66 110,116 140,196 35,92 37,190 -2,281 -44,103 -149,204 -270,185 -97,-15 -174,-130 -238,-198 -88,-94 -152,-200 -275,-251 -34,-14 -227,-65 -229,10 -1,34 59,43 84,58 72,46 184,184 162,274 -35,148 -236,198 -364,181 -183,-24 -333,-144 -509,-191 -172,-46 -312,-128 -500,-79 -108,28 -199,125 -299,176 -212,108 -560,122 -738,-59 -42,-42 -82,-88 -118,-135 -97,-130 -143,-296 -140,-457 3,-253 111,-543 302,-715 34,-30 125,-62 146,-94 21,-31 7,-102 7,-138l0 -400 -1159 0 0 396c0,36 -14,107 7,138 21,32 112,64 146,94 190,171 299,462 302,715 2,162 -43,327 -140,457 -36,47 -76,93 -118,135 -177,182 -526,167 -738,59 -100,-51 -191,-148 -299,-176 -188,-49 -328,33 -500,79 -176,47 -326,167 -509,191 -128,17 -328,-33 -364,-181 -22,-90 90,-229 162,-274 25,-16 85,-24 84,-59 -2,-76 -195,-24 -229,-10 -123,51 -187,157 -275,251 -64,68 -141,183 -238,198 -121,19 -226,-82 -270,-185 -39,-91 -37,-189 -2,-281 31,-80 89,-130 140,-196 37,-47 74,-82 120,-119 64,-51 131,-96 197,-143 32,-23 107,-69 92,-119 -28,-94 -210,-3 -258,20 -89,44 -173,87 -254,145 -103,74 -194,205 -337,187 -80,-10 -105,-88 -129,-156 -35,-100 -8,-197 27,-293 74,-205 228,-392 407,-514 91,-62 199,-109 312,-136 -1,-105 -67,-245 -151,-309 221,-89 484,141 605,326 8,12 15,24 22,36 3,-8 6,-16 8,-24 26,-100 -28,-201 -68,-290 166,-24 412,207 498,335 45,67 94,159 122,235 1,3 2,5 3,8 0,-2 1,-4 1,-6 10,-103 1,-173 -21,-273 140,4 263,84 364,174 35,31 141,110 137,153 22,-75 27,-183 -11,-246 59,-4 120,-3 178,3 0,-7 0,-190 0,-348l-155 0c-276,0 -500,-224 -500,-500l0 -400c0,-276 224,-500 500,-500l3400 0c276,0 500,224 500,500l0 400c0,276 -224,500 -500,500l-137 0z"/>
 </g>
</svg>
