<?xml version="1.0" encoding="UTF-8"?>
<!DOCTYPE svg PUBLIC "-//W3C//DTD SVG 1.1//EN" "http://www.w3.org/Graphics/SVG/1.1/DTD/svg11.dtd">
<!-- Creator: CorelDRAW X6 -->
<svg xmlns="http://www.w3.org/2000/svg" xml:space="preserve" width="200mm" height="200mm" version="1.1" style="shape-rendering:geometricPrecision; text-rendering:geometricPrecision; image-rendering:optimizeQuality; fill-rule:evenodd; clip-rule:evenodd"
viewBox="0 0 20000 20000"
 xmlns:xlink="http://www.w3.org/1999/xlink">
 <defs>
  <style type="text/css">
   <![CDATA[
    .fil0 {fill:black;fill-rule:nonzero}
   ]]>
  </style>
 </defs>
 <g id="Layer_x0020_1">
  <metadata id="CorelCorpID_0Corel-Layer"/>
  <path class="fil0" d="M952 15792c52,81 92,170 120,264 27,93 41,190 41,290 0,90 -12,178 -34,262 -23,87 -56,169 -99,245 -6,11 -15,18 -26,22 -38,18 -79,31 -121,41 -19,4 -39,8 -59,10 9,-6 18,-13 26,-20 16,-16 29,-37 36,-59 7,-22 10,-45 7,-68 -3,-23 -11,-45 -26,-64l0 0c-18,-23 -41,-38 -67,-45 -23,-7 -47,-8 -70,-4 -24,4 -47,14 -66,28 -20,16 -36,37 -44,64 -9,26 -9,52 -3,76 6,23 19,45 35,62 11,12 25,23 40,31 -141,-14 -268,-78 -364,-173 -109,-109 -176,-259 -176,-425 0,-166 67,-317 176,-425 109,-109 259,-176 425,-176 39,0 77,4 114,11 38,7 74,18 109,32 11,4 20,12 25,22zm-1773 1076c-45,-78 -81,-162 -105,-250 -23,-87 -36,-178 -36,-271 0,-104 15,-204 44,-298 29,-98 73,-190 128,-273 7,-10 16,-17 27,-20l0 0c29,-9 59,-16 90,-21 30,-5 61,-7 92,-7 166,0 317,67 425,176 109,109 176,259 176,425 0,166 -67,317 -176,425 -86,86 -198,146 -323,168l3 -2 0 0 0 0 1 0 0 0c2,-2 5,-4 8,-6l0 0 0 0c26,-23 43,-56 47,-89 4,-34 -3,-70 -24,-98 -2,-3 -5,-6 -7,-9l0 0 0 0c-24,-28 -57,-43 -90,-45 -25,-2 -51,3 -74,13 -23,11 -44,27 -59,48 -17,25 -26,57 -20,92 4,23 13,43 25,61 14,19 32,35 52,45 -25,-1 -49,-4 -74,-9 -36,-7 -71,-16 -104,-29 -12,-5 -21,-13 -27,-24zm892 295c-77,0 -147,-32 -198,-82l0 0 0 0 0 0c-51,-51 -82,-121 -82,-198 0,-28 22,-50 50,-50 28,0 50,22 50,50 0,50 20,95 53,128l0 0c33,33 78,53 128,53l0 0c50,0 95,-20 128,-53 33,-33 53,-78 53,-128 0,-28 22,-50 50,-50 28,0 50,22 50,50 0,78 -31,148 -82,199 -51,51 -121,82 -198,82l0 0 0 0 0 0zm2433 -1880c30,-12 61,-16 91,-11 110,19 184,152 215,353 28,184 24,429 -22,691l0 0 0 0c-45,263 -122,496 -210,659 -96,178 -209,279 -319,261l-2 0c-48,-8 -90,-39 -123,-87 -53,15 -161,25 -176,9 -48,-51 -90,-106 -125,-165 -161,-265 -193,-594 -142,-895 51,-301 185,-577 356,-738 34,-32 71,-61 109,-84 7,-4 14,-6 21,-7l0 0c1,0 177,-19 328,13zm-4990 17c-30,-12 -61,-16 -91,-11 -110,19 -384,152 -415,353 -28,184 -24,429 22,691l0 0 0 0c45,263 122,496 210,659 96,178 409,279 519,261l2 0c34,-6 64,-22 91,-48l177 -14c14,-1 26,-8 34,-17 47,-50 88,-105 124,-163 161,-265 193,-594 142,-895 -51,-301 -185,-577 -356,-738 -34,-32 -71,-61 -109,-84 -7,-4 -14,-6 -21,-7l0 0c-1,0 -177,-19 -328,13zm2980 -1904c136,85 220,204 220,339 0,134 -84,254 -220,339 -129,81 -306,130 -501,130 -195,0 -372,-50 -501,-130 -136,-85 -220,-204 -220,-339 0,-134 84,-254 220,-339 129,-81 306,-130 501,-130 195,0 372,50 501,130zm777 1517c-26,-95 -18,-189 15,-266 35,-80 98,-141 180,-164l0 0c82,-22 167,-2 238,50 68,49 122,127 148,222l0 0c26,95 18,189 -15,266 -35,80 -98,141 -180,164 -82,22 -167,2 -238,-50 -68,-49 -122,-127 -148,-222l0 0zm-2511 -228c33,77 41,171 15,266l0 0c-26,95 -80,172 -148,222 -71,52 -156,72 -238,50 -82,-22 -145,-83 -180,-164 -33,-77 -41,-171 -15,-266l0 0c26,-95 80,-172 148,-222 71,-52 155,-72 237,-50l0 0c82,22 145,83 180,164zm3252 3576c19,10 36,22 51,36 21,20 36,43 42,70 6,26 2,45 -2,62l0 0 0 0 0 0 -1 2c2,-1 4,-2 8,-2l2 0c24,4 48,10 72,33 16,16 29,41 31,80 1,30 -6,70 -26,125 -5,13 -14,22 -25,28 -250,146 -566,239 -935,297 -368,57 -789,80 -1252,88 -459,8 -870,-16 -1232,-68 -377,-54 -702,-138 -974,-248 -14,-5 -24,-16 -28,-29l0 0c-21,-56 -28,-98 -28,-129 1,-41 14,-68 32,-86 22,-22 44,-27 66,-32 7,-1 11,0 12,-2 1,-2 -2,-3 -3,-10 -3,-17 -7,-36 -3,-63 3,-21 10,-46 27,-72 15,-24 39,-50 75,-75 12,-9 27,-11 40,-8 264,54 563,104 893,140 331,36 693,58 1080,56 398,-2 769,-29 1108,-70 339,-41 644,-97 912,-156 21,-5 41,4 52,21l0 0 7 11z"/>
 </g>
</svg>
