<?xml version="1.0" encoding="UTF-8"?>
<!DOCTYPE svg PUBLIC "-//W3C//DTD SVG 1.1//EN" "http://www.w3.org/Graphics/SVG/1.1/DTD/svg11.dtd">
<!-- Creator: CorelDRAW X6 -->
<svg xmlns="http://www.w3.org/2000/svg" xml:space="preserve" width="200mm" height="200mm" version="1.1" style="shape-rendering:geometricPrecision; text-rendering:geometricPrecision; image-rendering:optimizeQuality; fill-rule:evenodd; clip-rule:evenodd"
viewBox="0 0 20000 20000"
 xmlns:xlink="http://www.w3.org/1999/xlink">
 <defs>
  <style type="text/css">
   <![CDATA[
    .str0 {stroke:black;stroke-width:52.92;stroke-linecap:round;stroke-linejoin:round}
    .fil0 {fill:none}
   ]]>
  </style>
 </defs>
 <g id="Layer_x0020_1">
  <metadata id="CorelCorpID_0Corel-Layer"/>
  <path class="fil0 str0" d="M438 23350l0 -7c255,-39 334,-362 488,-527 -39,141 -61,285 -94,426 407,-60 525,-549 593,-886 85,97 86,257 144,364 -10,-21 95,-185 106,-218 40,-114 104,-218 148,-331 56,-142 83,-275 93,-428 13,-195 -3,-361 -112,-509l0 -338c22,-35 46,-69 71,-100 37,130 52,267 80,398 72,-112 125,-286 132,-421 63,43 125,124 147,199 50,-157 -3,-447 -3,-621 0,-167 4,-339 -36,-501 -45,-180 -110,-377 -234,-518 -78,-89 -252,-213 -376,-205 -21,2 -40,5 -56,9 0,-61 -20,-154 -37,-216 29,-32 52,-69 59,-111 17,-100 -94,-267 -173,-298 -24,-9 -45,-15 -66,-17 -59,-61 -107,-157 -145,-229 -50,-97 -106,-192 -154,-290 -102,-207 -186,-426 -301,-627 -105,-183 -173,-378 -233,-578 -65,-217 -100,-444 -6,-660 87,-198 384,-284 585,-187 123,60 220,424 314,145 112,-332 -216,-641 -506,-755 -371,-146 -725,-32 -1043,187 -455,313 -727,853 -933,1337 -135,317 -211,683 -240,1024 -13,148 -21,298 -34,445 -6,70 44,219 -5,277l2 5c-49,8 -96,32 -138,78 -63,69 -44,185 -1,268 -34,86 -23,167 16,239 -3,1 -6,3 -10,4 -6,-108 -176,-80 -286,-51 -382,98 -438,573 -450,901 -7,198 5,395 16,592 11,185 50,458 -16,629 49,-125 143,-223 203,-340 39,101 75,221 112,315 14,-38 30,-83 41,-116l0 179c-26,127 -32,261 -32,350 0,236 92,449 160,670 33,108 78,212 134,311 4,7 18,29 37,57 54,81 145,216 146,216 103,-105 21,-293 73,-424 171,312 486,694 809,883l-1179 0c-276,0 -500,224 -500,500l0 400c0,276 224,500 500,500l3400 0c276,0 500,-224 500,-500l0 -400c0,-276 -224,-500 -500,-500l-1213 0z"/>
 </g>
</svg>
