<?xml version="1.0" encoding="UTF-8"?>
<!DOCTYPE svg PUBLIC "-//W3C//DTD SVG 1.1//EN" "http://www.w3.org/Graphics/SVG/1.1/DTD/svg11.dtd">
<!-- Creator: CorelDRAW X6 -->
<svg xmlns="http://www.w3.org/2000/svg" xml:space="preserve" width="200mm" height="200mm" version="1.1" style="shape-rendering:geometricPrecision; text-rendering:geometricPrecision; image-rendering:optimizeQuality; fill-rule:evenodd; clip-rule:evenodd"
viewBox="0 0 20000 20000"
 xmlns:xlink="http://www.w3.org/1999/xlink">
 <defs>
  <style type="text/css">
   <![CDATA[
    .fil1 {fill:blue}
    .fil0 {fill:blue;fill-rule:nonzero}
   ]]>
  </style>
 </defs>
 <g id="Layer_x0020_1">
  <metadata id="CorelCorpID_0Corel-Layer"/>
  <path class="fil0" d="M-338 14680c0,123 -41,236 -109,328 -63,84 -148,149 -248,185l0 373c0,28 -22,50 -50,50l-296 0c-28,0 -50,-22 -50,-50l0 -379c-96,-39 -178,-104 -238,-187 -65,-90 -104,-201 -104,-320 0,-151 61,-288 160,-387 99,-99 236,-161 387,-161 151,0 288,61 387,160 99,99 160,236 160,387z"/>
  <path class="fil0" d="M1572 14660c0,123 -41,236 -109,328 -63,84 -148,149 -248,185l0 373c0,28 -22,50 -50,50l-296 0c-28,0 -50,-22 -50,-50l0 -379c-96,-39 -178,-104 -238,-187l0 0c-65,-90 -104,-201 -104,-320 0,-151 61,-288 160,-387 99,-99 236,-161 387,-161 151,0 288,61 387,160 99,99 160,236 160,387z"/>
  <path class="fil0" d="M-757 18075l-113 0c-74,0 -140,30 -189,79 -48,49 -79,115 -79,189l0 126c0,74 30,140 79,189 48,49 115,79 189,79l113 0 0 -661z"/>
  <polygon class="fil0" points="-219,18075 -657,18075 -657,18736 -219,18736 "/>
  <path class="fil0" d="M957 18075l0 661 89 0c74,0 140,-30 189,-79 49,-48 79,-115 79,-189l0 -126c0,-74 -30,-140 -79,-189 -49,-48 -115,-79 -189,-79l-89 0z"/>
  <polygon class="fil0" points="857,18736 857,18075 419,18075 419,18736 "/>
  <polygon class="fil0" points="319,18736 319,18075 -119,18075 -119,18736 "/>
  <path class="fil0" d="M-1972 16429c0,-28 22,-50 50,-50 28,0 50,22 50,50l0 1596c0,28 -22,50 -50,50 -28,0 -50,-22 -50,-50l0 -1596z"/>
  <path class="fil0" d="M1985 16429c0,-28 22,-50 50,-50 28,0 50,22 50,50l0 1596c0,28 -22,50 -50,50 -28,0 -50,-22 -50,-50l0 -1596z"/>
  <path class="fil1" d="M-881 16084c468,0 847,375 847,839 0,463 -379,839 -847,839 -468,0 -847,-375 -847,-839 0,-463 379,-839 847,-839zm38 734c89,0 162,70 162,157 0,86 -72,157 -162,157 -89,0 -162,-70 -162,-157 0,-86 72,-157 162,-157z"/>
  <path class="fil1" d="M845 16084c-468,0 -847,375 -847,839 0,463 379,839 847,839 468,0 847,-375 847,-839 0,-463 -379,-839 -847,-839zm-3 729c89,0 162,70 162,157 0,86 -72,157 -162,157 -89,0 -162,-70 -162,-157 0,-86 72,-157 162,-157z"/>
 </g>
</svg>
