<?xml version="1.0" encoding="UTF-8"?>
<!DOCTYPE svg PUBLIC "-//W3C//DTD SVG 1.1//EN" "http://www.w3.org/Graphics/SVG/1.1/DTD/svg11.dtd">
<!-- Creator: CorelDRAW X6 -->
<svg xmlns="http://www.w3.org/2000/svg" xml:space="preserve" width="200mm" height="200mm" version="1.1" style="shape-rendering:geometricPrecision; text-rendering:geometricPrecision; image-rendering:optimizeQuality; fill-rule:evenodd; clip-rule:evenodd"
viewBox="0 0 20000 20000"
 xmlns:xlink="http://www.w3.org/1999/xlink">
 <defs>
  <style type="text/css">
   <![CDATA[
    .str0 {stroke:black;stroke-width:52.92;stroke-linecap:round;stroke-linejoin:round}
    .fil0 {fill:none}
   ]]>
  </style>
 </defs>
 <g id="Layer_x0020_1">
  <metadata id="CorelCorpID_0Corel-Layer"/>
  <path class="fil0 str0" d="M1700 20700l-3400 0c-276,0 -500,-224 -500,-500l0 -400c0,-276 224,-500 500,-500l1213 0 0 -276 -1117 0c-175,0 -317,-143 -317,-317l0 -681 -238 0 0 -1596 238 0 0 -409c0,-175 143,-318 317,-318l105 0 -3 -1086c-3,-329 275,-607 618,-607 343,0 622,278 622,607l0 1086 674 0 1 -1105c-7,-330 271,-608 614,-608 343,0 622,278 626,608l-4 1105 71 0c175,0 318,143 318,318l0 409 232 0 0 1596 -232 0 0 681c0,175 -143,317 -318,317l-1230 0 0 276 1213 0c276,0 500,224 500,500l0 400c0,276 -224,500 -500,500z"/>
 </g>
</svg>
