<?xml version="1.0" encoding="UTF-8"?>
<!DOCTYPE svg PUBLIC "-//W3C//DTD SVG 1.1//EN" "http://www.w3.org/Graphics/SVG/1.1/DTD/svg11.dtd">
<!-- Creator: CorelDRAW X6 -->
<svg xmlns="http://www.w3.org/2000/svg" xml:space="preserve" width="200mm" height="200mm" version="1.1" style="shape-rendering:geometricPrecision; text-rendering:geometricPrecision; image-rendering:optimizeQuality; fill-rule:evenodd; clip-rule:evenodd"
viewBox="0 0 20000 20000"
 xmlns:xlink="http://www.w3.org/1999/xlink">
 <defs>
  <style type="text/css">
   <![CDATA[
    .fil1 {fill:blue}
    .fil0 {fill:blue;fill-rule:nonzero}
   ]]>
  </style>
 </defs>
 <g id="Layer_x0020_1">
  <metadata id="CorelCorpID_0Corel-Layer"/>
  <path class="fil0" d="M254 18213c0,-28 22,-50 50,-50 28,0 50,22 50,50 0,106 -43,202 -112,271 -69,69 -165,112 -271,112 -28,0 -50,-22 -50,-50 0,-28 22,-50 50,-50 78,0 149,-32 200,-83 51,-51 83,-122 83,-200z"/>
  <path class="fil0" d="M-29 18497c28,0 50,22 50,50 0,28 -22,50 -50,50 -106,0 -202,-43 -271,-112 -69,-69 -112,-165 -112,-271 0,-28 22,-50 50,-50 28,0 50,22 50,50 0,78 32,149 83,200 51,51 122,83 200,83z"/>
  <path class="fil0" d="M270 14975l1 0 11 -1 0 0 1 0 8 0c6,-1 12,0 18,1 27,7 43,34 36,61 -11,42 -51,73 -87,101 -13,10 -25,19 -32,26 -19,19 -37,40 -53,62l0 0c-15,20 -28,41 -39,63 -4,8 -8,16 -12,24 -4,8 -9,17 -13,26 18,-6 37,-12 56,-16 52,-11 106,-13 159,1 8,2 15,5 22,11 21,18 23,49 5,70 -10,11 -24,27 -38,43 -35,40 -72,81 -101,125 15,-3 31,-6 46,-9 49,-9 98,-16 151,-19 15,-1 30,4 41,16 19,20 17,52 -3,71 -24,22 -50,46 -71,72 -19,23 -34,48 -40,74 -7,29 13,50 35,74 9,9 17,18 27,30 22,26 38,55 49,86 12,32 18,66 20,100 1,32 -3,66 -11,98 -9,37 -23,73 -38,104 -20,41 -41,78 -69,110 -28,33 -61,62 -102,86 -22,13 -45,24 -69,34 -22,9 -46,17 -70,25 -57,18 -117,25 -178,23 -65,-2 -129,-14 -188,-33 -80,-27 -149,-71 -207,-126 -62,-60 -112,-133 -149,-213 -41,-89 -59,-178 -57,-267 2,-88 25,-176 64,-265 21,-48 45,-92 71,-135 25,-42 52,-84 81,-126 31,-47 69,-90 109,-129 39,-38 81,-74 122,-109 71,-59 152,-98 238,-124 84,-25 171,-37 257,-42z"/>
  <path class="fil1" d="M-1081 16584c468,0 847,375 847,839 0,463 -379,839 -847,839 -468,0 -847,-375 -847,-839 0,-463 379,-839 847,-839zm38 734c89,0 162,70 162,157 0,86 -72,157 -162,157 -89,0 -162,-70 -162,-157 0,-86 72,-157 162,-157z"/>
  <path class="fil1" d="M1045 16584c-468,0 -847,375 -847,839 0,463 379,839 847,839 468,0 847,-375 847,-839 0,-463 -379,-839 -847,-839zm-3 729c89,0 162,70 162,157 0,86 -72,157 -162,157 -89,0 -162,-70 -162,-157 0,-86 72,-157 162,-157z"/>
 </g>
</svg>
