<?xml version="1.0" encoding="UTF-8"?>
<!DOCTYPE svg PUBLIC "-//W3C//DTD SVG 1.1//EN" "http://www.w3.org/Graphics/SVG/1.1/DTD/svg11.dtd">
<!-- Creator: CorelDRAW X6 -->
<svg xmlns="http://www.w3.org/2000/svg" xml:space="preserve" width="200mm" height="200mm" version="1.1" style="shape-rendering:geometricPrecision; text-rendering:geometricPrecision; image-rendering:optimizeQuality; fill-rule:evenodd; clip-rule:evenodd"
viewBox="0 0 20000 20000"
 xmlns:xlink="http://www.w3.org/1999/xlink">
 <defs>
  <style type="text/css">
   <![CDATA[
    .str0 {stroke:black;stroke-width:52.92;stroke-linecap:round;stroke-linejoin:round}
    .fil0 {fill:none}
   ]]>
  </style>
 </defs>
 <g id="Layer_x0020_1">
  <metadata id="CorelCorpID_0Corel-Layer"/>
  <path class="fil0 str0" d="M1700 20700l-3400 0c-276,0 -500,-224 -500,-500l0 -400c0,-276 224,-500 500,-500l1213 0 0 -347 -1854 0c-132,0 -241,-108 -241,-241l0 -2521c0,-132 108,-241 241,-241l1722 0c-6,-96 16,-192 59,-289 41,-91 92,-171 147,-253 59,-88 141,-160 222,-228 129,-109 301,-144 465,-154 8,-1 15,-1 23,-1 -10,38 -78,75 -106,104 -39,40 -76,87 -101,137 -26,51 -62,112 -69,170 83,-51 194,-91 292,-64 -69,80 -159,167 -190,272 100,-24 188,-45 290,-51 -50,46 -110,103 -126,172 -16,70 34,100 73,147 10,13 19,26 27,41l1908 0c132,0 241,108 241,241l0 2521c0,132 -108,241 -241,241l-1807 0 0 347 1213 0c276,0 500,224 500,500l0 400c0,276 -224,500 -500,500z"/>
 </g>
</svg>
