<?xml version="1.0" encoding="UTF-8"?>
<!DOCTYPE svg PUBLIC "-//W3C//DTD SVG 1.1//EN" "http://www.w3.org/Graphics/SVG/1.1/DTD/svg11.dtd">
<!-- Creator: CorelDRAW X6 -->
<svg xmlns="http://www.w3.org/2000/svg" xml:space="preserve" width="200mm" height="200mm" version="1.1" style="shape-rendering:geometricPrecision; text-rendering:geometricPrecision; image-rendering:optimizeQuality; fill-rule:evenodd; clip-rule:evenodd"
viewBox="0 0 20000 20000"
 xmlns:xlink="http://www.w3.org/1999/xlink">
 <defs>
  <style type="text/css">
   <![CDATA[
    .fil1 {fill:none;fill-rule:nonzero}
    .fil0 {fill:blue;fill-rule:nonzero}
   ]]>
  </style>
 </defs>
 <g id="Layer_x0020_1">
  <metadata id="CorelCorpID_0Corel-Layer"/>
  <path class="fil0" d="M-2156 23081c-14,-24 -5,-54 19,-68 24,-14 54,-5 68,19 110,192 270,357 459,479 190,123 407,204 627,227 301,31 585,-92 862,-211 66,-29 132,-57 205,-86 47,-19 108,-43 170,-68 406,-164 791,-320 1249,-349 226,-15 443,13 656,64 211,51 416,124 622,201 209,78 412,174 614,269 529,249 1057,499 1656,416 174,-24 342,-83 510,-142 129,-45 258,-91 391,-121 167,-39 328,-49 488,-37 159,12 317,47 476,98 79,26 158,52 235,78 290,97 578,193 880,251l34 7 0 0 0 0c225,44 524,102 762,65 27,-4 53,14 57,42 4,27 -14,53 -42,57 -256,40 -564,-20 -796,-66l0 0 -34 -7c-307,-60 -599,-157 -893,-255 -78,-26 -156,-52 -234,-77 -152,-49 -302,-82 -453,-94 -151,-11 -302,-2 -459,35 -129,30 -255,74 -380,118 -173,61 -346,122 -530,147 -629,87 -1170,-168 -1712,-424 -201,-95 -403,-190 -606,-266 -203,-76 -405,-148 -610,-197 -203,-49 -411,-75 -627,-62 -442,29 -820,181 -1219,342 -51,21 -103,41 -170,68 -62,25 -132,55 -203,85 -289,125 -585,253 -912,219 -236,-24 -469,-110 -671,-242 -201,-131 -374,-307 -491,-514z"/>
  <path class="fil0" d="M-1068 23409c-20,-34 -36,-71 -47,-112 -6,-17 -2,-37 12,-51 8,-8 -9,-1 -11,-12 -1,-9 -3,-18 -4,-31 -7,-80 8,-173 199,-190 85,-8 142,25 198,57 48,27 95,54 159,41 30,-6 66,-22 101,-37 129,-56 261,-114 347,76 55,121 31,168 -28,194 -20,9 -42,13 -66,17 -19,3 -41,7 -59,14 -58,23 -108,65 -156,105 -36,30 -71,59 -110,82 -31,19 -64,32 -96,41 -88,24 -175,14 -252,-22 -76,-35 -141,-95 -186,-172z"/>
  <path class="fil0" d="M-1735 22934c-27,4 -53,-15 -56,-42 -1,-4 -1,-8 0,-11 0,-12 -1,-26 -1,-40l0 0c-2,-38 -5,-74 11,-105 29,-56 91,-71 241,6 62,32 62,32 68,30 16,-7 42,-17 94,-26 38,-6 85,-6 127,7 38,12 71,34 90,70 49,95 5,134 -45,176 -11,10 -23,20 -31,31l0 0 0 0c-14,20 -26,31 -36,41 -9,9 -17,16 -26,36l0 0c-2,4 0,16 1,29 4,36 8,73 -24,110 -48,57 -103,66 -158,49 -2,0 -3,-1 -5,-1 -46,-15 -89,-47 -127,-78 -53,-44 -101,-153 -135,-231 -11,-26 42,-54 11,-50z"/>
  <path class="fil0" d="M-1102 22168l1 -2c0,0 -1,-1 -1,-1 2,-22 4,-61 22,-97 32,-65 101,-113 254,-37 83,41 110,104 138,167 21,47 42,95 94,123 15,8 39,12 62,16 61,10 119,19 146,91l1 3c1,3 2,5 2,7 16,55 -11,122 -53,177 -39,52 -92,96 -134,111 -4,1 -6,2 -7,2 -71,20 -116,-3 -162,-27 -21,-11 -42,-22 -64,-24l-1 0c-34,-4 -69,9 -104,21 -43,15 -86,30 -138,26 -154,-11 -198,-90 -190,-193 6,-83 51,-178 89,-260 18,-38 35,-74 44,-101z"/>
  <path class="fil0" d="M-1753 21621c-14,-16 -16,-39 -7,-56 -2,-53 26,-79 68,-96l3 -1c16,-7 31,-10 48,-15 17,-4 35,-9 50,-16 7,-3 17,-10 29,-18 64,-44 149,-103 216,-1 23,35 19,102 2,166 -18,71 -53,145 -82,169 -113,91 -199,18 -269,-62 -18,-2 -34,-13 -41,-31 -5,-11 -9,-22 -12,-32 -2,-2 -4,-5 -6,-6z"/>
  <path class="fil0" d="M-1003 21815c-26,30 -59,50 -97,54 -34,4 -70,-6 -105,-33l0 0c-74,-59 -66,-181 -60,-269 1,-18 2,-34 2,-43 0,-22 15,-40 34,-46l0 0c43,-14 88,-10 129,7l3 1c29,13 56,32 79,55 23,24 42,54 52,86 14,42 15,88 -3,133 0,1 -1,2 -1,3 -4,9 -9,18 -14,27 -6,10 -12,19 -19,27z"/>
  <path class="fil0" d="M-1053 21029c3,22 5,44 -2,69 0,1 -1,2 -1,3 -7,24 -21,48 -46,73l0 0 0 0 -3 3 0 0 0 0c-44,41 -94,55 -141,50 -46,-4 -89,-27 -120,-59l0 0 0 0 -2 -2 0 0 0 0 0 -1c-21,-23 -19,-54 -17,-86 1,-13 4,-22 3,-24 0,0 -11,-6 -21,-12 -25,-14 -49,-28 -61,-58 -4,-10 -7,-20 -10,-31 -13,-54 -6,-109 22,-158 27,-47 72,-87 136,-112 11,-5 23,-9 36,-12 24,-23 50,-41 84,-50 38,-10 82,-6 137,18 110,49 118,104 90,167 -10,22 -24,42 -40,63 -21,29 -44,60 -49,91 -3,18 0,36 4,54l2 15z"/>
  <path class="fil0" d="M-774 21353c-48,-96 -84,-169 33,-281 -18,-39 -30,-90 17,-143 1,-2 3,-4 6,-6l0 0c32,-31 82,-41 130,-36 45,4 90,22 116,45l0 0 0 0c2,1 3,3 6,6 50,52 46,106 41,161 -2,24 -4,48 2,65 11,34 18,33 26,33 37,-3 79,-6 129,56 62,76 17,140 -28,202 -12,17 -24,34 -31,48 -36,77 -31,96 -14,158 5,17 10,36 11,41 28,111 3,185 -48,228 -30,25 -68,39 -108,42 -37,3 -77,-3 -114,-17 -89,-32 -167,-107 -170,-205 -2,-59 11,-105 24,-149 16,-55 31,-108 3,-180 -9,-23 -20,-46 -30,-67z"/>
  <path class="fil1" d="M-1636 22420l2 -1c13,-9 11,-26 9,-43l0 0c-3,-29 -7,-59 10,-95 21,-46 58,-73 95,-99 26,-19 52,-37 62,-59 33,-69 5,-102 -35,-121 -29,-14 -64,-23 -96,-31l-10 -3c-24,-6 -46,-19 -67,-32 -1,-1 -2,-1 -3,-2 -25,-15 -50,-29 -66,-15 -16,14 -5,33 6,53 4,8 9,16 13,24"/>
  <path class="fil0" d="M-1825 22134c7,-18 14,-36 20,-52 1,-5 2,-10 5,-14 5,-10 -6,-29 -16,-48 -31,-55 -61,-108 15,-176 70,-62 128,-29 184,4 1,0 2,1 3,2 15,9 30,18 41,21l10 3c35,9 76,20 113,38 88,42 150,112 83,254 -22,45 -58,72 -94,98 -26,19 -52,37 -63,60 -5,10 -3,26 -1,42l0 0 0 0c5,48 10,94 -52,137 -1,1 -2,1 -3,2 -18,12 -37,19 -56,23l-2 0c-43,7 -84,-5 -120,-26 -33,-20 -62,-49 -81,-79l0 0 0 0c-15,-23 -25,-48 -29,-70 -12,-72 18,-147 46,-216z"/>
  <path class="fil1" d="M-1716 21995c15,10 25,27 23,47 -1,12 -3,23 -6,35 -1,8 -4,17 -7,25 -7,22 -16,45 -26,68 -23,57 -48,118 -40,162 2,9 7,21 14,33l0 0c12,19 30,37 50,49 17,10 35,16 52,13l1 0"/>
 </g>
</svg>
