<?xml version="1.0" encoding="UTF-8"?>
<!DOCTYPE svg PUBLIC "-//W3C//DTD SVG 1.1//EN" "http://www.w3.org/Graphics/SVG/1.1/DTD/svg11.dtd">
<!-- Creator: CorelDRAW X6 -->
<svg xmlns="http://www.w3.org/2000/svg" xml:space="preserve" width="200mm" height="200mm" version="1.1" style="shape-rendering:geometricPrecision; text-rendering:geometricPrecision; image-rendering:optimizeQuality; fill-rule:evenodd; clip-rule:evenodd"
viewBox="0 0 20000 20000"
 xmlns:xlink="http://www.w3.org/1999/xlink">
 <defs>
  <style type="text/css">
   <![CDATA[
    .str0 {stroke:black;stroke-width:52.92;stroke-linecap:round;stroke-linejoin:round}
    .str1 {stroke:blue;stroke-width:52.92;stroke-linecap:round;stroke-linejoin:round}
    .fil0 {fill:none}
    .fil1 {fill:none;fill-rule:nonzero}
   ]]>
  </style>
 </defs>
 <g id="Layer_x0020_1">
  <metadata id="CorelCorpID_0Corel-Layer"/>
  <circle class="fil0 str0" transform="matrix(1.50148E-014 -0.566926 0.566926 1.50148E-014 -1499.97 20000)" r="529"/>
  <circle class="fil0 str0" transform="matrix(1.50148E-014 -0.566926 0.566926 1.50148E-014 0.03 20000)" r="529"/>
  <path class="fil1 str1" d="M-1742 22038c-8,81 -96,207 -79,304 12,71 122,179 213,120 67,-44 12,-104 38,-160 32,-68 125,-90 157,-158 78,-164 -74,-198 -173,-225 -57,-15 -119,-94 -182,-37 -83,74 51,133 13,209"/>
  <path class="fil1 str1" d="M-697 21098c-129,119 -45,183 0,304 55,144 -28,216 -24,346 6,195 421,278 341,-35 -28,-110 -44,-124 6,-232 30,-64 118,-132 65,-197 -74,-91 -121,27 -164,-105 -22,-67 26,-148 -31,-207 -35,-36 -143,-55 -184,-10 -64,72 65,161 -10,136"/>
  <path class="fil1 str1" d="M-1102 21037c5,33 5,63 -34,101 -66,64 -149,44 -196,-7 -13,-14 4,-80 -7,-100 -14,-27 -69,-39 -79,-65 -40,-100 16,-214 164,-250 41,-44 89,-70 174,-31 168,75 -8,147 -27,268 -5,32 2,59 6,84"/>
  <path class="fil1 str1" d="M-1041 21783c-34,40 -84,53 -133,15 -65,-52 -40,-200 -39,-272 108,-37 246,97 197,215 -7,16 -15,31 -26,43"/>
  <path class="fil1 str1" d="M-1716 21588c65,72 151,212 258,126 39,-32 101,-222 70,-269 -51,-77 -139,17 -183,37 -80,37 -180,10 -119,159"/>
  <path class="fil1 str1" d="M-1054 22183c-47,143 -278,469 13,490 87,6 155,-56 243,-47 78,8 120,79 208,54 66,-19 186,-155 159,-233 -26,-73 -123,-49 -185,-82 -136,-73 -98,-224 -231,-290 -227,-113 -198,104 -207,107"/>
  <path class="fil1 str1" d="M-1742 22884c17,-2 91,233 162,292 68,56 153,116 219,36 31,-37 -1,-90 15,-127 21,-48 40,-47 67,-86 37,-53 116,-70 72,-156 -27,-52 -108,-59 -165,-50 -132,20 -65,57 -192,-9 -228,-118 -175,8 -178,100"/>
  <path class="fil1 str1" d="M-1068 23281c62,225 299,361 509,237 89,-52 163,-147 273,-190 91,-36 200,7 126,-158 -89,-197 -258,-39 -392,-11 -156,33 -216,-110 -363,-97 -241,22 -120,184 -153,218"/>
  <path class="fil1 str1" d="M-2113 23056c228,400 670,684 1124,731 390,40 743,-163 1091,-301 466,-185 891,-381 1404,-414 442,-29 849,109 1257,262 753,282 1449,805 2294,688 311,-43 599,-193 906,-265 323,-75 627,-40 938,60 374,121 735,256 1121,331 232,45 553,112 813,72"/>
  <path class="fil0 str0" d="M1700 20700l-133 0c3,223 44,572 116,766 80,215 232,238 437,355 178,102 416,93 608,163 272,99 453,357 641,565 222,246 438,466 773,545 385,91 635,-96 955,-276 635,-357 1375,-43 1902,355 331,249 633,547 991,757 172,101 351,196 545,249 100,28 206,13 301,41 -27,18 -56,32 -86,45 -638,388 -1498,-191 -2192,-165 -715,27 -1369,438 -2079,345 -269,-35 -540,-116 -795,-209 -237,-87 -506,-180 -730,-293 -310,-157 -592,-325 -953,-319 -493,8 -947,200 -1375,424 -244,127 -474,250 -743,318 -698,178 -1463,-197 -1829,-817 -264,-447 -287,-947 -143,-1444 119,-414 498,-785 543,-1214 0,-26 0,-108 0,-191l-154 0c-276,0 -500,-224 -500,-500l0 -400c0,-276 224,-500 500,-500l3400 0c276,0 500,224 500,500l0 400c0,276 -224,500 -500,500z"/>
  <circle class="fil0 str0" transform="matrix(1.50148E-014 -0.566926 0.566926 1.50148E-014 1500.03 20000)" r="529"/>
  <circle class="fil0 str0" transform="matrix(7.50738E-015 -0.283463 0.283463 7.50738E-015 -749.97 20000)" r="529"/>
  <circle class="fil0 str0" transform="matrix(7.50738E-015 -0.283463 0.283463 7.50738E-015 750.03 20000)" r="529"/>
 </g>
</svg>
