<?xml version="1.0" encoding="UTF-8"?>
<!DOCTYPE svg PUBLIC "-//W3C//DTD SVG 1.1//EN" "http://www.w3.org/Graphics/SVG/1.1/DTD/svg11.dtd">
<!-- Creator: CorelDRAW X6 -->
<svg xmlns="http://www.w3.org/2000/svg" xml:space="preserve" width="200mm" height="200mm" version="1.1" style="shape-rendering:geometricPrecision; text-rendering:geometricPrecision; image-rendering:optimizeQuality; fill-rule:evenodd; clip-rule:evenodd"
viewBox="0 0 20000 20000"
 xmlns:xlink="http://www.w3.org/1999/xlink">
 <defs>
  <style type="text/css">
   <![CDATA[
    .fil1 {fill:none;fill-rule:nonzero}
    .fil2 {fill:blue}
    .fil0 {fill:blue;fill-rule:nonzero}
   ]]>
  </style>
 </defs>
 <g id="Layer_x0020_1">
  <metadata id="CorelCorpID_0Corel-Layer"/>
  <path class="fil0" d="M1550 18933c11,38 27,101 32,155 3,30 4,59 0,83 -6,38 -24,66 -58,75 -11,3 -24,4 -37,1l0 0c-52,-11 -124,-11 -175,8 -14,5 -26,12 -35,21 -7,7 -12,15 -14,24 -3,14 -1,32 8,55 12,32 33,64 54,96 10,15 19,29 26,41 13,21 25,44 36,69 11,23 20,46 27,69l0 0c1,4 2,9 2,13 1,28 -21,51 -48,52 -145,5 -292,-10 -438,-38 -144,-28 -286,-68 -422,-113 -33,-11 -151,-25 -234,-33 9,19 19,36 27,48l2 2c22,30 47,59 74,86 27,27 58,54 91,80l0 0c9,7 16,17 18,29 6,27 -12,53 -38,59 -82,17 -171,17 -260,4 -102,-14 -203,-44 -286,-79 -31,-13 -43,-18 -55,-23 -66,-28 -133,-57 -198,-79 -8,-3 -34,-14 -67,-27 4,5 8,11 11,17 7,10 11,22 9,36 -3,27 -28,47 -55,44 -85,-10 -166,-23 -248,-41 -82,-18 -163,-42 -247,-76 -15,-6 -37,-14 -60,-23 -74,-29 -161,-62 -245,-103 -110,-54 -224,-121 -294,-207 -73,-89 -100,-195 -35,-321 -16,-37 -28,-79 -32,-120 -6,-65 8,-130 53,-179 184,-201 415,-55 603,63 47,30 91,57 128,75 90,43 179,80 271,109 91,29 185,51 282,63 243,31 452,5 652,-57 201,-63 394,-166 601,-287 31,-18 58,-37 83,-55 104,-73 193,-135 337,-78 51,20 112,83 153,154 38,65 61,139 51,199 -7,42 -26,80 -52,113z"/>
  <path class="fil1" d="M-20 21303c1,-1 3,-2 5,-2 25,-12 55,-1 67,24 14,29 49,74 89,109 7,6 14,11 21,16 -2,-23 -4,-47 -7,-70l-2 -15 0 0c-2,-14 3,-28 13,-39 19,-20 50,-22 71,-3 20,18 41,38 62,59 98,94 201,192 330,225 23,6 47,10 71,12 -54,-49 -102,-111 -148,-170 -38,-49 -75,-97 -111,-130 -58,-53 -140,-97 -229,-129 -97,-34 -200,-53 -287,-53 -79,0 -155,18 -226,48 -80,34 -153,84 -220,144 -56,50 -97,109 -139,168 -23,32 -46,65 -72,97 96,-38 182,-99 271,-163"/>
  <path class="fil1" d="M-1864 22181c-7,-25 7,-52 32,-61"/>
  <path class="fil0" d="M-1641 22703c-8,-12 -16,-25 -24,-37 -7,-11 -13,-20 -15,-23 -29,-51 -55,-104 -78,-158 -23,-53 -43,-107 -60,-163 -14,-47 -30,-93 -45,-139l-1 -2c-58,-175 -116,-350 -116,-543 0,-109 8,-284 51,-433 30,-107 79,-203 155,-258 21,-15 50,-12 67,7 66,70 100,162 133,253l0 0c26,70 51,140 91,195 1,-48 6,-95 51,-130 20,-15 47,-14 65,3 88,79 152,178 216,277 61,95 122,190 203,261 5,-8 10,-17 15,-26 5,-9 10,-18 16,-28 -15,2 -30,-3 -44,-18 -6,-7 -14,-19 -21,-37 -4,-7 -6,-15 -6,-23 0,-28 22,-50 50,-50l9 0 2 0c17,-5 35,-16 51,-30 20,-17 38,-38 54,-56 29,-35 55,-71 80,-107 45,-64 89,-126 154,-185 74,-66 157,-123 247,-161 82,-35 170,-56 264,-56 98,0 213,21 320,59 101,36 195,87 263,150 41,38 81,89 122,142 58,74 119,153 186,196 8,-12 16,-24 25,-36 37,-54 75,-109 91,-163 8,-26 36,-41 62,-34 9,3 17,8 23,15 38,38 72,76 104,117 14,18 28,37 41,57 22,-37 49,-73 74,-107 16,-22 32,-43 46,-64 7,-11 14,-22 21,-34 24,-40 50,-85 88,-110 20,-13 46,-10 62,6l0 0c30,29 60,70 85,114 6,11 12,22 18,34 13,-20 26,-40 39,-60 39,-60 77,-120 123,-172 18,-21 50,-23 70,-5 1,1 2,2 3,3l0 0c83,88 131,182 156,285 24,100 27,206 19,321 -5,79 -15,152 -30,225 -16,73 -37,144 -66,218 -20,52 -45,102 -70,152 -29,58 -57,117 -78,176 -6,17 -24,49 -44,85 -27,48 -69,86 -65,96 12,25 1,55 -24,66 -24,11 -53,2 -65,-22l0 0c-27,-50 -42,-106 -57,-163 -7,-27 -15,-54 -23,-81 -32,140 -76,292 -145,425 -96,185 -238,333 -461,366 -27,4 -53,-15 -57,-42 -1,-7 -1,-14 1,-20 14,-59 25,-113 36,-168l0 0c-100,167 -209,335 -433,335 -27,0 -49,-21 -50,-47l0 0c-1,-25 -2,-54 -3,-83 -3,-119 -6,-251 -59,-349 -44,60 -75,132 -106,205 -42,99 -84,198 -162,279 -18,18 -47,20 -67,4l0 0c-89,-70 -162,-153 -235,-237 -65,-75 -131,-150 -208,-213 3,56 10,113 17,170 10,83 20,167 18,254 -1,28 -23,49 -51,49 -8,0 -15,-2 -22,-6l0 0c-164,-84 -327,-219 -473,-374 -129,-137 -245,-288 -337,-433 0,12 0,23 1,35 3,100 5,199 -69,275 -3,3 -6,5 -9,7 -22,15 -41,13 -58,-3 -1,-1 -3,-2 -4,-4 -3,-3 -5,-6 -7,-9 -1,-2 -3,-4 -4,-6 -6,-8 -11,-16 -15,-21 -30,-44 -88,-129 -126,-187z"/>
  <path class="fil2" d="M-881 19879c359,0 650,288 650,644 0,355 -291,644 -650,644 -359,0 -650,-288 -650,-644 0,-355 291,-644 650,-644zm29 563c69,0 124,54 124,120 0,66 -56,120 -124,120 -69,0 -124,-54 -124,-120 0,-66 56,-120 124,-120z"/>
  <path class="fil2" d="M845 19879c-359,0 -650,288 -650,644 0,355 291,644 650,644 359,0 650,-288 650,-644 0,-355 -291,-644 -650,-644zm-2 560c69,0 124,54 124,120 0,66 -56,120 -124,120 -69,0 -124,-54 -124,-120 0,-66 56,-120 124,-120z"/>
 </g>
</svg>
