<?xml version="1.0" encoding="UTF-8"?>
<!DOCTYPE svg PUBLIC "-//W3C//DTD SVG 1.1//EN" "http://www.w3.org/Graphics/SVG/1.1/DTD/svg11.dtd">
<!-- Creator: CorelDRAW X6 -->
<svg xmlns="http://www.w3.org/2000/svg" xml:space="preserve" width="200mm" height="200mm" version="1.1" style="shape-rendering:geometricPrecision; text-rendering:geometricPrecision; image-rendering:optimizeQuality; fill-rule:evenodd; clip-rule:evenodd"
viewBox="0 0 20000 20000"
 xmlns:xlink="http://www.w3.org/1999/xlink">
 <defs>
  <style type="text/css">
   <![CDATA[
    .fil0 {fill:blue;fill-rule:nonzero}
   ]]>
  </style>
 </defs>
 <g id="Layer_x0020_1">
  <metadata id="CorelCorpID_0Corel-Layer"/>
  <path class="fil0" d="M2856 19526c-12,-25 -1,-55 24,-66 25,-12 55,-1 66,24l2 4c0,1 1,2 1,3 37,83 47,170 31,244 -17,80 -62,146 -132,180l-2 1 0 0c-74,34 -164,10 -244,-47 -72,-51 -139,-129 -177,-210 -12,-23 -6,-51 16,-66 23,-15 54,-9 69,14l0 0 0 0c1,2 3,4 4,7 31,67 86,132 145,173 52,36 104,54 142,39 2,-1 3,-2 5,-2 39,-19 65,-59 76,-109 11,-55 4,-120 -24,-183l-1 -2 -2 -4z"/>
  <path class="fil0" d="M-875 19614c11,-24 39,-35 64,-25 26,10 38,39 28,65l0 0 -1 2 0 0c-38,82 -107,167 -183,225 -83,64 -176,96 -251,61l-1 -1c-71,-33 -117,-100 -134,-181 -16,-75 -7,-164 31,-248 7,-19 25,-33 47,-33 28,0 50,22 50,50l0 0 0 0c0,7 -1,14 -5,21 -30,65 -37,132 -25,189 11,50 37,91 77,110 2,1 3,1 5,2 37,15 92,-9 147,-51 63,-48 121,-120 153,-188l0 0z"/>
  <path class="fil0" d="M-1363 20604c10,26 -3,55 -29,64 -26,10 -55,-3 -64,-29l-271 -707c-10,-26 3,-55 29,-64 26,-10 55,3 64,29l271 707z"/>
  <path class="fil0" d="M-1634 19897c10,26 -3,55 -29,64 -26,10 -55,-3 -64,-29 -15,-39 -22,-76 -22,-111 0,-50 14,-95 40,-132 26,-37 63,-67 109,-84 33,-13 71,-20 112,-20 28,0 50,22 50,50 0,28 -22,50 -50,50 -29,0 -55,5 -76,13 -27,10 -49,27 -63,48 -14,21 -22,46 -22,76 0,23 5,49 15,76z"/>
  <path class="fil0" d="M-1599 20179c-28,0 -50,-22 -50,-50 0,-28 22,-50 50,-50l4771 0c28,0 50,22 50,50 0,28 -22,50 -50,50l-4771 0z"/>
  <path class="fil0" d="M-1226 20147c-10,-26 2,-55 28,-65 26,-10 55,2 65,28l900 2257c10,26 -2,55 -28,65 -26,10 -55,-2 -65,-28l-900 -2257z"/>
  <path class="fil0" d="M841 22396c0,28 -22,50 -50,50 -28,0 -50,-22 -50,-50l0 -2267c0,-28 22,-50 50,-50 28,0 50,22 50,50l0 2267z"/>
  <path class="fil0" d="M1909 22414c-10,26 -39,38 -64,29 -26,-10 -38,-39 -29,-64l873 -2267c10,-26 39,-38 64,-29 26,10 38,39 29,64l-873 2267z"/>
  <path class="fil0" d="M94 22372c7,27 -8,54 -35,62 -27,7 -54,-8 -62,-35l-635 -2257c-7,-27 8,-54 35,-62 27,-7 54,8 62,35l635 2257z"/>
  <path class="fil0" d="M1531 22412c-9,26 -37,40 -63,31 -26,-9 -40,-37 -31,-63l767 -2267c9,-26 37,-40 63,-31 26,9 40,37 31,63l-767 2267z"/>
  <path class="fil0" d="M1207 22403c-4,27 -29,46 -56,42 -27,-4 -46,-29 -42,-56l326 -2267c4,-27 29,-46 56,-42 27,4 46,29 42,56l-326 2267z"/>
  <path class="fil0" d="M484 22380c3,27 -16,52 -44,56 -27,3 -52,-16 -56,-44l-282 -2257c-3,-27 16,-52 44,-56 27,-3 52,16 56,44l282 2257z"/>
 </g>
</svg>
