<?xml version="1.0" encoding="UTF-8"?>
<!DOCTYPE svg PUBLIC "-//W3C//DTD SVG 1.1//EN" "http://www.w3.org/Graphics/SVG/1.1/DTD/svg11.dtd">
<!-- Creator: CorelDRAW X6 -->
<svg xmlns="http://www.w3.org/2000/svg" xml:space="preserve" width="200mm" height="200mm" version="1.1" style="shape-rendering:geometricPrecision; text-rendering:geometricPrecision; image-rendering:optimizeQuality; fill-rule:evenodd; clip-rule:evenodd"
viewBox="0 0 20000 20000"
 xmlns:xlink="http://www.w3.org/1999/xlink">
 <defs>
  <style type="text/css">
   <![CDATA[
    .fil0 {fill:blue;fill-rule:nonzero}
   ]]>
  </style>
 </defs>
 <g id="Layer_x0020_1">
  <metadata id="CorelCorpID_0Corel-Layer"/>
  <path class="fil0" d="M-770 13794c3,-30 -4,-56 -18,-77 -15,-21 -37,-36 -66,-43 -31,-8 -55,-6 -74,3 -19,8 -36,24 -50,45 -1,1 -2,2 -3,3 -10,16 -9,47 -2,78 8,33 23,63 39,76 1,1 1,1 2,1 10,7 22,12 34,15 23,6 47,5 68,-2l2 -1c20,-8 38,-21 50,-41 6,-9 11,-20 14,-32 1,-5 2,-9 3,-12 1,-4 1,-8 2,-12zm63 -134c28,40 42,90 36,145 -1,6 -2,13 -3,20 -1,7 -3,14 -4,20 -6,22 -15,42 -26,60 -25,38 -60,66 -99,81 -1,0 -2,1 -3,1 -40,15 -85,17 -128,5 -21,-6 -42,-15 -61,-27 -3,-2 -6,-4 -9,-7 -34,-26 -62,-78 -75,-130 -13,-55 -12,-114 14,-156 1,-2 3,-4 4,-6l1 -1c24,-34 54,-62 92,-79 38,-17 84,-21 138,-8 53,13 96,42 125,82z"/>
  <path class="fil0" d="M-1979 15235l1 -5c0,-1 1,-3 1,-4l0 -2c0,-1 0,-2 1,-3 10,-51 24,-108 40,-163 17,-60 36,-120 55,-172 26,-73 52,-145 82,-220 29,-73 61,-145 98,-217l14 -28c75,-145 164,-317 292,-424 48,-40 127,-61 194,-56 30,2 59,9 83,22 28,15 50,38 60,69 11,32 8,71 -13,116 -21,45 -59,70 -97,96 -24,16 -48,32 -62,51 -55,76 -104,170 -149,254l-6 11c-89,167 -136,341 -185,519 -13,48 -27,97 -40,145 -13,45 -26,87 -52,123 -29,41 -70,68 -135,72l-1 0c-15,1 -30,0 -44,-2 -38,-5 -71,-21 -95,-44 -25,-25 -40,-58 -42,-98 -1,-12 0,-24 2,-37l0 -2zm99 12c0,2 0,2 0,2l0 1c-1,7 -1,13 -1,19 1,14 5,25 13,32 9,8 22,14 38,16 8,1 16,1 25,1l0 0c29,-2 47,-13 59,-30 16,-23 27,-57 37,-93 14,-49 27,-96 40,-143 50,-184 100,-363 193,-539l6 -11c47,-88 98,-185 156,-266 24,-33 56,-54 87,-76 27,-18 54,-36 63,-56 9,-19 11,-33 9,-41 -2,-5 -6,-9 -13,-12 -11,-6 -26,-9 -43,-10 -44,-3 -95,9 -123,33 -113,94 -197,256 -267,393l-14 28c-36,69 -66,138 -94,208 -27,68 -53,141 -80,217 -18,50 -36,108 -53,166 -15,55 -29,109 -39,156l0 1 0 2c0,1 0,2 0,3z"/>
  <path class="fil0" d="M267 18402c0,-28 22,-50 50,-50 28,0 50,22 50,50 0,106 -43,202 -112,271 -69,69 -165,112 -271,112 -28,0 -50,-22 -50,-50 0,-28 22,-50 50,-50 78,0 149,-32 200,-83 51,-51 83,-122 83,-200z"/>
  <path class="fil0" d="M-16 18686c28,0 50,22 50,50 0,28 -22,50 -50,50 -106,0 -202,-43 -271,-112 -69,-69 -112,-165 -112,-271 0,-28 22,-50 50,-50 28,0 50,22 50,50 0,78 32,149 83,200 51,51 122,83 200,83z"/>
  <path class="fil0" d="M-910 16374c-83,-93 -187,-185 -299,-263 -100,-69 -206,-127 -312,-162 -165,-55 -251,-31 -290,37 -45,78 -44,214 -28,365 10,95 25,192 46,288 20,92 45,182 75,269 91,262 263,530 487,727 192,168 422,283 670,294 73,3 136,5 182,-9 38,-11 66,-34 83,-80 27,-74 1,-207 -17,-300 -2,-8 -3,-16 -7,-36 -36,-195 -109,-391 -205,-575 -106,-203 -241,-392 -386,-554zm-242 -345c118,82 228,180 316,279 150,167 289,363 400,574 101,193 177,398 215,603l7 35c20,105 49,254 13,353 -29,81 -80,122 -149,142 -60,18 -132,16 -214,13 -273,-12 -524,-137 -732,-319 -237,-208 -419,-492 -515,-769 -32,-92 -58,-186 -79,-280 -22,-99 -37,-199 -48,-299 -18,-169 -18,-325 41,-426 64,-111 187,-155 408,-82 115,38 230,100 337,175z"/>
  <path class="fil0" d="M-986 17051c1,16 4,32 8,47 5,17 11,34 19,50 10,21 21,40 34,58 14,19 30,37 46,54l0 0 0 0 8 8c1,1 2,2 3,3 43,43 106,105 148,70 10,-8 14,-21 16,-35 2,-19 -2,-41 -7,-62 -10,-41 -28,-83 -51,-121 -22,-34 -49,-65 -80,-87 -27,-20 -67,-42 -102,-48 -10,-2 -18,-2 -24,0 -3,1 -6,3 -8,6 -4,5 -6,12 -8,23 -1,6 -2,11 -2,16 0,6 0,12 0,19zm-88 74c-6,-22 -10,-45 -12,-67 -1,-10 -1,-19 0,-30 0,-10 1,-20 3,-29 5,-27 14,-49 26,-66 17,-23 38,-36 63,-43 22,-6 44,-6 67,-2 52,9 108,40 144,66 42,31 77,70 105,114 29,46 51,99 64,151 7,29 12,62 9,95 -4,38 -18,74 -51,102 -111,93 -214,-7 -282,-76 -1,-1 -2,-2 -3,-3l-8 -8 0 0c-20,-20 -40,-43 -57,-67 -17,-23 -32,-48 -44,-73 -9,-20 -18,-42 -25,-66z"/>
  <path class="fil0" d="M-872 17020c16,27 26,62 21,92 -2,11 -5,22 -11,31l0 0c-5,9 -12,17 -21,24l-1 1c-1,1 -2,2 -3,2 -30,20 -62,15 -90,0 -19,-10 -37,-27 -47,-40l0 0c-1,-1 -2,-3 -3,-5 -14,-21 -21,-58 -16,-89 2,-11 5,-23 11,-33 6,-12 15,-23 27,-31 16,-11 35,-16 58,-12 30,5 58,29 76,60z"/>
  <path class="fil0" d="M795 16307c88,-98 198,-196 316,-279 107,-75 222,-136 337,-175 221,-73 344,-29 408,82 58,101 59,256 41,426 -11,100 -26,200 -48,299 -21,94 -47,188 -79,280 -96,277 -278,561 -515,769 -208,182 -459,307 -732,319 -82,4 -154,5 -214,-13 -69,-20 -119,-61 -149,-142 -36,-100 -7,-248 13,-353 3,-17 6,-32 7,-36 38,-205 114,-410 215,-603 110,-211 250,-407 400,-574zm373 -197c-112,78 -215,171 -299,263 -145,161 -280,351 -386,554 -97,185 -170,380 -206,575 -3,19 -5,28 -7,36 -18,94 -44,227 -17,300 17,46 45,69 83,80 46,13 109,12 182,9 249,-11 478,-126 670,-294 224,-196 396,-465 487,-727 30,-87 55,-177 75,-269 21,-96 36,-193 47,-288 16,-151 18,-287 -28,-365 -39,-68 -125,-91 -290,-37 -105,35 -212,92 -312,162z"/>
  <path class="fil0" d="M1045 17058c-2,22 -6,45 -12,67 -7,24 -15,46 -25,66l0 0 0 0c-12,25 -27,50 -44,73 -17,24 -36,46 -57,67l0 0 -7 7c-1,1 -2,2 -3,3 -68,68 -171,169 -282,76 -1,-1 -2,-2 -3,-3 -31,-27 -44,-62 -48,-99 -3,-33 2,-66 9,-95 13,-52 35,-104 64,-151 28,-44 63,-84 105,-114 36,-26 92,-57 144,-66 23,-4 46,-4 67,2 25,7 46,20 63,43 12,17 22,39 26,66 2,9 3,19 3,29 0,10 0,20 0,30zm-108 40c4,-15 7,-32 8,-47 0,-7 1,-13 0,-19 0,-5 -1,-10 -2,-16 -2,-11 -5,-19 -8,-23 -2,-3 -5,-5 -8,-6 -6,-2 -15,-1 -24,0 -35,6 -75,29 -102,48 -31,23 -58,53 -80,88 -24,38 -41,79 -51,121 -5,20 -9,42 -7,62 1,13 5,25 14,33l2 2c42,35 105,-27 148,-70 1,-1 2,-2 3,-3l7 -7 0 0 0 0c17,-17 33,-35 46,-54 13,-18 24,-37 34,-58l0 0c7,-15 14,-32 19,-50z"/>
  <path class="fil0" d="M811 17112c-5,-30 5,-64 21,-92 18,-30 46,-55 76,-60 23,-4 42,1 58,12 12,8 21,19 27,31 5,10 9,21 11,33 5,31 -2,67 -16,89 -1,2 -2,3 -3,4l0 0c-11,14 -28,30 -47,40 -28,15 -61,20 -90,0l-2 -2c-10,-7 -17,-16 -23,-26 -1,-1 -2,-3 -2,-4 -4,-8 -7,-17 -8,-27z"/>
 </g>
</svg>
