<?xml version="1.0" encoding="UTF-8"?>
<!DOCTYPE svg PUBLIC "-//W3C//DTD SVG 1.1//EN" "http://www.w3.org/Graphics/SVG/1.1/DTD/svg11.dtd">
<!-- Creator: CorelDRAW X6 -->
<svg xmlns="http://www.w3.org/2000/svg" xml:space="preserve" width="200mm" height="200mm" version="1.1" style="shape-rendering:geometricPrecision; text-rendering:geometricPrecision; image-rendering:optimizeQuality; fill-rule:evenodd; clip-rule:evenodd"
viewBox="0 0 20000 20000"
 xmlns:xlink="http://www.w3.org/1999/xlink">
 <defs>
  <style type="text/css">
   <![CDATA[
    .fil0 {fill:blue;fill-rule:nonzero}
   ]]>
  </style>
 </defs>
 <g id="Layer_x0020_1">
  <metadata id="CorelCorpID_0Corel-Layer"/>
  <path class="fil0" d="M-612 18308c17,-28 38,-53 62,-75 64,-60 149,-98 238,-98 89,0 174,38 238,97 27,25 50,54 68,85 18,-33 41,-63 66,-90 56,-59 128,-102 210,-115 20,-3 39,-3 58,-1 70,8 137,50 190,107 21,23 40,48 55,75 24,-57 55,-110 97,-139 45,-32 100,-49 155,-50 53,-1 106,15 147,49 20,17 37,36 50,58 13,20 23,41 32,63 0,1 1,2 1,3 11,27 20,54 27,82 6,23 10,48 13,72l115 0c28,0 50,22 50,50 0,28 -22,50 -50,50l-2514 0c-28,0 -50,-22 -50,-50 0,-28 22,-50 50,-50l131 0c7,-74 42,-143 93,-197 55,-57 129,-97 208,-104 13,-1 25,-1 38,-1 27,1 55,6 81,15 25,9 48,21 68,38l0 0c37,31 59,76 73,125z"/>
  <path class="fil0" d="M-1266 17025c71,1 142,2 213,2 -1,5 -1,11 -1,17 5,46 29,87 63,117 34,30 78,49 124,48 46,0 90,-19 124,-49 34,-30 57,-72 63,-118 1,-6 0,-12 -1,-18l25 0c61,-1 122,-2 184,-4 60,-2 122,-4 184,-6 19,-1 40,-2 62,-2 19,-1 39,-2 61,-3 27,-2 50,18 53,45 7,71 -2,141 -22,209 -22,72 -58,141 -102,202 -82,112 -131,146 -240,220 -1,1 -2,1 -3,2l-6 4 0 0c-2,2 -5,3 -8,4 -31,14 -63,26 -96,37 -34,11 -67,19 -99,26l0 0 -1 0c-98,18 -197,15 -294,-4 -106,-21 -209,-60 -304,-111 -2,-1 -3,-2 -5,-3 -46,-29 -88,-64 -125,-102 -39,-40 -73,-85 -102,-132l0 0 0 0c-30,-49 -55,-102 -74,-155 -21,-57 -36,-116 -47,-176l0 0c-1,-3 -1,-7 -1,-10 1,-28 24,-49 51,-48 109,4 217,7 325,8z"/>
  <path class="fil0" d="M1620 16592c0,-28 22,-50 50,-50 28,0 50,22 50,50 0,87 -35,165 -92,222 -57,57 -136,92 -222,92 -28,0 -50,-22 -50,-50 0,-28 22,-50 50,-50 59,0 113,-24 151,-63 39,-39 63,-93 63,-151z"/>
  <path class="fil0" d="M1405 16807c28,0 50,22 50,50 0,28 -22,50 -50,50l-2856 0c-28,0 -50,-22 -50,-50 0,-28 22,-50 50,-50l2856 0z"/>
  <path class="fil0" d="M-1450 16807c28,0 50,22 50,50 0,28 -22,50 -50,50 -87,0 -165,-35 -222,-92 -57,-57 -92,-136 -92,-222 0,-28 22,-50 50,-50 28,0 50,22 50,50 0,59 24,113 63,151 39,39 93,63 151,63z"/>
  <path class="fil0" d="M-1463 16400c-28,0 -50,-22 -50,-50 0,-28 22,-50 50,-50l2872 0c28,0 50,22 50,50 0,28 -22,50 -50,50l-2872 0z"/>
  <path class="fil0" d="M-413 16062c-28,0 -50,-22 -50,-50 0,-28 22,-50 50,-50l977 0c28,0 50,22 50,50 0,28 -22,50 -50,50l-977 0z"/>
  <path class="fil0" d="M1251 17026l26 0c107,-2 216,-5 325,-8 28,-1 51,21 51,48 0,3 0,7 -1,10l0 0c-10,59 -26,118 -47,176 -19,54 -44,106 -74,155 -29,48 -63,92 -102,132 -37,39 -79,73 -125,102 -2,1 -3,2 -5,3 -95,51 -198,90 -304,111 -97,19 -197,22 -294,4l-1 0 0 0c-32,-6 -66,-15 -99,-26 -33,-10 -65,-23 -96,-37 -4,-2 -7,-4 -10,-6l-4 -3c-111,-76 -161,-109 -243,-222 -44,-61 -80,-129 -102,-202 -21,-67 -30,-138 -22,-209 3,-27 26,-46 53,-45 22,1 42,2 61,3 22,1 43,2 62,2 63,2 124,4 184,6 62,2 123,3 184,4 48,1 95,1 142,2 23,0 46,0 69,1 -1,5 -1,10 -1,16 5,46 29,87 63,118 34,30 78,49 124,49 46,0 90,-19 124,-48 34,-30 58,-72 63,-117 1,-6 0,-13 -1,-18z"/>
 </g>
</svg>
