<?xml version="1.0" encoding="UTF-8"?>
<!DOCTYPE svg PUBLIC "-//W3C//DTD SVG 1.1//EN" "http://www.w3.org/Graphics/SVG/1.1/DTD/svg11.dtd">
<!-- Creator: CorelDRAW X6 -->
<svg xmlns="http://www.w3.org/2000/svg" xml:space="preserve" width="200mm" height="200mm" version="1.1" style="shape-rendering:geometricPrecision; text-rendering:geometricPrecision; image-rendering:optimizeQuality; fill-rule:evenodd; clip-rule:evenodd"
viewBox="0 0 20000 20000"
 xmlns:xlink="http://www.w3.org/1999/xlink">
 <defs>
  <style type="text/css">
   <![CDATA[
    .str0 {stroke:black;stroke-width:52.92;stroke-linecap:round;stroke-linejoin:round}
    .fil0 {fill:none}
   ]]>
  </style>
 </defs>
 <g id="Layer_x0020_1">
  <metadata id="CorelCorpID_0Corel-Layer"/>
  <path class="fil0 str0" d="M-1450 21846l-165 0c-128,412 -371,785 -613,868 -503,172 -701,-279 -701,-279 0,0 -119,-118 -238,-105 -119,13 -622,148 -807,110 0,0 -595,112 -1019,-6 -417,-116 -1079,-464 -1326,-544 -258,-42 -448,-129 -566,-196 -372,-209 -616,-534 -635,-754 -3,-30 -9,-105 26,-185 43,-97 155,-125 159,-172 7,-73 -13,-120 60,-251 45,-82 159,-161 179,-225 145,-481 866,-1131 1138,-1376 391,-353 586,-440 966,-860 137,-151 150,-182 238,-251 248,-195 466,-204 1098,-423 80,-28 145,-51 185,-66 37,12 96,32 146,40 80,12 92,-11 146,0 66,14 108,61 146,106 205,243 308,368 344,569 18,98 5,134 0,146 -48,120 -209,118 -225,212 -11,63 60,84 53,172 -5,58 -41,116 -93,146 -12,7 -57,31 -159,13 -132,-23 -159,-81 -251,-106 -137,-37 -161,69 -331,66 -94,-1 -105,-34 -476,-185 -86,-35 -144,-9 -159,0 -143,89 -192,185 -503,516 -268,285 -307,610 -318,635 -94,223 -139,776 -351,944 147,-4 149,61 321,15 324,-86 168,-291 691,-320 299,-16 510,213 723,291 283,103 1225,-703 2099,388 23,28 42,59 59,93l158 0 0 -400c0,-276 224,-500 500,-500l400 0c276,0 500,224 500,500l0 1900c0,276 -224,500 -500,500l-400 0c-276,0 -500,-224 -500,-500l0 -525z"/>
  <path class="fil0 str0" d="M1450 21846l165 0c128,412 371,785 613,868 503,172 701,-279 701,-279 0,0 119,-118 238,-105 119,13 622,148 807,110 0,0 595,112 1019,-6 417,-116 1079,-464 1326,-544 258,-42 448,-129 566,-196 372,-209 616,-534 635,-754 3,-30 9,-105 -26,-185 -43,-97 -155,-125 -159,-172 -7,-73 13,-120 -60,-251 -45,-82 -159,-161 -179,-225 -145,-481 -866,-1131 -1138,-1376 -391,-353 -586,-440 -966,-860 -137,-151 -150,-182 -238,-251 -248,-195 -466,-204 -1098,-423 -80,-28 -153,-62 -185,-66 -32,-4 -96,32 -146,40 -80,12 -92,-11 -146,0 -66,14 -108,61 -146,106 -205,243 -308,368 -344,569 -18,98 -5,134 0,146 48,120 209,118 225,212 11,63 -60,84 -53,172 5,58 41,116 93,146 12,7 57,31 159,13 132,-23 159,-81 251,-106 137,-37 161,69 331,66 94,-1 105,-34 476,-185 86,-35 144,-9 159,0 143,89 192,185 503,516 268,285 307,610 318,635 94,223 139,776 351,944 -147,-4 -149,61 -321,15 -324,-86 -168,-291 -691,-320 -299,-16 -510,213 -723,291 -283,103 -1225,-703 -2099,388 -23,28 -42,59 -59,93l-158 0 0 -400c0,-276 -224,-500 -500,-500l-400 0c-276,0 -500,224 -500,500l0 1900c0,276 224,500 500,500l400 0c276,0 500,-224 500,-500l0 -525z"/>
 </g>
</svg>
