<?xml version="1.0" encoding="UTF-8"?>
<!DOCTYPE svg PUBLIC "-//W3C//DTD SVG 1.1//EN" "http://www.w3.org/Graphics/SVG/1.1/DTD/svg11.dtd">
<!-- Creator: CorelDRAW X6 -->
<svg xmlns="http://www.w3.org/2000/svg" xml:space="preserve" width="200mm" height="200mm" version="1.1" style="shape-rendering:geometricPrecision; text-rendering:geometricPrecision; image-rendering:optimizeQuality; fill-rule:evenodd; clip-rule:evenodd"
viewBox="0 0 20000 20000"
 xmlns:xlink="http://www.w3.org/1999/xlink">
 <defs>
  <style type="text/css">
   <![CDATA[
    .fil0 {fill:blue;fill-rule:nonzero}
   ]]>
  </style>
 </defs>
 <g id="Layer_x0020_1">
  <metadata id="CorelCorpID_0Corel-Layer"/>
  <path class="fil0" d="M3818 21502c27,-6 54,11 60,38 3,15 0,30 -9,42l11 -7c7,-6 13,-10 14,-8 7,11 14,23 22,37 57,99 125,248 0,321 -78,45 -142,-16 -201,-72 -22,-20 -42,-40 -57,-47l0 0c-22,-11 -33,-36 -26,-60 9,-28 47,-96 85,-149 30,-43 64,-80 91,-92 1,0 2,-1 3,-1 2,-1 4,-1 6,-2zm50 79c-1,1 -1,1 -2,2 -11,14 1,1 13,-9l-11 7zm-53 49c-5,7 -11,15 -17,24 -21,30 -42,63 -56,89 14,11 27,24 41,37 34,32 70,66 83,58 47,-27 0,-121 -37,-185 -5,-8 -9,-16 -14,-23z"/>
  <path class="fil0" d="M3422 22245c18,-9 40,-6 56,8l0 0c5,4 8,10 11,16 9,14 22,36 33,60 16,34 31,78 36,121 5,50 -3,100 -40,139 -14,15 -31,27 -52,37 -78,35 -136,-1 -178,-58 -34,-45 -56,-102 -68,-136 -9,-26 4,-55 30,-64 1,0 2,-1 3,-1 30,-9 51,-30 72,-51 26,-26 53,-53 97,-72zm10 126c-2,-5 -4,-9 -6,-13 -11,9 -21,19 -31,29 -20,20 -39,39 -65,55 10,23 22,48 37,68 16,22 36,37 57,27 9,-4 16,-9 21,-14 13,-14 16,-37 14,-61 -3,-31 -15,-64 -27,-90zm-179 -3l0 0"/>
  <path class="fil0" d="M2384 22573c20,-37 58,-85 87,-121 15,-19 26,-33 27,-34 9,-15 24,-24 40,-25l0 0c114,-8 164,60 169,140 2,36 -6,76 -21,110 -16,36 -41,67 -73,86 -68,42 -156,32 -235,-97 -12,-19 -9,-44 6,-60zm165 -58c-27,33 -67,65 -77,80 37,54 68,63 88,50 14,-9 26,-24 34,-42 9,-20 14,-42 12,-62 -2,-22 -14,-42 -42,-46 -5,6 -10,13 -16,21z"/>
  <path class="fil0" d="M-3897 21925l-1 -1 -2 -1c-123,-73 -55,-221 2,-320 8,-14 16,-27 22,-37 1,-2 8,3 15,9l11 7c-17,-21 -14,-53 7,-70 12,-10 28,-13 43,-10l0 0c29,7 67,47 101,95 38,54 77,121 85,149 7,24 -4,49 -26,60l0 0c-14,7 -35,27 -57,47 -59,56 -123,117 -200,73zm86 -271c-37,63 -84,157 -37,184 13,8 50,-27 83,-58 14,-13 27,-25 40,-37 -14,-25 -35,-59 -56,-89 -6,-8 -12,-17 -17,-24 -4,7 -9,15 -14,23zm-49 -78c12,10 24,22 11,7l0 0 -11 -7z"/>
  <path class="fil0" d="M-3448 22627c-21,-10 -38,-22 -51,-36 -37,-39 -46,-89 -41,-140 5,-44 20,-87 36,-121 19,-41 42,-74 44,-76 15,-15 37,-17 56,-9 45,19 72,46 98,72 21,21 43,43 72,52 26,8 41,36 33,62l-1 3 0 0c-13,34 -34,91 -68,136 -43,57 -101,93 -178,58zm21 -105c5,5 12,10 21,14 21,10 41,-5 57,-27 15,-20 27,-45 37,-68 -26,-16 -45,-35 -65,-54 -10,-10 -20,-20 -31,-29 -2,4 -4,8 -6,13 -12,26 -24,59 -27,90 -3,24 0,47 14,61z"/>
  <path class="fil0" d="M-2519 22393l1 0 1 0 0 0 1 0 1 0 1 0 0 0 1 0c6,1 12,3 17,6l0 0 2 1c5,3 9,7 12,11l0 0 0 0 1 1 0 0 0 1 0 1 0 1 0 0 1 1 0 0c1,1 12,15 26,33 42,52 105,131 100,162 -1,7 -3,14 -7,19l0 0c-79,129 -167,139 -235,97 -31,-19 -56,-50 -72,-86 -16,-34 -24,-73 -21,-110 5,-80 54,-148 168,-140l1 0 1 0zm-13 120l-16 -20c-28,5 -40,24 -42,47 -1,20 3,42 12,62 8,18 20,34 34,42 21,13 52,4 89,-50 -10,-15 -51,-47 -77,-80z"/>
  <path class="fil0" d="M2384 22576c20,-37 59,-86 88,-122 14,-18 26,-32 26,-33 9,-15 24,-24 41,-24 114,-7 163,60 168,140 2,36 -6,75 -21,110 -16,36 -41,67 -72,86 -68,42 -156,32 -235,-97 -12,-19 -9,-44 6,-60zm166 -59c-27,33 -68,66 -77,81 37,54 68,63 89,50 14,-9 26,-24 34,-42 9,-20 14,-42 12,-62 -2,-22 -14,-42 -42,-47l-16 19z"/>
  <path class="fil0" d="M3422 22249c18,-8 40,-6 56,9l0 0c4,4 8,9 11,15 9,14 22,36 33,60 16,34 31,78 36,121 5,50 -3,101 -40,140 -14,14 -31,27 -52,36 -78,35 -136,-1 -178,-58 -34,-45 -56,-102 -68,-136 -9,-26 4,-55 30,-64 2,-1 4,-1 5,-2 28,-10 49,-30 70,-51l0 0c26,-26 53,-53 98,-72zm9 127l-6 -13c-11,9 -21,19 -31,29l0 0 0 0c-19,19 -39,39 -65,54 10,23 22,48 37,68 16,22 36,37 57,27 9,-4 16,-9 21,-14 14,-14 16,-37 14,-61 -3,-31 -15,-64 -27,-90z"/>
  <path class="fil0" d="M3918 21927l-2 1 -1 1c-77,44 -141,-16 -200,-73 -22,-20 -42,-40 -57,-47 -23,-11 -34,-38 -25,-62 10,-30 47,-95 85,-147 34,-48 72,-88 101,-95 27,-6 54,11 60,38 4,16 -1,31 -10,43l11 -7c7,-6 13,-11 15,-9 7,11 14,23 22,37 57,98 125,247 2,320zm-135 -144c34,32 70,66 83,58 47,-27 0,-121 -37,-184 -5,-8 -9,-16 -14,-23 -5,7 -11,15 -17,24 -21,30 -42,64 -56,89 14,11 27,24 40,37zm85 -198l-2 2c-10,13 1,1 13,-9l-11 7z"/>
 </g>
</svg>
