<?xml version="1.0" encoding="UTF-8"?>
<!DOCTYPE svg PUBLIC "-//W3C//DTD SVG 1.1//EN" "http://www.w3.org/Graphics/SVG/1.1/DTD/svg11.dtd">
<!-- Creator: CorelDRAW X6 -->
<svg xmlns="http://www.w3.org/2000/svg" xml:space="preserve" width="200mm" height="200mm" version="1.1" style="shape-rendering:geometricPrecision; text-rendering:geometricPrecision; image-rendering:optimizeQuality; fill-rule:evenodd; clip-rule:evenodd"
viewBox="0 0 20000 20000"
 xmlns:xlink="http://www.w3.org/1999/xlink">
 <defs>
  <style type="text/css">
   <![CDATA[
    .fil0 {fill:blue;fill-rule:nonzero}
   ]]>
  </style>
 </defs>
 <g id="Layer_x0020_1">
  <metadata id="CorelCorpID_0Corel-Layer"/>
  <path class="fil0" d="M4660 18664c-37,68 -74,152 -113,239 -62,142 -129,292 -213,412 -21,30 -19,28 -52,75 -69,99 -139,200 -215,298 -45,134 -103,251 -173,360 -46,71 -97,139 -153,207 154,-44 318,-152 473,-282 204,-171 391,-378 517,-526 55,-64 105,-139 155,-214 79,-118 159,-237 261,-326l65 75c-92,80 -168,193 -244,306 -52,78 -104,155 -162,223 -129,152 -320,363 -529,538 -207,173 -434,311 -642,325 -13,14 -28,31 -44,48 -113,126 -258,287 -419,397 274,-37 535,-101 815,-171l43 -11c119,-36 224,-134 323,-227 37,-35 73,-69 109,-99 98,-82 193,-167 285,-255 93,-88 183,-178 271,-270 57,-60 115,-128 174,-197 96,-114 194,-229 299,-318l64 76c-98,82 -193,195 -287,306 -59,70 -118,139 -178,202 -90,93 -181,185 -274,273 -94,89 -191,176 -290,259 -34,29 -69,61 -105,95 -101,95 -207,195 -338,242 -51,154 -141,287 -257,399 31,-8 61,-17 90,-27 62,-21 124,-43 186,-67 61,-23 122,-48 183,-74 122,-53 241,-111 357,-176 115,-65 227,-136 333,-215 208,-156 405,-326 601,-495 61,-53 123,-106 182,-157l65 76c-62,53 -122,105 -182,157 -198,172 -397,344 -606,500 -109,82 -224,156 -344,222 -119,67 -241,127 -366,180 -61,27 -124,52 -187,76 -62,24 -125,46 -189,68 -46,16 -96,29 -145,42 -68,18 -136,36 -196,61 -26,16 -52,32 -79,47 -243,135 -528,216 -788,245 82,23 168,42 257,58 238,43 488,62 688,70 19,-4 37,-8 54,-12 18,-4 38,-10 59,-16 53,-15 103,-34 154,-53 21,-8 43,-16 72,-27 159,-57 316,-123 470,-198 146,-71 287,-150 423,-238 28,-18 45,-29 62,-40 96,-63 191,-125 296,-173l41 91c-101,46 -191,105 -283,166 -24,16 -49,32 -62,41 -140,91 -285,172 -433,244 -155,76 -316,143 -480,202 -19,7 -44,16 -70,26 -53,20 -107,40 -162,56 -19,5 -40,11 -63,17 -16,4 -32,7 -47,11 -71,80 -157,146 -250,201 -87,51 -180,92 -273,125 163,38 354,42 546,29l0 0c259,-17 518,-65 712,-105l20 98c-197,40 -461,89 -725,107l0 0c-261,17 -524,4 -725,-78 -101,24 -208,38 -314,36 -69,-2 -137,-10 -203,-28 12,12 24,24 35,36 42,41 86,80 132,114 46,35 95,66 146,92l-11 93 -2 0c161,67 359,137 515,127l6 100c-221,14 -499,-107 -679,-186 -14,-6 -28,-12 -44,-19 -144,3 -317,-13 -472,-52 -215,-53 -399,-151 -435,-301l0 0c-2,-7 -3,-15 -4,-25l99 -12c0,4 1,8 3,14l0 0c26,107 179,182 362,227 165,41 350,55 493,47 -12,-8 -24,-17 -36,-26 -50,-38 -98,-79 -142,-123 -22,-22 -43,-44 -64,-66 -19,-21 -40,-43 -61,-67 -10,-12 -17,-20 -25,-29l0 0c-27,-31 -57,-66 -77,-83l64 -76c15,12 34,27 54,40 19,13 39,25 56,34 89,46 189,65 291,68 126,3 255,-21 372,-55 113,-33 229,-80 335,-142 58,-34 112,-73 161,-117 -182,-10 -394,-30 -596,-66 -186,-33 -366,-81 -510,-148l22 -95c298,5 679,-73 988,-245 18,-10 35,-20 52,-31l-2 -4c10,-5 20,-10 31,-15 179,-115 326,-264 405,-450 -378,93 -724,175 -1123,192 -6,0 -13,1 -19,1l-3 0 0 0 -2 0 -2 -100c8,0 17,-1 25,-1 247,-19 500,-300 674,-494 16,-18 31,-35 49,-54 94,-103 174,-202 242,-308 39,-61 74,-125 105,-193 -159,106 -337,197 -522,263 -222,80 -455,124 -677,115l4 -100c208,8 428,-34 639,-109 231,-83 450,-205 631,-347 71,-92 141,-192 209,-291l53 -75c78,-111 142,-257 203,-395 39,-88 76,-173 117,-247l88 48zm-10420 1249c59,51 121,104 182,157 196,170 392,340 601,495 106,79 218,151 333,215 115,65 235,123 357,176 61,26 122,51 183,74 62,24 124,46 186,67 29,10 59,19 90,27 -116,-112 -206,-244 -257,-399 -131,-47 -237,-147 -338,-242 -35,-33 -70,-66 -105,-95 -99,-83 -196,-170 -290,-259 -94,-89 -185,-180 -274,-273 -60,-63 -119,-132 -178,-202 -94,-111 -189,-224 -287,-306l64 -76c105,89 203,204 299,318 58,69 116,138 174,197 88,92 179,182 271,270 92,87 187,172 285,255 36,30 72,64 109,99 99,93 204,191 323,227l43 11c281,69 541,134 815,171 -161,-111 -306,-272 -419,-397 -16,-18 -31,-35 -44,-48 -208,-14 -435,-152 -642,-325 -210,-175 -400,-387 -529,-538 -57,-67 -109,-145 -162,-223 -76,-113 -152,-226 -244,-306l65 -75c102,88 182,207 261,326 50,75 100,150 155,214 126,149 313,356 517,526 155,130 319,238 473,282 -56,-67 -107,-135 -153,-207 -70,-109 -128,-226 -173,-360 -76,-98 -146,-199 -215,-298 -33,-47 -31,-45 -52,-75 -84,-120 -151,-270 -213,-412 -38,-87 -76,-171 -113,-239l88 -48c40,74 78,159 117,247 61,138 125,284 203,395l53 75c69,99 138,199 209,291 181,141 400,264 631,347 211,76 431,118 639,109l4 100c-222,9 -454,-35 -677,-115 -185,-66 -364,-158 -522,-263 31,68 66,132 105,193 68,106 149,205 242,308 17,19 33,36 49,54 174,193 427,475 674,494 8,0 17,1 25,1l-2 100 -2 0 0 0 -3 0c-6,0 -13,0 -19,-1 -399,-17 -744,-99 -1123,-192 79,186 226,335 405,450 10,5 21,9 31,15l-2 4c17,10 35,21 52,31 309,172 690,251 988,245l22 95c-144,67 -324,114 -510,148 -203,36 -414,56 -596,66 49,44 103,82 161,117 106,62 222,109 335,142 117,35 246,58 372,55 102,-2 202,-22 291,-68 18,-9 37,-21 56,-34 21,-14 39,-28 54,-40l64 76c-20,17 -50,52 -77,83l0 0c-8,9 -15,17 -25,29 -21,24 -41,47 -61,67 -21,22 -42,44 -64,66 -44,44 -92,85 -142,123 -12,9 -24,17 -36,26 143,8 329,-7 493,-47 183,-45 336,-120 362,-227l0 0c1,-6 2,-11 3,-14l99 12c-1,10 -3,18 -4,25l0 0c-36,151 -219,248 -435,301 -155,38 -328,55 -472,52 -16,7 -30,13 -44,19 -180,79 -458,200 -679,186l6 -100c156,10 354,-60 515,-127l-2 0 -11 -93c51,-26 100,-57 146,-92 46,-35 90,-73 132,-114 12,-12 24,-24 35,-36 -66,18 -134,27 -203,28 -106,2 -213,-12 -314,-36 -202,82 -464,95 -725,78l0 0c-264,-18 -528,-66 -725,-107l20 -98c194,40 453,88 712,105l0 0c192,13 384,9 546,-29 -93,-33 -186,-74 -273,-125 -93,-55 -179,-122 -250,-201 -15,-3 -31,-7 -47,-11 -23,-6 -44,-11 -63,-17 -55,-16 -108,-36 -162,-56 -26,-10 -51,-19 -70,-26 -164,-59 -325,-126 -480,-202 -148,-72 -293,-153 -433,-244 -14,-9 -38,-25 -62,-41 -92,-60 -182,-120 -283,-166l41 -91c106,48 200,110 296,173 17,11 34,22 62,40 135,87 277,167 423,238 154,75 311,141 470,198 29,10 50,18 72,27 51,19 101,38 154,53 21,6 41,11 59,16 17,4 35,8 54,12 200,-8 450,-27 688,-70 89,-16 175,-35 257,-58 -259,-30 -544,-110 -788,-245 -27,-15 -53,-31 -79,-47 -60,-26 -129,-44 -196,-61 -50,-13 -99,-26 -145,-42 -64,-22 -127,-45 -189,-68 -63,-24 -125,-49 -187,-76 -125,-54 -247,-114 -366,-180 -119,-67 -234,-141 -344,-222 -209,-156 -408,-328 -606,-500 -60,-52 -119,-103 -182,-157l65 -76z"/>
 </g>
</svg>
