<?xml version="1.0" encoding="UTF-8"?>
<!DOCTYPE svg PUBLIC "-//W3C//DTD SVG 1.1//EN" "http://www.w3.org/Graphics/SVG/1.1/DTD/svg11.dtd">
<!-- Creator: CorelDRAW X6 -->
<svg xmlns="http://www.w3.org/2000/svg" xml:space="preserve" width="200mm" height="200mm" version="1.1" style="shape-rendering:geometricPrecision; text-rendering:geometricPrecision; image-rendering:optimizeQuality; fill-rule:evenodd; clip-rule:evenodd"
viewBox="0 0 20000 20000"
 xmlns:xlink="http://www.w3.org/1999/xlink">
 <defs>
  <style type="text/css">
   <![CDATA[
    .fil0 {fill:blue;fill-rule:nonzero}
   ]]>
  </style>
 </defs>
 <g id="Layer_x0020_1">
  <metadata id="CorelCorpID_0Corel-Layer"/>
  <path class="fil0" d="M-1329 16956c-28,0 -50,-22 -50,-50 0,-28 22,-50 50,-50l922 0c28,0 50,22 50,50 0,28 -22,50 -50,50l-922 0z"/>
  <path class="fil0" d="M-407 17415c28,0 50,22 50,50 0,28 -22,50 -50,50l-922 0c-28,0 -50,-22 -50,-50 0,-28 22,-50 50,-50l922 0z"/>
  <path class="fil0" d="M-1329 17233c-28,0 -50,-22 -50,-50 0,-28 22,-50 50,-50l922 0c28,0 50,22 50,50 0,28 -22,50 -50,50l-922 0z"/>
  <path class="fil0" d="M-338 18327c28,0 50,22 50,50 0,28 -22,50 -50,50l-1060 0c-28,0 -50,-22 -50,-50 0,-28 22,-50 50,-50l1060 0z"/>
  <path class="fil0" d="M-1398 18284c-28,0 -50,-22 -50,-50 0,-28 22,-50 50,-50l1060 0c28,0 50,22 50,50 0,28 -22,50 -50,50l-1060 0z"/>
  <path class="fil0" d="M-338 19009c28,0 50,22 50,50 0,28 -22,50 -50,50l-1060 0c-28,0 -50,-22 -50,-50 0,-28 22,-50 50,-50l1060 0z"/>
  <path class="fil0" d="M-1398 18966c-28,0 -50,-22 -50,-50 0,-28 22,-50 50,-50l1060 0c28,0 50,22 50,50 0,28 -22,50 -50,50l-1060 0z"/>
  <path class="fil0" d="M-1194 17034l0 -1 -1 1 1 1 0 -1zm0 -1c0,-1 0,0 -1,1l0 0 0 0c0,1 1,2 1,1m-1 -1l0 0 0 0m40 -83c37,18 61,47 61,83 0,36 -23,65 -61,83 -26,13 -62,21 -100,21 -38,0 -73,-8 -100,-21 -37,-18 -61,-47 -61,-83 0,-36 23,-65 61,-83 26,-13 62,-21 100,-21 38,0 73,8 100,21zm-65 83c-10,-2 -22,-3 -35,-3 -13,0 -25,1 -35,3 10,2 22,3 35,3 13,0 24,-1 35,-3zm-94 0l0 0 -1 1c0,1 0,0 1,-1zm0 0l-1 -1 0 1 0 1m1 -1l0 0 0 0m0 0c0,-1 0,-2 -1,-1m1 1l0 0"/>
  <path class="fil0" d="M-1163 17305c0,-3 0,-2 -1,0 1,2 1,3 1,0zm30 -84c43,17 70,47 70,84 0,37 -27,66 -70,84 -30,12 -69,19 -112,19 -43,0 -82,-7 -112,-19 -43,-17 -70,-47 -70,-84 0,-37 27,-66 70,-84 30,-12 69,-19 112,-19 43,0 82,7 112,19zm-72 84c-12,-2 -26,-3 -40,-3 -15,0 -28,1 -40,3 12,2 26,3 40,3 15,0 28,-1 40,-3zm-122 0c-1,-2 -1,-3 -1,0 0,3 0,2 1,0z"/>
  <path class="fil0" d="M-1114 17603c-6,0 -12,3 -17,7l0 0c-4,4 -7,10 -7,17l0 438c0,6 3,12 7,17l0 0c4,4 10,7 17,7 6,0 12,-3 17,-7l0 0c4,-4 7,-10 7,-17l0 -438c0,-6 -3,-12 -7,-17l0 0c-4,-4 -10,-7 -17,-7zm-87 -64c22,-22 53,-36 87,-36 34,0 65,14 87,36l0 0c22,22 36,53 36,87l0 438c0,34 -14,65 -36,87l0 0c-22,22 -53,36 -87,36 -34,0 -65,-14 -87,-36l0 0c-22,-22 -36,-53 -36,-87l0 -438c0,-34 14,-65 36,-87l0 0z"/>
  <path class="fil0" d="M-1114 18473c-7,0 -12,3 -17,7l0 0 0 0c-4,4 -7,10 -7,17l0 289c0,6 3,12 7,17l1 2c4,3 9,5 15,5 7,0 12,-3 17,-7l0 0 0 0c4,-4 7,-10 7,-17l0 -289c0,-6 -3,-12 -7,-17l-1 -2c-4,-3 -9,-5 -15,-5zm-87 -64c22,-22 53,-36 87,-36 32,0 62,13 84,33 1,1 2,2 3,3 22,22 36,53 36,87l0 289c0,34 -14,65 -36,87l0 0c-22,22 -53,36 -87,36 -32,0 -62,-13 -84,-33 -1,-1 -2,-2 -3,-3 -22,-22 -36,-53 -36,-87l0 -289c0,-34 14,-65 36,-87l0 0z"/>
  <path class="fil0" d="M-1130 19174c-2,0 -4,1 -5,2 -1,1 -2,3 -2,5l0 98c0,2 1,4 2,5l0 0c1,1 3,2 5,2 2,0 4,-1 5,-2 1,-1 2,-3 2,-5l0 -98c0,-2 -1,-4 -2,-5l0 0c-1,-1 -3,-2 -5,-2zm-76 -69c19,-19 46,-31 76,-31 29,0 56,12 76,31l0 0 0 0c19,19 31,46 31,75l0 98c0,29 -12,56 -31,76 -19,19 -46,31 -76,31 -29,0 -56,-12 -76,-31l0 0 0 0c-19,-19 -31,-46 -31,-75l0 -98c0,-30 12,-56 31,-76z"/>
  <path class="fil0" d="M-220 15775c0,-28 23,-50 50,-50 28,0 50,23 50,50 -1,71 -10,134 -35,185 -24,48 -61,86 -116,108 -28,128 -36,232 -43,314 -6,81 -11,141 -32,189 -1,2 -2,3 -2,5 -28,50 -65,93 -107,129 -93,79 -215,124 -340,135 -125,11 -253,-14 -359,-74 -50,-28 -95,-65 -133,-109 -10,-12 -20,-25 -29,-38 -9,-13 -17,-27 -25,-41 -13,-24 -4,-55 20,-68 24,-13 55,-4 68,20 6,11 12,22 19,32 7,10 15,20 22,30 30,35 66,64 106,87 88,50 196,70 302,61 105,-9 207,-46 284,-112 33,-28 62,-61 84,-99 13,-32 17,-85 23,-155 4,-59 10,-128 22,-210l-95 84c-21,18 -52,16 -70,-4 -13,-15 -16,-34 -9,-51l0 0c23,-58 50,-108 89,-145 40,-39 89,-64 154,-68 38,-12 63,-34 78,-65 18,-37 25,-85 25,-141zm-1044 231c48,35 124,114 149,197l0 0c5,16 1,35 -11,48 -19,20 -50,22 -71,3 -102,-94 -152,-151 -170,-179 -42,-67 -20,-97 41,-95 16,0 38,10 61,27z"/>
  <path class="fil0" d="M-1554 15073c11,-25 40,-37 65,-26 25,11 37,40 26,65 -18,41 -22,74 -19,108 4,36 19,76 38,126 1,1 1,3 1,4 24,69 5,177 -10,260 -2,12 -4,24 -7,40 -4,27 -30,46 -57,41 -27,-4 -46,-30 -41,-57 1,-9 4,-25 7,-42 13,-71 30,-164 15,-208 0,-1 -1,-2 -1,-3 -22,-57 -38,-103 -44,-150 -6,-50 1,-100 26,-159z"/>
  <path class="fil0" d="M-215 15114c-12,-25 -1,-55 24,-67 25,-12 55,-1 67,24 19,40 27,79 23,129 -3,44 -16,96 -38,165 0,1 -1,2 -1,3 -17,45 -6,117 2,178 3,23 6,46 8,64 2,28 -18,52 -46,54 -28,2 -52,-18 -54,-46 -2,-19 -4,-38 -7,-58 -10,-73 -22,-158 3,-226 20,-61 31,-105 33,-141 2,-31 -2,-55 -14,-79z"/>
  <path class="fil0" d="M-1115 16202c8,26 -7,54 -34,62 -26,8 -54,-7 -62,-34 -10,-33 -35,-67 -67,-97 -36,-33 -79,-59 -119,-72 -26,-8 -41,-36 -33,-63 8,-26 36,-41 63,-33 53,17 110,51 157,94 44,41 80,91 95,141z"/>
  <path class="fil0" d="M-473 16230c-10,26 -39,38 -65,28 -26,-10 -38,-39 -28,-65 23,-58 50,-108 89,-145 41,-40 93,-65 161,-68 28,-1 51,21 52,48 1,28 -21,51 -48,52 -41,2 -71,16 -95,39 -27,26 -48,65 -66,111z"/>
  <path class="fil0" d="M-1343 16069c-11,-25 1,-55 26,-66 25,-11 55,1 66,26 27,62 48,126 64,192 15,60 27,122 36,184 4,4 9,9 14,13 58,50 160,83 268,87 108,4 220,-20 299,-82 10,-8 19,-16 28,-25 13,-112 49,-219 84,-327l12 -37c9,-26 37,-40 63,-32 26,9 40,37 32,63l-12 37c-36,107 -71,214 -81,320 -1,10 -5,21 -12,29 -16,18 -33,34 -52,49 -99,78 -235,109 -364,104 -129,-5 -254,-46 -329,-111 -12,-10 -23,-21 -32,-33 -7,-7 -11,-16 -13,-27 -9,-64 -21,-127 -36,-189 -15,-61 -34,-120 -59,-176z"/>
  <path class="fil0" d="M-569 16205c4,-27 29,-46 56,-43 27,4 46,29 43,56 -7,50 -64,82 -145,99l0 0c-56,11 -127,18 -200,19 -72,1 -146,-3 -207,-11 -102,-14 -179,-46 -190,-98 -5,-27 12,-53 39,-59 27,-5 53,12 59,39 1,3 44,11 106,19 58,8 126,12 193,11 66,-1 131,-6 181,-17l0 0 0 0c39,-8 66,-14 66,-15z"/>
  <path class="fil0" d="M-1091 16473c0,28 -22,50 -50,50 -28,0 -50,-22 -50,-50l0 -227c0,-28 22,-50 50,-50 28,0 50,22 50,50l0 227z"/>
  <path class="fil0" d="M-1020 16516c0,28 -23,50 -50,49 -28,0 -50,-23 -49,-50l2 -249c0,-28 23,-50 50,-49 28,0 50,23 49,50l-2 249z"/>
  <path class="fil0" d="M-945 16533c0,28 -23,50 -50,50 -28,0 -50,-23 -50,-50l1 -254c0,-28 23,-50 50,-50 28,0 50,23 50,50l-1 254z"/>
  <path class="fil0" d="M-871 16546c0,28 -23,50 -50,50 -28,0 -50,-23 -50,-50l1 -262c0,-28 23,-50 50,-50 28,0 50,23 50,50l-1 261z"/>
  <path class="fil0" d="M-795 16555c0,28 -22,50 -50,50 -28,0 -50,-22 -50,-50l-1 -268c0,-28 22,-50 50,-50 28,0 50,22 50,50l1 268z"/>
  <path class="fil0" d="M-718 16545c0,28 -22,50 -50,50 -28,0 -50,-22 -50,-50l-1 -259c0,-28 22,-50 50,-50 28,0 50,22 50,50l1 259z"/>
  <path class="fil0" d="M-648 16533c0,28 -22,50 -49,50 -28,0 -50,-22 -50,-49l-2 -255c0,-28 22,-50 49,-50 28,0 50,22 50,49l2 255z"/>
  <path class="fil0" d="M-568 16503c0,28 -22,50 -49,51 -28,0 -50,-22 -51,-49l-4 -236c0,-28 22,-50 49,-51 28,0 50,22 51,49l4 236z"/>
  <path class="fil0" d="M-497 16463c0,28 -22,50 -49,50 -28,0 -50,-22 -50,-49l-2 -218c0,-28 22,-50 49,-50 28,0 50,22 50,49l2 218z"/>
  <path class="fil0" d="M-572 16310c25,-11 55,1 66,26 11,25 -1,55 -26,66 -107,46 -208,71 -311,72 -103,1 -207,-22 -317,-72 -25,-11 -36,-41 -25,-66 11,-25 41,-36 66,-25 97,44 187,65 275,64 89,-1 177,-23 272,-64z"/>
  <path class="fil0" d="M-775 15894l0 151c11,17 20,27 26,32 4,-8 6,-20 6,-33l0 0c0,-4 0,-8 -1,-13 0,-1 0,-2 0,-4 -6,-61 -17,-103 -31,-133zm-100 166l0 -291 0 0c0,-10 3,-20 10,-29 16,-22 47,-27 70,-11l3 2c70,51 130,94 148,287l0 2c1,8 1,16 1,24l0 0c0,31 -7,59 -19,81 -16,30 -41,49 -72,53l0 0 0 0c-4,0 -7,1 -9,1l0 0c-22,1 -41,-1 -64,-20l0 0 0 0c-16,-12 -34,-33 -57,-68 -7,-9 -11,-19 -11,-31zm128 19l1 1 0 0c0,0 0,0 2,-1l2 0c2,0 -1,0 -4,0zm4 0l0 0 1 0 0 0 -1 0 0 0"/>
  <path class="fil0" d="M-819 15768l0 291c0,12 -4,23 -11,31 -24,36 -41,56 -57,68 -24,18 -42,21 -64,20l0 0c-2,0 -5,0 -9,-1l0 0 0 0c-31,-3 -56,-23 -72,-53l0 0c-12,-22 -18,-51 -18,-82 0,-8 0,-16 1,-24l0 -2c18,-193 78,-237 148,-287l3 -2c22,-16 54,-11 70,11 6,9 10,19 10,29l0 0zm-100 276l0 -151c-14,30 -25,71 -31,133 0,1 0,2 0,4 -1,5 -1,10 -1,14 0,13 2,25 6,33 6,-6 14,-16 26,-32zm-32 34l0 0"/>
  <path class="fil0" d="M-263 15516c8,30 10,63 7,96 -3,36 -11,73 -22,107 -15,46 -40,84 -75,111 -35,27 -79,43 -134,47 -2,0 -5,0 -7,0 -62,1 -113,-17 -156,-50 -42,-32 -74,-77 -99,-132l-1 -2 0 0c-8,-20 -15,-48 -17,-79 -1,-25 0,-53 7,-82l1 -3c6,-21 20,-44 37,-65 17,-20 38,-39 59,-52 1,-1 3,-2 4,-2 10,-5 21,-10 34,-13 45,-12 117,-13 183,0 71,13 138,42 167,90 5,9 9,18 12,28l0 0zm-92 89c2,-23 1,-44 -4,-62l0 0 0 0c0,-1 -1,-2 -1,-2 -12,-20 -53,-34 -99,-43 -52,-10 -107,-10 -140,-1 -4,1 -8,2 -10,3l0 0c-12,8 -25,19 -35,32 -9,10 -15,20 -17,26 -4,19 -5,37 -4,53 1,19 5,35 10,46l0 0c18,40 41,72 68,93 25,19 56,30 93,29l1 0c35,-3 61,-12 81,-27 19,-14 32,-35 41,-62 9,-27 15,-57 18,-85zm-403 -73l0 -1"/>
  <path class="fil0" d="M-1325 15548c-5,18 -6,40 -4,62 2,28 9,58 18,85l1 2c8,26 22,46 40,60 20,15 46,24 81,27l1 0c38,0 68,-10 93,-29 27,-21 50,-53 68,-93l0 0c5,-11 9,-27 10,-46 1,-16 0,-34 -4,-53 -2,-6 -8,-16 -17,-26 -10,-12 -23,-24 -35,-32l0 0c-2,-1 -5,-2 -10,-3 -33,-9 -88,-8 -140,1 -46,9 -87,23 -99,43 -1,1 -1,2 -1,2l0 0 0 0zm-104 70c-3,-34 -1,-67 7,-96l0 0c3,-10 7,-19 12,-28 29,-48 96,-77 167,-90 66,-12 138,-12 183,0 13,3 24,8 34,13 1,1 3,1 4,2 21,13 42,32 59,52 18,21 32,44 37,65l1 3c7,29 8,57 7,82 -2,31 -9,59 -17,79l0 0 -1 2c-25,55 -57,101 -99,132 -43,33 -94,51 -156,50 -2,0 -5,0 -7,0 -54,-4 -99,-20 -134,-47 -35,-27 -59,-63 -74,-108l-1 -2c-11,-35 -19,-72 -22,-108zm502 -82l0 1"/>
  <path class="fil0" d="M-525 19381c28,0 50,22 50,50 0,28 -22,50 -50,50l-663 0c-28,0 -50,-22 -50,-50 0,-28 22,-50 50,-50l663 0z"/>
 </g>
</svg>
