<?xml version="1.0" encoding="UTF-8"?>
<!DOCTYPE svg PUBLIC "-//W3C//DTD SVG 1.1//EN" "http://www.w3.org/Graphics/SVG/1.1/DTD/svg11.dtd">
<!-- Creator: CorelDRAW X6 -->
<svg xmlns="http://www.w3.org/2000/svg" xml:space="preserve" width="200mm" height="200mm" version="1.1" style="shape-rendering:geometricPrecision; text-rendering:geometricPrecision; image-rendering:optimizeQuality; fill-rule:evenodd; clip-rule:evenodd"
viewBox="0 0 20000 20000"
 xmlns:xlink="http://www.w3.org/1999/xlink">
 <defs>
  <style type="text/css">
   <![CDATA[
    .str0 {stroke:black;stroke-width:52.92;stroke-linecap:round;stroke-linejoin:round}
    .fil0 {fill:none}
   ]]>
  </style>
 </defs>
 <g id="Layer_x0020_1">
  <metadata id="CorelCorpID_0Corel-Layer"/>
  <path class="fil0 str0" d="M271 17266l0 -525 -690 0 -10 164 22 0c78,0 141,63 141,141 0,69 -50,127 -116,139 66,12 116,70 116,139 0,78 -63,141 -141,141l-22 0 0 769 91 0c39,0 72,32 72,72 0,39 -32,72 -72,72l-91 0 0 539 91 0c39,0 72,32 72,72 0,39 -32,72 -72,72l-91 0 0 372 -95 0 0 5173 39 0c30,0 59,20 64,44l151 718c10,46 -17,84 -60,84l-1049 0c-43,0 -70,-39 -60,-84l151 -718c5,-25 34,-44 64,-44l38 0 0 -5173 -87 0 0 -372 -124 0c-39,0 -72,-32 -72,-72 0,-39 32,-72 72,-72l124 0 0 -539 -124 0c-39,0 -72,-32 -72,-72 0,-39 32,-72 72,-72l124 0 0 -769 -55 0c-78,0 -141,-63 -141,-141 0,-69 50,-127 116,-139 -66,-12 -116,-70 -116,-139 0,-78 63,-141 141,-141l55 0 0 -312c-8,-12 -16,-25 -23,-38 -40,-102 -6,-268 -85,-540 -108,-42 -141,-171 -127,-372 -319,-437 -201,-1083 652,-1093 854,-1 1002,685 677,1064 6,54 10,105 10,152l441 0 0 -400c0,-276 224,-500 500,-500l400 0c276,0 500,224 500,500l0 1900c0,276 -224,500 -500,500l-400 0c-276,0 -500,-224 -500,-500z"/>
 </g>
</svg>
