<?xml version="1.0" encoding="UTF-8"?>
<!DOCTYPE svg PUBLIC "-//W3C//DTD SVG 1.1//EN" "http://www.w3.org/Graphics/SVG/1.1/DTD/svg11.dtd">
<!-- Creator: CorelDRAW X6 -->
<svg xmlns="http://www.w3.org/2000/svg" xml:space="preserve" width="200mm" height="200mm" version="1.1" style="shape-rendering:geometricPrecision; text-rendering:geometricPrecision; image-rendering:optimizeQuality; fill-rule:evenodd; clip-rule:evenodd"
viewBox="0 0 20000 20000"
 xmlns:xlink="http://www.w3.org/1999/xlink">
 <defs>
  <style type="text/css">
   <![CDATA[
    .str0 {stroke:black;stroke-width:52.92;stroke-linecap:round;stroke-linejoin:round}
    .fil0 {fill:none}
   ]]>
  </style>
 </defs>
 <g id="Layer_x0020_1">
  <metadata id="CorelCorpID_0Corel-Layer"/>
  <path class="fil0 str0" d="M-1450 20838l0 -525 -408 0c-133,4 -258,22 -384,106 -225,149 -395,386 -547,604 -119,170 -221,369 -367,519 -24,24 -90,69 -99,102 -8,29 16,70 12,104 -5,42 -29,84 -49,120 -47,83 -139,150 -233,173 -119,29 -238,-24 -309,-124 -112,-159 -46,-390 102,-503 73,-55 165,-79 254,-50 72,23 77,38 141,-18 62,-54 124,-150 171,-225 -64,-286 -271,-498 -565,-561 -49,-11 -266,-12 -325,7 -57,33 -118,70 -178,108 -110,69 -230,128 -333,206 38,74 11,157 -31,224 -61,98 -170,147 -283,153 -214,12 -372,-201 -369,-399 3,-164 89,-292 251,-338 112,-31 225,-14 290,82 117,-71 275,-133 396,-199 0,-129 -11,-174 -23,-259 -19,-138 -83,-274 -195,-360 -29,1 -72,-23 -101,-23 -83,0 -166,-2 -248,0 9,121 -103,205 -206,238 -186,59 -369,3 -487,-156 -61,-83 -67,-209 -52,-308 17,-115 86,-193 177,-259 156,-114 354,-76 489,55 60,58 75,111 85,180 78,5 160,6 241,6 228,-130 385,-401 434,-692 -33,-44 -61,-74 -91,-101 -40,-36 -111,-65 -136,-109 -195,95 -388,-23 -446,-222 -79,-271 150,-458 408,-445 119,6 233,87 288,190 28,52 43,112 37,172 -2,16 -51,167 -71,154 176,116 347,254 505,395 186,167 370,325 568,476 0,0 17,0 17,0l1669 0 0 -400c0,-276 224,-500 500,-500l400 0c276,0 500,224 500,500l0 1900c0,276 -224,500 -500,500l-400 0c-276,0 -500,-224 -500,-500z"/>
  <path class="fil0 str0" d="M50 20838l0 -1900c0,-276 224,-500 500,-500l400 0c276,0 500,224 500,500l0 400 1669 0c0,0 17,0 17,0 198,-151 382,-309 568,-476 157,-141 329,-279 505,-395 -19,13 -69,-139 -71,-154 -7,-60 8,-119 37,-172 56,-103 169,-184 288,-190 258,-13 487,174 408,445 -58,199 -251,318 -446,222 -24,43 -96,73 -136,109 -30,27 -57,56 -91,101 49,291 206,561 434,692 81,0 163,-1 241,-6 11,-69 26,-122 85,-180 136,-131 334,-169 489,-55 90,66 160,144 177,259 15,99 9,224 -52,308 -117,159 -301,214 -487,156 -103,-32 -215,-117 -206,-238 -82,-2 -166,0 -248,0 -29,0 -72,24 -101,23 -112,86 -177,222 -195,360 -12,84 -23,130 -23,259 121,66 280,128 396,199 65,-96 178,-113 290,-82 162,46 249,174 251,338 3,198 -154,411 -369,399 -113,-6 -222,-55 -283,-153 -42,-66 -68,-149 -31,-224 -103,-78 -223,-138 -333,-206 -60,-38 -120,-75 -178,-108 -59,-19 -276,-17 -325,-7 -294,63 -501,275 -565,561 47,75 109,171 171,225 65,56 69,41 141,18 89,-29 181,-5 254,50 148,112 214,344 102,503 -71,100 -190,153 -309,124 -94,-23 -185,-90 -233,-173 -21,-36 -44,-79 -49,-120 -4,-34 20,-75 12,-104 -9,-33 -75,-78 -99,-102 -146,-149 -248,-348 -367,-519 -152,-218 -323,-455 -547,-604 -126,-84 -251,-102 -384,-106l-408 0 0 525c0,276 -224,500 -500,500l-400 0c-276,0 -500,-224 -500,-500z"/>
 </g>
</svg>
