<?xml version="1.0" encoding="UTF-8"?>
<!DOCTYPE svg PUBLIC "-//W3C//DTD SVG 1.1//EN" "http://www.w3.org/Graphics/SVG/1.1/DTD/svg11.dtd">
<!-- Creator: CorelDRAW X6 -->
<svg xmlns="http://www.w3.org/2000/svg" xml:space="preserve" width="200mm" height="200mm" version="1.1" style="shape-rendering:geometricPrecision; text-rendering:geometricPrecision; image-rendering:optimizeQuality; fill-rule:evenodd; clip-rule:evenodd"
viewBox="0 0 20000 20000"
 xmlns:xlink="http://www.w3.org/1999/xlink">
 <defs>
  <style type="text/css">
   <![CDATA[
    .str0 {stroke:black;stroke-width:52.92;stroke-linecap:round;stroke-linejoin:round}
    .fil0 {fill:none}
   ]]>
  </style>
 </defs>
 <g id="Layer_x0020_1">
  <metadata id="CorelCorpID_0Corel-Layer"/>
  <path class="fil0 str0" d="M1700 20700l-133 0 0 190 2561 0c165,0 419,-65 564,-143l741 -403c145,-79 328,-25 418,140 90,165 36,348 -109,427l-867 472c-145,79 -264,146 -264,148 0,3 -135,5 -300,5l-992 0 0 171 -582 0 0 119c70,-37 150,-57 234,-57 280,0 508,227 508,508 0,280 -227,508 -508,508 -280,0 -508,-227 -508,-508 0,-61 11,-119 30,-173l-242 0 0 -397 -370 0 0 -171 -4172 0 0 171 -370 0 0 397 -135 0c20,54 30,112 30,173 0,280 -227,508 -508,508 -280,0 -508,-227 -508,-508 0,-280 227,-508 508,-508 44,0 87,6 127,16l0 -78 -582 0 0 -171 -1045 0c-165,0 -300,-6 -300,-14 0,-8 -2,-10 -5,-4 -3,5 -124,-55 -269,-134l-870 -473c-145,-79 -199,-262 -109,-427 90,-165 273,-219 418,-140l741 403c145,79 399,143 564,143l3059 0 0 -190 -154 0c-276,0 -500,-224 -500,-500l0 -400c0,-276 224,-500 500,-500l3400 0c276,0 500,224 500,500l0 400c0,276 -224,500 -500,500z"/>
 </g>
</svg>
