<?xml version="1.0" encoding="UTF-8"?>
<!DOCTYPE svg PUBLIC "-//W3C//DTD SVG 1.1//EN" "http://www.w3.org/Graphics/SVG/1.1/DTD/svg11.dtd">
<!-- Creator: CorelDRAW X6 -->
<svg xmlns="http://www.w3.org/2000/svg" xml:space="preserve" width="200mm" height="200mm" version="1.1" style="shape-rendering:geometricPrecision; text-rendering:geometricPrecision; image-rendering:optimizeQuality; fill-rule:evenodd; clip-rule:evenodd"
viewBox="0 0 20000 20000"
 xmlns:xlink="http://www.w3.org/1999/xlink">
 <defs>
  <style type="text/css">
   <![CDATA[
    .str0 {stroke:black;stroke-width:100;stroke-linecap:round;stroke-linejoin:round}
    .fil2 {fill:none}
    .fil1 {fill:black;fill-rule:nonzero}
    .fil0 {fill:blue;fill-rule:nonzero}
   ]]>
  </style>
 </defs>
 <g id="Layer_x0020_1">
  <metadata id="CorelCorpID_0Corel-Layer"/>
  <path class="fil0" d="M2174 22198c3,-27 27,-47 55,-44 27,3 47,27 44,55l-2 18c-9,83 -18,170 39,303 53,124 148,232 259,324 113,94 243,172 364,234 42,22 87,44 133,67 325,161 732,362 824,728 24,97 40,211 43,330 4,173 -20,354 -87,504 -70,156 -185,278 -362,322 -41,10 -85,16 -132,17 -93,2 -207,-42 -303,-109 -93,-65 -172,-154 -201,-244 -10,-31 -14,-67 -11,-104 4,-68 26,-145 63,-209l0 0c39,-68 94,-123 162,-145 23,-7 48,-11 73,-10 30,2 51,14 73,26 9,5 17,10 25,13 3,1 8,2 13,2 7,0 15,0 22,-1 28,-2 52,18 54,46 2,28 -18,52 -46,54 -9,1 -21,1 -34,1 -15,-1 -31,-3 -45,-9 -15,-6 -26,-12 -38,-19 -12,-7 -23,-13 -29,-13 -13,-1 -26,1 -38,5 -42,13 -78,52 -106,99l0 0 0 0c-29,51 -47,111 -50,165 -1,26 1,49 7,68 22,69 86,139 163,193 80,56 172,93 244,91 40,-1 76,-6 111,-14 143,-36 237,-136 295,-266 61,-136 82,-302 79,-462 -2,-111 -17,-217 -40,-308 -80,-321 -464,-511 -771,-663 -47,-23 -93,-46 -135,-68 -126,-65 -262,-147 -382,-246 -122,-101 -226,-221 -287,-362 -67,-157 -57,-257 -46,-353l2 -18z"/>
  <path class="fil0" d="M251 21993c-1,-28 20,-51 47,-52 28,-1 51,20 52,47 5,104 -20,211 -44,315 -18,76 -36,151 -39,217 -5,109 -2,223 23,330 24,104 69,200 144,278 88,91 184,161 278,230 187,136 364,265 458,528 61,169 86,396 36,590 -41,159 -132,297 -294,368 -42,18 -84,30 -124,35 -98,12 -188,-14 -262,-65 -73,-50 -130,-124 -168,-210 -22,-50 -37,-105 -44,-161 -6,-50 -4,-91 5,-124 13,-49 40,-82 78,-101 35,-18 77,-22 124,-15 56,8 122,33 192,71 24,13 41,31 58,49l0 0 0 0c20,20 20,51 0,71 -20,20 -51,20 -71,0l0 0 0 0 -1 -1c-12,-13 -24,-25 -33,-31 -60,-32 -114,-53 -159,-60 -27,-4 -49,-3 -64,5 -12,6 -21,18 -26,38 -6,21 -7,50 -2,87 6,47 18,91 36,133 30,69 76,128 133,168 55,38 121,57 194,48 31,-4 63,-12 95,-27 130,-57 204,-170 238,-301 45,-174 21,-379 -34,-532 -84,-234 -249,-354 -423,-481 -98,-71 -198,-145 -291,-240 -90,-93 -142,-205 -170,-325 -27,-117 -32,-240 -26,-357 4,-76 22,-154 41,-235 23,-98 46,-198 42,-288z"/>
  <path class="fil0" d="M-1489 24147c20,19 20,51 0,71 -19,20 -51,20 -71,0 -11,-11 -21,-23 -30,-36 -9,-14 -17,-28 -22,-44 0,-1 -1,-2 -1,-3 -18,-57 4,-111 44,-154 34,-37 82,-67 123,-81 1,0 2,-1 4,-1l0 0c60,-20 118,-12 169,11 58,27 108,74 143,127 75,110 107,227 105,339 -1,96 -28,189 -74,270 -46,81 -111,152 -190,206 -100,68 -223,108 -357,106 -161,-2 -283,-48 -372,-121 -68,-56 -116,-129 -147,-211 -30,-80 -42,-169 -41,-261 4,-235 100,-491 244,-666 70,-85 149,-146 236,-196 85,-49 176,-85 273,-121 129,-48 261,-121 378,-212 108,-84 203,-184 270,-292 40,-66 70,-137 89,-212 19,-76 27,-155 24,-233 -3,-64 -19,-103 -32,-138 -24,-60 -44,-111 -18,-224 6,-27 33,-43 60,-37 27,6 43,33 37,60 -20,82 -5,120 13,164 17,42 36,90 39,170 4,89 -5,177 -26,262 -21,84 -55,165 -101,240 -73,119 -176,227 -294,319 -126,98 -267,176 -405,227 -92,34 -179,69 -258,114 -77,44 -147,99 -209,173 -131,158 -218,391 -221,604 -1,80 10,157 35,226 24,66 63,124 117,169 72,60 174,96 310,98 112,2 215,-32 300,-89 66,-45 120,-104 159,-172 38,-68 60,-144 61,-223 1,-93 -26,-189 -88,-282 -26,-39 -62,-74 -102,-92 -30,-14 -63,-18 -96,-7 -1,0 -2,1 -3,1 -27,9 -59,29 -82,53 -17,18 -27,38 -22,56l1 1c3,8 6,14 10,21 5,7 11,14 17,21z"/>
  <path class="fil0" d="M-3895 24573c-26,9 -55,-4 -64,-30 -9,-26 4,-55 30,-64 15,-5 31,-13 46,-21 28,-14 56,-28 85,-33 64,-10 120,0 165,25 29,16 54,38 72,64 18,26 31,56 36,89 8,51 -1,109 -32,165 -31,56 -83,103 -144,140 -76,47 -165,80 -235,100 -38,11 -77,18 -115,22 -113,12 -224,-4 -316,-53 -94,-50 -166,-133 -199,-253 -7,-26 -13,-54 -16,-83 -49,-448 315,-668 640,-865 1,-1 2,-1 3,-2 13,-8 27,-16 64,-39 383,-235 596,-632 809,-1028 102,-189 203,-378 323,-550 16,-23 47,-28 70,-13 23,16 28,47 13,70 -117,168 -217,354 -317,540 -219,408 -439,817 -845,1066l-64 39c-1,1 -2,2 -3,2 -300,181 -635,384 -593,769 3,24 7,46 13,67 25,91 80,154 150,191 73,39 164,52 258,41 33,-4 66,-10 99,-19 63,-17 142,-47 209,-88 47,-29 87,-64 109,-103 20,-36 26,-72 21,-103 -3,-18 -9,-34 -19,-48 -10,-14 -22,-25 -38,-34 -27,-15 -61,-20 -102,-14 -14,2 -35,13 -56,23 -19,9 -38,19 -57,26z"/>
  <path class="fil1" d="M3421 24990c0,28 -22,50 -50,50 -28,0 -50,-22 -50,-50l0 -16c0,-28 22,-50 50,-50 28,0 50,22 50,50l0 16z"/>
  <line class="fil2 str0" x1="-836" y1="23010" x2="-836" y2= "23010" />
 </g>
</svg>
