<?xml version="1.0" encoding="UTF-8"?>
<!DOCTYPE svg PUBLIC "-//W3C//DTD SVG 1.1//EN" "http://www.w3.org/Graphics/SVG/1.1/DTD/svg11.dtd">
<!-- Creator: CorelDRAW X6 -->
<svg xmlns="http://www.w3.org/2000/svg" xml:space="preserve" width="200mm" height="200mm" version="1.1" style="shape-rendering:geometricPrecision; text-rendering:geometricPrecision; image-rendering:optimizeQuality; fill-rule:evenodd; clip-rule:evenodd"
viewBox="0 0 20000 20000"
 xmlns:xlink="http://www.w3.org/1999/xlink">
 <defs>
  <style type="text/css">
   <![CDATA[
    .str0 {stroke:black;stroke-width:52.92;stroke-linecap:round;stroke-linejoin:round}
    .fil0 {fill:none}
   ]]>
  </style>
 </defs>
 <g id="Layer_x0020_1">
  <metadata id="CorelCorpID_0Corel-Layer"/>
  <path class="fil0 str0" d="M-1791 20692c-233,-43 -409,-247 -409,-492l0 -400c0,-276 224,-500 500,-500l3400 0c276,0 500,224 500,500l0 400c0,210 -129,389 -312,463 364,196 839,204 1037,550 239,419 -197,795 356,1102 251,139 546,171 792,317 503,299 674,1068 675,1612 0,482 -180,930 -618,1160 -321,168 -687,249 -1023,90 -219,-104 -437,-266 -549,-486 -112,-220 -76,-533 64,-733 74,-106 178,-164 301,-195 87,-22 191,-9 268,38 39,24 168,201 80,208 -23,2 -48,-8 -72,-19l15 15c-19,60 -33,50 -89,39 -15,-3 -40,-2 -52,-11 -14,-10 -32,-45 -17,-41l1 -7c-26,12 -50,32 -71,55l9 0c65,-2 37,95 11,126 -19,22 -12,18 -42,24 -22,4 -49,-9 -62,9 -5,20 -10,39 -12,59l3 -1c79,-24 72,26 88,88 5,20 20,42 8,61 -13,21 -57,20 -57,27l-12 -7c13,23 29,45 47,66l1 -2c42,-68 80,-28 128,12 37,31 77,70 14,102 -1,-4 -2,-9 -1,-13l-20 7c30,20 62,38 95,53l0 -2c-9,-80 45,-74 100,-62 59,13 92,17 89,86l-20 17c32,-1 63,-4 92,-10l-5 -15c21,-55 -35,-68 41,-96 17,-6 46,-24 64,-22 22,2 44,34 49,30 6,9 21,19 31,26l0 1c21,-15 41,-31 59,-49l-1 -1c-48,-62 -43,-58 5,-124 14,-20 30,-63 53,-75 19,-10 41,0 62,0l6 10c8,-18 15,-37 21,-56l-10 -3c-74,-31 -52,-83 -35,-151 11,-45 30,-74 84,-70l8 11c3,-24 5,-49 7,-73l-1 0c-28,-10 -44,-2 -58,-26 -11,-19 -6,-76 -7,-99 -3,-65 2,-80 57,-108l7 3c-3,-30 -6,-59 -10,-88l-6 1c-52,29 -75,18 -87,-44 -11,-57 -13,-116 59,-116 -7,-24 -16,-48 -27,-70l-7 5c-19,2 -47,26 -65,21 -16,-5 -41,-50 -52,-63 -15,-20 -61,-130 7,-108l23 -3c-15,-18 -31,-36 -48,-53l-3 5c-48,64 -97,35 -163,-12 -11,-8 12,-46 51,-94 -46,-36 -95,-69 -146,-101l-3 7c0,1 -5,52 -26,61 -22,9 -71,-23 -90,-32 -15,-8 -51,-21 -60,-35 -13,-21 -4,-92 27,-77l7 -7c-32,-17 -64,-34 -95,-50l-4 12c3,85 -84,35 -121,19 -34,-15 -149,-69 -55,-113 4,7 4,-8 0,0l6 -6c-28,-14 -55,-27 -80,-41l-4 -2 -6 13c-28,53 -32,67 -88,34 -48,-27 -121,-56 -60,-122 -2,6 2,-6 0,0l10 -7c-25,-15 -49,-30 -74,-47l-7 9c0,0 -7,42 -24,49 -28,11 -65,-22 -86,-35 -47,-29 -59,-60 -13,-104 2,3 -2,-3 0,0l11 -6c-22,-17 -44,-36 -65,-54 -3,85 -119,23 -151,-3 -45,-37 -75,-77 -11,-116 4,4 33,-19 35,-13l0 0c-17,-21 -33,-43 -48,-66l-9 4c-59,68 -98,-10 -116,-63 -4,-12 -19,-50 -16,-62 8,-30 46,-24 58,-51l0 0c-8,-23 -13,-44 -17,-65l-9 3c-19,-20 -49,9 -71,-21 -12,-16 -12,-71 -13,-92 -3,-63 12,-109 85,-110 2,1 4,3 6,5 10,-98 18,-194 -76,-349 -170,-283 -532,-373 -778,-127 -122,123 -121,273 -170,427 -65,205 -131,350 -16,557 162,291 475,444 645,733 279,473 203,1218 -110,1653 -245,341 -957,614 -1322,327 -404,-317 -784,-1055 -240,-1425 212,-144 499,-143 641,89 32,53 114,227 53,281 -57,51 -89,1 -126,-37 -3,8 -4,33 -18,45 -11,10 -38,11 -52,10 -17,-1 -63,-13 -72,-29 -13,-22 7,-80 25,-82l3 -9c-73,-29 -137,-39 -181,-20l33 7c6,-2 5,-6 12,-4 25,46 35,55 -7,97 -9,9 -41,45 -52,49 -20,6 -38,-13 -52,-14 0,14 1,28 3,44 3,21 7,43 12,63l9 -6c72,-44 92,9 106,71 12,50 6,60 -44,78 1,-5 4,-9 9,-12l-30 -4c21,38 46,72 76,101l2 -18c28,-77 65,-49 115,-14 43,29 72,49 43,100 2,-6 5,-11 10,-15l-54 26c50,21 106,30 165,22l-6 -4c-20,-78 -8,-95 70,-118 60,-18 53,5 85,34l5 35c37,-21 68,-46 96,-75l-13 0c-42,-60 -42,-74 1,-136 32,-46 47,-56 101,-45 1,4 3,9 4,13l7 10c12,-30 22,-62 30,-95l-10 1c-64,-44 -66,-62 -54,-149 8,-58 28,-92 84,-86 -1,-29 -3,-58 -7,-87l-10 4c-62,0 -89,-7 -93,-77 -3,-48 16,-88 67,-100l1 1c-5,-18 -11,-36 -17,-54 -5,-14 -10,-27 -15,-40l-18 18c-64,28 -83,-9 -112,-68 -15,-31 -28,-115 19,-112l20 2c-28,-38 -58,-72 -90,-104l-5 14c-69,77 -208,-54 -147,-139 4,16 0,32 -12,46l45 -27c-36,-28 -73,-56 -110,-83l-10 17c1,4 -14,37 -34,41 -24,5 -53,-24 -72,-41 -42,-37 -56,-64 -22,-115l4 -2c-23,-18 -45,-36 -67,-55l-7 8c-93,94 -203,-101 -123,-128l5 -1c-14,-17 -27,-34 -39,-53l-1 1c-71,7 -71,61 -122,-35 -12,-22 -32,-59 -28,-85 3,-25 53,-71 53,-52l20 3c-10,-32 -17,-65 -23,-98l-14 7c-33,-9 -57,-2 -77,-34 -20,-32 -17,-86 -12,-121 7,-50 24,-59 72,-75l15 4c0,-27 1,-53 2,-79 -67,10 -77,-49 -69,-103 9,-62 33,-95 87,-118l18 9c7,-31 14,-61 21,-92l-8 0c-83,0 -87,-79 -71,-139 16,-57 54,-67 105,-84 -2,-51 -11,-99 -32,-144 -141,-295 -592,-355 -824,-148 -60,53 -105,125 -126,214 -13,55 -14,111 -9,168 40,-3 68,6 82,41 27,64 16,116 -46,132l-9 0c5,26 9,51 13,76l4 -1c74,-2 72,24 79,93 5,45 3,131 -71,96l-3 -2c-2,30 -5,60 -10,90l4 0c69,-29 72,65 64,104 -14,70 -30,93 -104,90l-16 -11c-11,26 -23,52 -36,76 -7,13 -14,25 -21,37 -23,37 -48,72 -76,107 -17,21 -36,42 -55,62l11 2c-1,-14 37,34 33,59 -4,20 -27,41 -42,53 -49,43 -82,73 -128,20l-11 -9c-22,17 -44,34 -67,50 53,39 25,76 -19,104 -22,15 -48,35 -76,36 -42,3 -39,-21 -62,-41l-1 -2c-18,10 -35,19 -53,27l10 10c-1,-8 0,-9 4,-4 25,62 4,79 -54,101 -18,7 -49,22 -68,13 -19,-9 -25,-52 -36,-57l0 -2c-21,8 -41,16 -61,24l5 5c-2,1 25,51 14,74 -10,20 -41,24 -62,32 -51,20 -120,51 -137,-27l0 0c-27,15 -53,32 -79,50 30,53 32,86 -18,123 -16,12 -53,41 -73,44 -28,5 -43,-15 -61,-27 -20,25 -39,51 -58,78 47,25 64,63 39,115 -10,21 -35,68 -60,77 -23,9 -51,-13 -71,-10l-3 -3c-8,20 -16,40 -23,60l3 0c30,42 62,19 52,84 -4,27 -7,88 -27,108 -20,20 -55,8 -78,24l-1 -1c-3,26 -6,52 -7,77l8 -5c74,-8 70,56 76,114 8,77 -13,63 -66,94 6,24 13,47 21,69 56,-8 68,-21 103,31 7,11 35,43 37,54 4,25 -23,48 -21,65l-27 -1c23,24 49,46 78,65l2 -3c31,-32 38,-69 88,-61 76,13 98,56 79,127l-7 2c26,6 54,10 83,12l-1 -1c18,-58 1,-84 73,-88 59,-4 155,-8 139,74 22,-6 44,-13 65,-22l-8 -4c9,-3 18,-6 27,-10 -18,-65 -22,-73 35,-110 44,-29 84,-54 123,1l2 8c20,-19 38,-39 55,-60l-22 -5c4,-4 7,-3 8,-8 -21,-11 -39,-28 -51,-49 17,-31 37,-64 60,-91 10,-12 12,-25 26,-29 19,-5 61,14 57,27l4 6c11,-31 20,-63 25,-95l-20 9c-51,-25 -62,-15 -54,-78 6,-49 -8,-117 63,-107l9 2c-7,-35 -17,-71 -32,-106l-8 20c2,-8 -1,-12 -7,-14 -45,17 -60,16 -92,-21 -36,-41 -82,-107 -2,-128l18 -6c-38,-40 -86,-72 -138,-80l46 42c-2,-9 -6,-13 -13,-9 8,63 -135,57 -146,-4l-2 -8c-46,23 -93,65 -106,111l15 -10c26,-32 64,-2 79,23 25,41 24,71 -4,109l-43 -7c20,15 62,35 67,53 16,55 -107,83 -142,86 -145,11 -252,-109 -243,-249 10,-143 116,-280 232,-356 491,-320 1177,222 1101,768 -108,775 -925,1327 -1644,913 -458,-264 -577,-863 -512,-1353 33,-247 99,-492 224,-709 62,-107 128,-199 227,-272 114,-83 240,-149 368,-209 140,-67 294,-147 366,-293 47,-94 63,-218 53,-321 -18,-179 -123,-333 -244,-462 -227,-241 -442,-177 -685,18 -141,113 -257,250 -359,399l13 6c-6,-7 -6,-11 -1,-10 58,37 46,70 7,115 -13,14 -36,52 -53,58 -23,9 -30,-2 -55,-13l-6 -9c-15,24 -29,48 -43,72 55,23 38,67 18,114 -28,64 -52,122 -118,70l-2 -2c-13,24 -26,48 -39,72 52,19 41,65 19,111 -27,53 -56,133 -119,80l-1 -2c-15,28 -31,57 -47,85 58,-33 48,65 35,92 -22,46 -60,144 -124,85l-9 -8c-18,29 -36,58 -54,86l6 1c67,-29 37,74 21,102 -9,16 -36,66 -53,73 -29,12 -54,-21 -74,-26l-2 -3c-17,23 -35,46 -53,69 75,9 24,94 -6,132 -13,17 -50,66 -76,68 -27,2 -43,-38 -61,-40l0 -1c-24,23 -48,46 -73,67l25 8c-3,-8 -4,-15 -2,-23 43,56 32,81 -18,124 -17,15 -44,37 -68,39 -35,3 -37,-17 -63,-34l-10 -11c-17,11 -34,23 -52,33l-19 12 11 6c53,35 -105,237 -176,115l-7 -15c-27,17 -54,34 -80,52l7 3c42,54 8,86 -35,124 -57,49 -89,58 -142,4l-1 -1c-26,23 -50,47 -73,71l11 2c-5,-8 -5,6 0,0 63,35 34,81 1,126 -16,21 -44,66 -69,77 -25,11 -41,-4 -64,-6l-6 -10c-14,31 -25,64 -32,99l3 0c67,10 57,53 57,109 0,24 8,66 -5,88 -13,20 -43,24 -60,40 5,27 12,51 21,75 51,-16 63,-22 102,17 61,60 31,65 35,134l-26 2c24,18 50,34 77,46l-2 -13c27,-71 7,-65 91,-51 23,4 75,6 93,21 22,19 9,46 18,70l-10 11c32,0 65,-2 98,-7l-4 -8c9,-34 -11,-63 16,-91 13,-14 40,-18 57,-23 76,-21 98,-10 126,61l-3 6c26,-11 52,-23 78,-37l-13 -4c7,-19 -24,-50 11,-88 16,-17 49,-47 73,-48 22,-1 48,28 57,30l2 11c11,-13 21,-27 29,-41 9,-16 15,-31 20,-47 -49,-15 -67,-3 -84,-57 -9,-30 -32,-109 24,-104l41 9c-27,-41 -73,-69 -131,-74 -40,32 9,68 -59,85 -65,17 -92,16 -134,-28 -27,8 -52,7 -74,-12 -70,-62 8,-180 56,-226 89,-84 221,-145 342,-150 150,-6 284,99 355,227 230,414 -131,977 -546,1097 -687,198 -1536,13 -1706,-781 -128,-598 269,-1266 798,-1519 240,-115 545,-158 743,-347 230,-220 223,-500 323,-779 69,-192 152,-391 274,-554 363,-485 1146,-403 1566,-793z"/>
 </g>
</svg>
