<?xml version="1.0" encoding="UTF-8"?>
<!DOCTYPE svg PUBLIC "-//W3C//DTD SVG 1.1//EN" "http://www.w3.org/Graphics/SVG/1.1/DTD/svg11.dtd">
<!-- Creator: CorelDRAW X6 -->
<svg xmlns="http://www.w3.org/2000/svg" xml:space="preserve" width="200mm" height="200mm" version="1.1" style="shape-rendering:geometricPrecision; text-rendering:geometricPrecision; image-rendering:optimizeQuality; fill-rule:evenodd; clip-rule:evenodd"
viewBox="0 0 20000 20000"
 xmlns:xlink="http://www.w3.org/1999/xlink">
 <defs>
  <style type="text/css">
   <![CDATA[
    .str0 {stroke:black;stroke-width:52.92;stroke-linecap:round;stroke-linejoin:round}
    .fil0 {fill:none}
   ]]>
  </style>
 </defs>
 <g id="Layer_x0020_1">
  <metadata id="CorelCorpID_0Corel-Layer"/>
  <path class="fil0 str0" d="M1700 20700l-3400 0c-276,0 -500,-224 -500,-500l0 -400c0,-276 224,-500 500,-500l1213 0 0 -274c-711,-24 -1286,-133 -1723,-309 -37,-100 -27,-143 -7,-163 25,-25 66,-12 85,-43 16,-26 -5,-50 0,-92 4,-29 21,-70 81,-113 30,6 60,12 90,18l-80 -33c-65,-378 -179,-753 -286,-1121 -214,14 -442,-356 -515,-841 -75,-496 41,-925 259,-958 11,-2 22,-2 32,-2 33,-159 88,-317 170,-471 47,-89 538,-979 1459,-1368 142,-234 498,-400 915,-400 433,0 800,179 930,427 829,371 1290,1123 1325,1242 50,170 84,335 106,497 64,-5 146,-3 225,23l-6 18c8,0 16,0 24,1 173,30 241,471 153,987 -88,515 -300,909 -473,879 -30,-5 -56,-22 -80,-50 -73,340 -156,704 -233,1109l-53 37c20,-4 40,-8 60,-12 47,30 78,55 85,89 7,34 -14,54 0,78 18,31 65,15 92,43 17,17 29,56 -6,153 -396,233 -964,327 -1655,363l0 287 1213 0c276,0 500,224 500,500l0 400c0,276 -224,500 -500,500z"/>
 </g>
</svg>
