<?xml version="1.0" encoding="UTF-8"?>
<!DOCTYPE svg PUBLIC "-//W3C//DTD SVG 1.1//EN" "http://www.w3.org/Graphics/SVG/1.1/DTD/svg11.dtd">
<!-- Creator: CorelDRAW X6 -->
<svg xmlns="http://www.w3.org/2000/svg" xml:space="preserve" width="200mm" height="200mm" version="1.1" style="shape-rendering:geometricPrecision; text-rendering:geometricPrecision; image-rendering:optimizeQuality; fill-rule:evenodd; clip-rule:evenodd"
viewBox="0 0 20000 20000"
 xmlns:xlink="http://www.w3.org/1999/xlink">
 <defs>
  <style type="text/css">
   <![CDATA[
    .str0 {stroke:black;stroke-width:52.92;stroke-linecap:round;stroke-linejoin:round}
    .fil0 {fill:none}
   ]]>
  </style>
 </defs>
 <g id="Layer_x0020_1">
  <metadata id="CorelCorpID_0Corel-Layer"/>
  <path class="fil0 str0" d="M1700 20700l-3400 0c-276,0 -500,-224 -500,-500l0 -400c0,-276 224,-500 500,-500l1213 0 0 -185c-14,-7 -28,-15 -42,-23 -204,-122 -365,-386 -382,-634 -81,-68 -136,-100 -237,-40 -231,139 -61,425 124,503 -278,236 -686,29 -677,-324 4,-169 71,-316 136,-468 44,-104 121,-268 37,-372 -34,-42 -97,-55 -146,-34 -107,46 -102,212 -85,304 -192,-90 -319,-417 -290,-619 32,-216 164,-441 266,-632 -53,-63 -160,-28 -213,14 -116,91 -104,271 -107,402 -151,-92 -203,-336 -202,-498 0,-172 44,-336 107,-495 119,-301 354,-657 673,-790l-38 -42c-37,12 -74,26 -109,47 15,-37 33,-74 54,-109 -62,-70 -120,-141 -153,-207 -65,-128 -151,-318 -129,-466 17,-114 79,-42 148,-5 69,37 144,62 215,96 116,56 234,107 353,157 158,-103 331,-184 491,-242 79,-29 164,-56 251,-77 59,-385 115,-770 159,-1157 4,-32 7,-63 9,-95 7,-109 15,-219 32,-326 27,-167 38,-340 46,-508 8,-163 17,-328 39,-488 1,-6 1,-14 2,-24 6,-53 34,-94 68,-34 20,34 20,80 25,117 7,51 13,103 14,154 9,476 102,957 163,1429 40,309 63,627 109,938 201,48 395,122 573,228 57,34 116,74 174,117 25,-10 51,-20 76,-30 119,-50 237,-101 353,-157 71,-34 145,-59 215,-96 69,-36 130,-109 148,5 22,147 -64,338 -129,466 -48,94 -145,199 -235,297 335,122 583,491 706,803 63,159 106,324 107,495 0,162 -51,407 -202,498 -3,-131 9,-311 -107,-402 -53,-42 -160,-77 -213,-14 101,190 234,416 266,632 30,202 -98,528 -290,619 17,-92 22,-258 -85,-304 -49,-21 -112,-8 -146,34 -84,104 -8,267 37,372 65,152 132,299 136,468 9,353 -399,561 -677,324 186,-78 356,-364 124,-503 -93,-56 -148,-33 -220,25 -12,136 -51,278 -95,382 -50,118 -142,210 -253,277l0 197 1213 0c276,0 500,224 500,500l0 400c0,276 -224,500 -500,500z"/>
 </g>
</svg>
