<?xml version="1.0" encoding="UTF-8"?>
<!DOCTYPE svg PUBLIC "-//W3C//DTD SVG 1.1//EN" "http://www.w3.org/Graphics/SVG/1.1/DTD/svg11.dtd">
<!-- Creator: CorelDRAW X6 -->
<svg xmlns="http://www.w3.org/2000/svg" xml:space="preserve" width="200mm" height="200mm" version="1.1" style="shape-rendering:geometricPrecision; text-rendering:geometricPrecision; image-rendering:optimizeQuality; fill-rule:evenodd; clip-rule:evenodd"
viewBox="0 0 20000 20000"
 xmlns:xlink="http://www.w3.org/1999/xlink">
 <defs>
  <style type="text/css">
   <![CDATA[
    .fil0 {fill:blue;fill-rule:nonzero}
   ]]>
  </style>
 </defs>
 <g id="Layer_x0020_1">
  <metadata id="CorelCorpID_0Corel-Layer"/>
  <path class="fil0" d="M-4028 20608c-24,14 -54,6 -68,-18 -14,-24 -6,-54 18,-68 22,-13 44,-25 63,-36 18,-10 39,-22 64,-35 32,-17 63,-33 93,-48 29,-15 61,-29 95,-44 45,-20 91,-40 134,-56 46,-17 93,-33 142,-45l0 0c27,-6 56,-15 87,-24 187,-54 428,-124 543,86 28,51 35,109 31,167 -4,54 -17,107 -31,154 -22,76 -54,148 -90,217 -36,68 -77,133 -119,197 -17,26 -28,43 -42,66l0 0 0 0 -16 27c-14,24 -45,31 -69,16 -24,-14 -31,-45 -16,-69l16 -27 0 0c15,-24 26,-42 44,-69 41,-61 80,-124 114,-189 34,-64 63,-130 83,-199 12,-41 24,-87 27,-132 3,-41 -1,-80 -19,-113 -77,-140 -274,-83 -428,-38 -33,9 -64,18 -92,25l0 0 0 0c-43,10 -87,25 -130,41 -46,18 -88,36 -129,54 -29,13 -59,27 -91,43 -31,15 -61,31 -90,46 -17,9 -38,21 -62,34 -22,13 -43,24 -62,35z"/>
  <path class="fil0" d="M-4529 19836c-28,1 -50,-21 -51,-49 -1,-28 21,-50 49,-51 23,-1 46,-6 69,-10 35,-8 70,-15 114,-11 79,7 157,2 234,-3 53,-3 106,-7 163,-6 26,0 59,-1 93,-2 135,-5 301,-12 402,62 22,16 27,46 12,68l0 0c-92,136 -227,222 -357,305 -1,1 -2,1 -3,2l-16 10c-17,11 -33,21 -48,31 -34,23 -69,45 -105,66 -58,33 -117,72 -177,111 -29,19 -57,37 -94,61 -7,4 -11,7 -14,10 -7,5 -12,9 -28,18 -24,13 -54,4 -68,-20 -13,-24 -4,-54 20,-68 9,-5 12,-7 16,-10 5,-4 10,-8 21,-15 26,-16 59,-38 92,-60 58,-38 116,-76 182,-114 34,-19 67,-41 100,-63 17,-11 34,-22 50,-32l16 -10c1,-1 2,-2 3,-2 105,-67 215,-137 294,-231 -79,-28 -196,-23 -294,-20 -35,1 -67,3 -97,2 -51,0 -104,3 -156,6 -81,5 -162,10 -249,2 -28,-3 -56,3 -84,9 -27,6 -54,12 -88,12z"/>
  <path class="fil0" d="M-4239 18847c-19,-20 -18,-51 1,-71 20,-19 51,-18 71,1 8,9 17,17 25,25l0 0 0 0c9,9 18,18 25,24 45,42 90,86 135,130 54,53 108,106 162,155 62,56 125,113 192,171 64,55 129,109 197,161 22,17 26,48 10,70 -11,14 -28,21 -44,20 -213,-4 -437,7 -656,18 -173,9 -343,17 -505,18 -28,0 -50,-22 -50,-50 0,-28 22,-50 50,-50 158,-1 328,-9 501,-18 173,-9 348,-17 521,-19 -30,-24 -59,-49 -88,-75 -63,-55 -129,-114 -194,-173 -58,-53 -111,-105 -165,-157 -44,-43 -87,-86 -133,-128 -11,-10 -20,-19 -27,-26l0 0c-9,-9 -18,-18 -26,-27z"/>
  <path class="fil0" d="M4078 20522c24,14 32,44 18,68 -14,24 -44,32 -68,18 -19,-11 -40,-23 -62,-35 -24,-13 -45,-25 -62,-34 -29,-15 -58,-31 -90,-46 -32,-16 -62,-30 -91,-43 -41,-18 -83,-36 -129,-54 -43,-17 -87,-31 -130,-41l0 0 0 0c-28,-7 -59,-16 -92,-25 -154,-45 -351,-102 -428,38 -18,32 -22,72 -19,113 3,45 15,91 27,132 20,69 49,135 83,199 34,65 74,127 114,189 18,27 29,45 44,69l16 27c14,23 7,54 -16,69 -23,14 -54,7 -69,-16l-17 -27c-14,-23 -25,-40 -42,-66 -42,-64 -83,-129 -119,-197 -37,-69 -68,-141 -90,-217 -14,-47 -27,-100 -31,-154 -4,-58 3,-116 31,-167 116,-210 356,-140 543,-86 31,9 61,18 87,24l0 0c50,12 97,27 142,45 43,16 88,36 134,56 34,15 65,30 95,44 30,15 61,31 93,48 25,13 46,25 64,35 20,11 41,23 63,36z"/>
  <path class="fil0" d="M4531 19736c28,1 49,23 49,51 -1,28 -23,49 -51,49 -33,-1 -61,-7 -88,-12 -28,-6 -56,-12 -84,-9 -88,8 -169,3 -249,-2 -53,-3 -105,-7 -156,-6 -30,0 -63,-1 -97,-2 -98,-4 -214,-8 -294,20 79,95 189,164 294,231 1,1 2,2 3,2l16 10c27,17 38,25 50,32 1,1 2,2 3,2 32,21 64,42 97,61 66,38 124,76 182,114 33,22 66,43 92,60 12,7 17,11 21,15 4,3 7,5 16,10 24,13 33,43 20,68 -13,24 -43,33 -68,20 -17,-9 -22,-13 -28,-18 -3,-2 -7,-5 -14,-10 -37,-23 -65,-42 -94,-61 -60,-39 -119,-78 -177,-111 -35,-20 -69,-42 -102,-64 -1,-1 -2,-1 -3,-2 -21,-14 -42,-28 -48,-32l-16 -10c-1,-1 -2,-1 -3,-2 -130,-83 -266,-169 -357,-305l0 0c-15,-22 -10,-53 12,-68 101,-73 267,-67 402,-62 34,1 67,3 93,2 57,0 110,3 163,6 77,5 155,10 234,3 44,-4 78,3 114,11 23,5 46,10 69,10z"/>
  <path class="fil0" d="M4167 18778c19,-20 51,-20 71,-1 20,19 20,51 1,71 -8,9 -17,18 -26,27 -9,9 -18,18 -27,26 -45,42 -89,85 -133,128 -53,52 -107,105 -165,157 -65,59 -131,118 -194,173 -29,25 -59,50 -88,75 173,2 348,10 521,19 173,9 343,17 501,18 28,0 50,23 50,50 0,28 -23,50 -50,50 -163,-1 -333,-9 -505,-18 -219,-11 -444,-22 -656,-18 -17,1 -33,-5 -44,-20 -17,-22 -12,-53 10,-70 68,-51 133,-105 197,-161 67,-58 130,-115 192,-171 54,-49 108,-102 162,-155 45,-44 89,-88 135,-130 9,-8 17,-16 25,-24 8,-8 16,-16 25,-25z"/>
 </g>
</svg>
