<?xml version="1.0" encoding="UTF-8"?>
<!DOCTYPE svg PUBLIC "-//W3C//DTD SVG 1.1//EN" "http://www.w3.org/Graphics/SVG/1.1/DTD/svg11.dtd">
<!-- Creator: CorelDRAW X6 -->
<svg xmlns="http://www.w3.org/2000/svg" xml:space="preserve" width="200mm" height="200mm" version="1.1" style="shape-rendering:geometricPrecision; text-rendering:geometricPrecision; image-rendering:optimizeQuality; fill-rule:evenodd; clip-rule:evenodd"
viewBox="0 0 20000 20000"
 xmlns:xlink="http://www.w3.org/1999/xlink">
 <defs>
  <style type="text/css">
   <![CDATA[
    .fil1 {fill:none;fill-rule:nonzero}
    .fil0 {fill:blue;fill-rule:nonzero}
   ]]>
  </style>
 </defs>
 <g id="Layer_x0020_1">
  <metadata id="CorelCorpID_0Corel-Layer"/>
  <path class="fil0" d="M838 18132c9,-50 27,-96 65,-123l2 -1c22,-15 44,-23 64,-26 31,-4 58,5 79,22 19,15 33,36 41,60 10,28 14,62 11,93l0 0c-1,8 -4,17 -9,24 -36,48 -84,95 -126,136 -15,15 -30,29 -42,41 -14,14 -29,31 -44,47 -67,72 -136,146 -229,189 -50,23 -105,41 -162,55 -62,15 -127,26 -188,31l0 0 0 0c0,0 -152,14 -307,29 -3,0 -6,0 -10,0 -150,-14 -359,-29 -360,-29l0 0 -1 0c-61,-6 -125,-16 -188,-31 -56,-14 -111,-32 -161,-55 -94,-43 -162,-117 -230,-190 -15,-16 -30,-32 -44,-47l0 0c-12,-13 -27,-27 -43,-43 -39,-38 -83,-80 -117,-125 -5,-7 -9,-14 -11,-23 -6,-33 -3,-69 8,-100 8,-24 22,-45 40,-60 21,-18 47,-28 78,-25 21,2 44,10 68,26 39,27 58,73 67,124l0 0c26,-16 55,-21 86,-11 18,6 36,17 52,35 1,1 2,2 3,3 21,24 34,54 43,88 2,-3 5,-5 8,-8l0 0c7,-7 14,-13 22,-18 41,-29 87,-31 130,-17 38,12 73,36 101,64 13,13 24,27 34,40 10,15 18,30 24,45 17,-19 37,-34 60,-45 41,-20 89,-27 135,-25 27,1 53,7 77,18 25,10 47,25 67,44l0 0 0 0c12,12 23,24 33,38 9,-12 19,-24 30,-35 1,-1 2,-2 3,-3 20,-18 42,-33 67,-44 24,-10 50,-16 77,-18 46,-2 94,5 135,25 22,11 43,26 60,45 6,-15 14,-30 24,-45l0 0c9,-14 21,-27 34,-40 28,-28 64,-52 101,-64 43,-14 89,-11 130,17 8,5 15,12 22,19 3,3 5,5 7,8 8,-32 21,-62 40,-85 1,-1 2,-2 3,-4 18,-21 38,-34 59,-40 30,-8 58,-3 83,12z"/>
  <path class="fil1" d="M8577 18039c8,-2 17,-1 26,2 26,9 40,38 30,64 -4,13 -11,26 -19,40 -7,13 -16,25 -24,37 -16,22 -48,27 -70,10 -15,-11 -22,-28 -20,-45l0 0c2,-16 0,-34 -5,-48 -3,-8 -6,-14 -10,-17 -1,-1 -2,-1 -4,-1 -5,1 -12,4 -20,9 -35,24 -31,129 -29,197l0 1m116 -284c12,9 21,21 29,35m-108 -57c31,-4 58,5 79,22m-143 4c22,-15 44,-23 64,-26m-131 150c9,-51 28,-97 67,-124m11 318c-8,8 -19,12 -32,13 -13,0 -26,-4 -35,-13l-15 0 0 -1 0 0c0,-27 -10,-59 -25,-83l0 0c-7,-11 -14,-20 -21,-24 -2,-1 -4,-2 -4,-2 -3,1 -6,4 -11,9l-2 2c-15,19 -23,50 -26,86 -6,60 1,128 9,171 5,27 -13,53 -40,58 -25,5 -49,-10 -56,-34 -2,-5 -3,-8 -3,-10l-3 -11c-4,-14 -8,-26 -11,-38 -15,-52 -30,-107 -63,-140 -3,-3 -5,-5 -8,-7 -13,-9 -28,-9 -44,-4 -21,7 -43,22 -60,39 -9,9 -16,18 -22,27l0 0 0 0c-7,10 -12,20 -15,31 -5,13 -8,26 -11,41l0 0 0 0c-4,16 -7,32 -8,49 -2,16 -2,32 -2,48 1,28 -21,51 -48,51 -25,1 -46,-16 -50,-40 -4,-19 -8,-37 -14,-55l-1 -2c-5,-16 -10,-32 -17,-47 -9,-20 -25,-34 -43,-43 -25,-12 -56,-17 -86,-15 -15,1 -29,4 -43,10 -14,6 -26,14 -38,25 -1,1 -2,1 -2,2 -10,10 -18,21 -25,33 -8,13 -14,28 -19,44l-1 2c-1,4 -2,9 -3,13l0 0 0 0c-1,5 -1,10 -2,15 -2,28 -25,49 -53,47 -25,-1 -45,-22 -47,-46l0 0c0,-6 -1,-12 -2,-18 -1,-5 -2,-10 -3,-13l0 -1 0 0c-4,-15 -10,-30 -18,-43 -8,-13 -17,-25 -28,-35 -11,-10 -24,-19 -38,-25 -14,-6 -28,-9 -43,-10 -31,-1 -61,3 -86,15 -18,9 -34,23 -43,43 -7,16 -13,32 -18,49l0 0 0 0c-5,18 -10,36 -14,55 -6,27 -32,44 -59,39 -25,-5 -41,-27 -40,-52 0,-15 0,-31 -2,-47 -2,-17 -5,-33 -8,-49l0 -2c-3,-14 -7,-27 -11,-39l0 0c-4,-11 -9,-22 -15,-31 -6,-9 -14,-18 -22,-26 -18,-18 -39,-33 -61,-39 -16,-5 -31,-5 -44,4 -3,2 -5,4 -8,7l0 0 0 0c-33,33 -49,89 -63,140 -3,12 -6,23 -11,37l0 0 0 0 -3 11 0 0 0 0 -4 11c-9,26 -38,39 -64,30 -23,-8 -37,-32 -32,-56l0 0c8,-43 15,-111 9,-171 -4,-37 -12,-69 -28,-87l-2 -2c-4,-4 -7,-6 -10,-7 -1,0 -2,0 -4,1 -7,4 -14,13 -21,23 -14,23 -24,53 -26,80 -2,28 -25,49 -53,47 -28,-2 -49,-25 -47,-53l0 -1c0,-9 1,-17 1,-25 2,-68 6,-174 -29,-198 -9,-6 -16,-9 -21,-9 -1,0 -3,0 -4,1 -4,3 -7,10 -10,18 -5,15 -7,34 -4,51 5,27 -14,53 -41,57 -20,3 -39,-6 -49,-21 -10,-13 -19,-26 -27,-39 -9,-14 -16,-29 -21,-44l0 0c-23,-65 -21,-132 -18,-197 1,-32 2,-63 0,-94l0 -1c-3,-34 -6,-75 -10,-117 -11,-126 -22,-260 -23,-382 0,-28 22,-50 49,-50 28,0 50,22 50,49 2,114 13,249 23,375 3,38 6,76 10,118l0 1c3,34 1,69 0,105 -1,34 -3,68 0,101 2,-2 4,-3 6,-5 21,-18 47,-28 78,-25 21,2 44,10 68,26 39,27 58,73 67,124l0 0c26,-16 55,-21 86,-11 18,6 36,17 52,35 1,1 2,2 3,3 21,24 34,54 43,88 2,-3 5,-5 8,-8l0 0c7,-7 14,-13 22,-18 41,-29 87,-31 130,-17 38,12 73,36 101,64 13,13 24,27 34,40 10,15 18,30 24,45 17,-19 37,-34 60,-45 41,-20 89,-27 135,-25 27,1 53,7 77,18 25,10 47,25 67,44l0 0 0 0c12,12 23,24 33,38 9,-12 19,-24 30,-35 1,-1 2,-2 3,-3 20,-18 42,-33 67,-44 24,-10 50,-16 77,-18 46,-2 94,5 135,25 22,11 43,26 60,45 6,-15 14,-30 24,-45l0 0c9,-14 21,-27 34,-40 28,-28 64,-52 101,-64 43,-14 89,-11 130,17 8,5 15,12 22,19 3,3 5,5 7,8 8,-32 21,-62 40,-85 1,-1 2,-2 3,-4 18,-21 38,-34 59,-40 30,-8 58,-3 83,12m95 194l-17 0"/>
  <path class="fil0" d="M1020 17415c3,-6 8,-12 13,-16 10,-16 27,-25 47,-23 27,2 48,27 45,54 -2,25 -1,64 1,105 4,104 9,228 -42,292 -64,80 -113,71 -150,22 -13,77 -45,143 -136,158 -63,10 -107,-20 -136,-68 -22,89 -69,162 -202,180 -18,2 -35,2 -51,0 -61,-8 -110,-45 -145,-96 -8,-11 -15,-24 -22,-36 -36,71 -90,124 -173,134 -36,5 -78,-5 -115,-21 -39,-17 -76,-43 -99,-71 -2,-2 -4,-5 -6,-8 -18,26 -42,45 -70,59 -43,21 -94,28 -140,23 -102,-9 -162,-71 -197,-150 -3,-6 -5,-12 -8,-18 -33,46 -90,67 -207,36 -93,-25 -136,-77 -156,-139 -20,10 -44,16 -76,16 -11,0 -21,-1 -30,-2 -59,-10 -96,-48 -117,-99 -18,-42 -24,-94 -24,-143 0,-44 4,-87 9,-118 -19,-21 -36,-43 -51,-68l0 0 0 0c-16,-26 -27,-53 -39,-79 0,-1 -1,-2 -1,-3l-1 -3c-11,-25 0,-55 25,-66 25,-11 55,0 66,25l1 2 1 3c11,24 22,48 34,69l0 0c33,56 83,99 140,133 60,36 128,63 195,86 224,75 459,119 695,132 236,13 474,-6 706,-57 85,-19 172,-45 248,-85 72,-39 132,-90 167,-161z"/>
  <path class="fil0" d="M-2 17514c-4,16 -9,30 -19,43 -9,12 -20,22 -34,30 -12,7 -26,12 -42,16l0 0c-5,1 -12,2 -19,3 -17,1 -49,0 -77,-2 -19,-1 -38,-5 -54,-10 -21,-3 -39,-19 -42,-41l0 0 0 0c0,-2 -1,-4 -1,-6 -5,-92 12,-185 41,-274 34,-102 85,-200 142,-285l0 0c9,-14 25,-22 42,-22 28,1 49,23 49,51 -1,61 5,126 12,191 9,89 18,179 8,266 -2,14 -3,27 -6,38l-1 3z"/>
  <path class="fil0" d="M50 17557c-9,-13 -15,-26 -18,-43l0 0c-3,-12 -4,-25 -6,-41 -10,-87 -1,-177 8,-266 7,-65 13,-131 12,-191 -1,-28 21,-50 49,-51 18,0 33,8 42,22l0 0c57,85 108,183 142,285 29,89 46,182 41,274 0,2 0,4 -1,6l0 0 0 0c0,2 -1,3 -1,5l0 0c0,1 -1,2 -1,4 -6,18 -22,30 -40,33 -16,6 -35,9 -54,10 -28,2 -60,3 -77,2 -8,0 -15,-1 -19,-2 -16,-4 -30,-10 -42,-16 -15,-8 -26,-18 -34,-30z"/>
  <path class="fil0" d="M-541 16386c47,15 93,30 138,46 120,40 240,81 359,103 24,4 41,26 41,50 1,69 -28,138 -71,202 -57,85 -139,162 -198,212 -66,55 -142,98 -223,124 -77,25 -158,34 -241,24 -59,-7 -118,-15 -177,-29 -60,-14 -119,-34 -177,-65 -41,-22 -82,-49 -122,-78 -42,-31 -82,-64 -117,-96 -51,-48 -93,-103 -127,-163 -36,-63 -62,-132 -79,-203 -13,-54 -18,-106 -23,-159 -1,-11 -2,-22 -4,-41 -5,-53 1,-96 7,-143 2,-15 4,-30 6,-46 3,-25 24,-44 49,-45 35,-2 80,18 115,33 10,4 19,8 23,10 122,47 248,90 376,130 38,12 75,23 112,35 -11,7 -19,17 -23,31 -4,17 -6,34 -7,51l0 0c0,42 11,81 34,112 23,32 57,56 100,66 14,4 30,6 47,6l0 0c50,1 88,-15 117,-42 27,-24 45,-56 61,-92 5,-11 6,-23 3,-34zm-153 -45l72 21c-5,5 -10,10 -13,17 -11,25 -23,46 -37,59 -12,10 -27,16 -49,16l0 0 0 0c-8,0 -16,-1 -24,-3 -2,0 -3,-1 -5,-1 16,-5 30,-13 41,-25 11,-11 19,-26 23,-41l0 0c4,-15 1,-31 -8,-42z"/>
  <path class="fil0" d="M1758 16652c0,28 -22,50 -50,50 -28,0 -50,-22 -50,-50 0,-271 28,-540 56,-809 16,-155 32,-310 43,-465 2,-27 3,-52 3,-78 3,-88 5,-182 40,-264 15,-35 61,-93 106,-122 19,-13 40,-21 60,-23 28,-3 54,6 74,30 16,20 26,52 27,98 0,28 -22,50 -50,50 -28,0 -50,-22 -50,-50 0,-11 -1,-19 -1,-25 -1,1 -3,2 -5,3 -30,19 -60,56 -68,77 -27,66 -30,149 -32,228 -1,29 -2,58 -3,82 -11,155 -27,311 -43,468 -28,267 -56,535 -56,799z"/>
  <path class="fil0" d="M437 16432c46,-16 92,-31 138,-46 -3,11 -2,23 3,34 16,36 35,68 62,92 30,27 67,42 117,42l0 0c17,0 33,-2 47,-6 43,-11 76,-34 100,-66 23,-31 35,-70 34,-112 0,-17 -2,-34 -7,-52 -3,-13 -12,-24 -23,-31 37,-11 74,-23 112,-35 128,-40 255,-83 376,-130 4,-1 13,-5 23,-10 35,-15 80,-35 115,-33 25,0 46,19 49,45 2,16 4,31 6,46 6,46 12,90 7,143 -2,18 -3,30 -4,41 -5,53 -9,105 -23,159 -17,71 -44,139 -79,203 -34,60 -76,115 -127,163 -35,33 -75,66 -117,96 -40,29 -81,56 -122,78 -57,31 -116,51 -177,65 -59,14 -118,22 -177,29 -82,10 -164,1 -241,-24 -81,-26 -157,-69 -223,-124 -60,-49 -141,-126 -198,-212 -43,-64 -72,-133 -71,-202 0,-24 17,-45 41,-50 119,-22 239,-63 359,-103zm337 -104c21,-6 43,-13 64,-19 -5,10 -6,22 -3,33 3,10 4,20 4,29 0,20 -5,39 -15,53 -10,13 -24,23 -43,28 -7,2 -14,3 -22,3 14,-9 24,-22 30,-37 8,-19 8,-39 4,-59 -2,-13 -9,-23 -19,-30z"/>
  <path class="fil0" d="M-1628 16692c-6,27 -33,43 -60,37 -27,-6 -43,-33 -37,-60 12,-51 4,-111 -3,-172l0 -2c-7,-50 -13,-101 -10,-151l1 -20c8,-124 16,-246 17,-367 1,-104 0,-204 -7,-305 -7,-99 -19,-197 -40,-299 -9,-46 -20,-97 -34,-146 -14,-46 -31,-91 -55,-128 -11,-18 -22,-29 -31,-34 -4,-2 -8,-3 -11,-3 -4,1 -9,4 -14,10 -11,12 -20,32 -27,59 -7,27 -34,43 -60,37 -27,-7 -43,-34 -37,-60 10,-42 27,-77 49,-101 20,-22 43,-37 68,-42 27,-6 54,-1 81,14 23,13 46,36 66,68 29,46 50,99 66,153 15,52 26,105 36,154 22,107 35,209 42,312 7,101 8,204 7,312 -1,127 -9,249 -17,373l-1 20c-3,42 3,87 9,132l0 2c9,69 18,139 1,208z"/>
  <path class="fil0" d="M-166 18887c-26,-10 -39,-39 -29,-64 10,-26 39,-39 64,-29 27,10 63,14 101,14 48,0 98,-8 138,-18 27,-7 54,10 61,36 7,27 -10,54 -36,61 -46,12 -105,20 -162,21 -49,0 -98,-5 -137,-20z"/>
  <path class="fil0" d="M-1599 14374c-13,24 -44,33 -68,20 -24,-13 -33,-44 -20,-68 66,-120 150,-228 247,-324 105,-104 223,-194 349,-270 60,-36 123,-70 187,-100 65,-31 131,-59 199,-83 17,-6 35,-13 53,-20 109,-42 252,-98 360,-74 27,6 44,32 38,59 -6,27 -32,44 -59,38 -80,-17 -207,32 -303,69 -20,8 -39,15 -55,21 -65,23 -128,50 -191,80 -60,29 -120,61 -178,95 -119,72 -232,157 -330,255 -90,89 -168,190 -229,301z"/>
  <path class="fil0" d="M-1525 15606c-9,-26 4,-55 30,-64 26,-9 55,4 64,30 18,51 14,94 11,133 -3,33 -6,60 34,79 40,19 90,42 139,66 106,51 212,102 321,144 120,46 275,99 434,153 153,52 307,104 438,154 26,10 39,38 29,64 -10,26 -38,39 -64,29 -127,-48 -282,-101 -435,-153 -157,-53 -312,-106 -437,-154 -112,-43 -220,-95 -328,-147 -43,-20 -85,-41 -138,-65 -103,-48 -98,-106 -91,-178 3,-28 5,-59 -6,-90z"/>
  <path class="fil0" d="M1495 15572c9,-26 38,-40 64,-30 26,9 40,38 30,64 -11,31 -8,62 -6,90 7,72 12,130 -91,178 -53,24 -95,45 -138,65 -108,52 -216,104 -328,147 -125,48 -280,101 -437,154 -153,52 -307,104 -435,153 -26,10 -55,-3 -64,-29 -10,-26 3,-55 29,-64 130,-50 285,-102 438,-154 158,-54 314,-107 434,-153 109,-42 215,-93 321,-144 49,-24 99,-48 139,-66 39,-18 37,-45 34,-79 -4,-38 -7,-81 11,-133z"/>
 </g>
</svg>
