<?xml version="1.0" encoding="UTF-8"?>
<!DOCTYPE svg PUBLIC "-//W3C//DTD SVG 1.1//EN" "http://www.w3.org/Graphics/SVG/1.1/DTD/svg11.dtd">
<!-- Creator: CorelDRAW X6 -->
<svg xmlns="http://www.w3.org/2000/svg" xml:space="preserve" width="200mm" height="200mm" version="1.1" style="shape-rendering:geometricPrecision; text-rendering:geometricPrecision; image-rendering:optimizeQuality; fill-rule:evenodd; clip-rule:evenodd"
viewBox="0 0 20000 20000"
 xmlns:xlink="http://www.w3.org/1999/xlink">
 <defs>
  <style type="text/css">
   <![CDATA[
    .str0 {stroke:black;stroke-width:52.92;stroke-linecap:round;stroke-linejoin:round}
    .fil0 {fill:none;fill-rule:nonzero}
   ]]>
  </style>
 </defs>
 <g id="Layer_x0020_1">
  <metadata id="CorelCorpID_0Corel-Layer"/>
  <path class="fil0 str0" d="M487 19300l0 -219c160,-10 319,-42 449,-138 126,-92 253,-276 335,-411 53,-88 53,-167 47,-263 -8,-129 23,-275 67,-396 60,-164 171,-332 172,-513 2,-183 -163,-212 -299,-251l-25 0c121,-90 306,-108 400,-231 126,-164 26,-428 155,-590 38,-47 90,-79 136,-119 131,-115 193,-288 234,-457 5,-20 10,-40 14,-60 98,-433 141,-964 -54,-1378 -165,-352 -496,-595 -841,-752 -362,-165 -762,-237 -1158,-246 -465,-10 -944,56 -1350,284 -687,385 -1069,1209 -1017,1994 20,307 113,632 354,824 5,4 10,8 15,11 76,58 164,112 191,203 30,102 -30,214 3,315 41,125 191,158 310,224l-8 0c-136,39 -222,68 -220,251 2,181 113,349 172,513 51,139 62,261 68,407 5,119 25,207 100,304 65,83 152,147 241,202 117,71 230,159 358,208 59,23 118,39 176,51l0 234 -1212 0c-276,0 -500,224 -500,500l0 400c0,276 224,500 500,500l3400 0c276,0 500,-224 500,-500l0 -400c0,-276 -224,-500 -500,-500l-1213 0z"/>
 </g>
</svg>
