<?xml version="1.0" encoding="UTF-8"?>
<!DOCTYPE svg PUBLIC "-//W3C//DTD SVG 1.1//EN" "http://www.w3.org/Graphics/SVG/1.1/DTD/svg11.dtd">
<!-- Creator: CorelDRAW X6 -->
<svg xmlns="http://www.w3.org/2000/svg" xml:space="preserve" width="200mm" height="200mm" version="1.1" style="shape-rendering:geometricPrecision; text-rendering:geometricPrecision; image-rendering:optimizeQuality; fill-rule:evenodd; clip-rule:evenodd"
viewBox="0 0 20000 20000"
 xmlns:xlink="http://www.w3.org/1999/xlink">
 <defs>
  <style type="text/css">
   <![CDATA[
    .str0 {stroke:black;stroke-width:52.92;stroke-linecap:round;stroke-linejoin:round}
    .fil0 {fill:none}
   ]]>
  </style>
 </defs>
 <g id="Layer_x0020_1">
  <metadata id="CorelCorpID_0Corel-Layer"/>
  <path class="fil0 str0" d="M-1450 20973l0 -525 -641 0c44,99 37,257 57,361 26,130 75,274 85,403 -114,-41 -238,-68 -354,-102 -99,137 -17,375 19,519 -177,-20 -342,-90 -508,-128 -12,-3 -14,20 -26,18 3,8 -3,-8 0,0 -171,117 -361,201 -560,237 -98,17 -201,22 -294,-11 -53,-20 -102,-51 -149,-83 -74,-49 -155,-114 -156,-203 0,-79 67,-145 142,-171 74,-26 155,-24 234,-28 76,-4 153,-14 228,-29 73,-15 150,-37 200,-92 44,-49 43,-124 19,-183 -2,-3 -3,-7 -6,-8 -3,-2 -7,-1 -11,-1 -54,10 -109,24 -165,27 -70,5 -141,8 -211,10 -141,3 -283,1 -423,-8 -214,-13 -426,-41 -636,-82 -71,-14 -141,-30 -211,-47 -91,-22 -185,-49 -253,-114 -68,-64 -98,-177 -43,-253 45,-61 128,-78 203,-87 98,-11 196,-16 294,-18 283,-5 567,15 848,-18 23,-2 47,-6 64,-20 38,-31 24,-98 -16,-129 -39,-30 -92,-34 -142,-38 -326,-22 -650,-70 -969,-142 -119,-27 -250,-67 -310,-173 -26,-46 -35,-105 -12,-152 24,-49 75,-79 126,-97 123,-46 257,-47 388,-50 324,-9 648,-35 969,-79 39,-5 89,-21 83,-70 -8,-70 -93,-92 -151,-101 -60,-9 -121,-7 -181,-15 -157,-19 -313,-39 -470,-61 -89,-12 -178,-26 -267,-38 -74,-10 -152,-15 -219,-53 -79,-45 -138,-139 -112,-227 27,-91 129,-135 222,-155 157,-34 332,-41 492,-48 143,-7 286,-10 429,-11 78,-1 156,3 232,-1 8,-68 90,-149 124,-193 119,-152 256,-282 463,-274 -75,133 -84,271 -120,413 213,-146 461,-255 730,-235 -58,159 -171,361 -105,538 158,-83 391,-212 571,-205 -81,178 -245,535 -176,730l0 0 677 0 0 -400c0,-276 224,-500 500,-500l400 0c276,0 500,224 500,500l0 1900c0,276 -224,500 -500,500l-400 0c-276,0 -500,-224 -500,-500z"/>
  <path class="fil0 str0" d="M1450 20448l641 0c-44,99 -37,257 -57,361 -26,130 -75,274 -85,403 114,-41 238,-68 354,-102 99,137 17,375 -19,519 177,-20 342,-90 508,-128 12,-3 14,20 26,18 -3,8 3,-8 0,0 171,117 361,201 560,237 98,17 201,22 294,-11 53,-20 102,-51 149,-83 74,-49 155,-114 156,-203 0,-79 -67,-145 -142,-171 -74,-26 -155,-24 -234,-28 -76,-4 -153,-14 -228,-29 -73,-15 -150,-37 -200,-92 -44,-49 -43,-124 -19,-183 2,-3 3,-7 6,-8 3,-2 7,-1 11,-1 55,10 109,24 165,27 70,5 141,8 211,10 141,3 283,1 423,-8 214,-13 426,-41 636,-82 71,-14 141,-30 211,-47 91,-22 185,-49 253,-114 68,-64 98,-177 43,-253 -45,-61 -128,-78 -203,-87 -98,-11 -196,-16 -294,-18 -283,-5 -567,15 -848,-18 -23,-2 -47,-6 -64,-20 -38,-31 -24,-98 16,-129 39,-30 92,-34 142,-38 326,-22 650,-70 969,-142 119,-27 250,-67 310,-173 26,-46 35,-105 12,-152 -24,-49 -75,-79 -126,-97 -123,-46 -257,-47 -388,-50 -324,-9 -648,-35 -969,-79 -39,-5 -89,-21 -83,-70 8,-70 93,-92 151,-101 60,-9 121,-7 181,-15 157,-19 313,-39 470,-61 89,-12 178,-26 267,-38 74,-10 152,-15 219,-53 79,-45 138,-139 112,-227 -27,-91 -129,-135 -222,-155 -157,-34 -332,-41 -492,-48 -143,-7 -286,-10 -429,-11 -78,-1 -156,3 -232,-1 -8,-68 -90,-149 -124,-193 -119,-152 -256,-282 -463,-274 75,133 84,271 120,413 -213,-146 -461,-255 -730,-235 58,159 171,361 105,538 -158,-83 -391,-212 -571,-205 81,178 245,535 176,730l0 0 -677 0 0 -400c0,-276 -224,-500 -500,-500l-400 0c-276,0 -500,224 -500,500l0 1900c0,276 224,500 500,500l400 0c276,0 500,-224 500,-500l0 -525z"/>
 </g>
</svg>
