<?xml version="1.0" encoding="UTF-8"?>
<!DOCTYPE svg PUBLIC "-//W3C//DTD SVG 1.1//EN" "http://www.w3.org/Graphics/SVG/1.1/DTD/svg11.dtd">
<!-- Creator: CorelDRAW X6 -->
<svg xmlns="http://www.w3.org/2000/svg" xml:space="preserve" width="200mm" height="200mm" version="1.1" style="shape-rendering:geometricPrecision; text-rendering:geometricPrecision; image-rendering:optimizeQuality; fill-rule:evenodd; clip-rule:evenodd"
viewBox="0 0 20000 20000"
 xmlns:xlink="http://www.w3.org/1999/xlink">
 <defs>
  <style type="text/css">
   <![CDATA[
    .fil0 {fill:blue;fill-rule:nonzero}
   ]]>
  </style>
 </defs>
 <g id="Layer_x0020_1">
  <metadata id="CorelCorpID_0Corel-Layer"/>
  <path class="fil0" d="M-6413 20861c-26,9 -55,-4 -64,-30 -9,-26 4,-55 30,-64 222,-79 391,-170 531,-246 163,-88 288,-155 418,-163 28,-2 51,20 53,47 2,28 -20,51 -47,53 -107,6 -224,69 -376,151 -143,77 -316,170 -545,252z"/>
  <path class="fil0" d="M-3154 21615c13,24 4,55 -20,68 -24,13 -55,4 -68,-20 -78,-145 -96,-231 -123,-366l0 0 0 0c-6,-30 -13,-62 -19,-90 -23,-109 -76,-251 -156,-389 -65,-113 -147,-222 -245,-308l-9 -8c-45,-39 -106,-92 -133,-146 -12,-25 -3,-55 22,-67 25,-12 55,-3 67,22 18,36 71,82 110,116l9 8c107,93 196,212 265,333 85,147 142,300 167,418 8,38 14,66 19,92l0 0c25,125 41,205 113,338z"/>
  <path class="fil0" d="M-2500 22523c2,28 -19,51 -47,53 -28,2 -51,-19 -53,-47 0,-2 -34,-671 -546,-1078 -22,-17 -25,-49 -8,-70 17,-22 49,-25 70,-8 547,435 583,1149 583,1151z"/>
  <path class="fil0" d="M-3639 22046c26,10 39,39 29,64 -10,26 -39,39 -64,29 -4,-1 -1368,-515 -1368,-1294 0,-28 22,-50 50,-50 28,0 50,22 50,50 0,709 1300,1199 1304,1200z"/>
  <path class="fil0" d="M-5257 21844c21,18 23,50 4,70 -18,21 -50,23 -70,4 -16,-14 -30,-29 -45,-45 -45,-46 -97,-100 -160,-102 -103,-2 -191,3 -270,7 -185,10 -330,18 -559,-63 -26,-9 -40,-38 -30,-64 9,-26 38,-40 64,-30 211,75 347,67 521,58 80,-4 169,-9 277,-7 105,2 173,72 231,132 14,15 28,29 40,39z"/>
  <path class="fil0" d="M-6858 20999c27,7 42,35 35,61 -7,27 -35,42 -61,35 -106,-29 -192,-77 -251,-151 -59,-75 -90,-173 -83,-303 1,-28 25,-49 52,-47 28,1 49,25 47,52 -5,103 18,180 62,236 45,56 113,93 199,117z"/>
  <path class="fil0" d="M-3809 17862c10,-26 38,-39 64,-29 26,10 39,38 29,64 -34,89 -120,151 -222,189 -110,42 -240,57 -336,51 -15,11 -35,14 -53,6 -23,-11 -34,-37 -26,-61 0,-1 0,-3 0,-4 4,-27 29,-46 56,-43 85,11 215,-1 323,-42 77,-29 142,-73 164,-131z"/>
  <path class="fil0" d="M-3529 18057c15,23 9,54 -14,69 -23,15 -54,9 -69,-14 -30,-45 -17,-82 -4,-117 4,-10 7,-20 7,-23 -1,-7 -15,-19 -28,-32 -11,-11 -23,-21 -34,-35 -32,-39 -56,-84 -73,-131 -17,-48 -27,-99 -29,-151 -1,-28 21,-51 48,-52 28,-1 51,21 52,48 2,41 9,82 23,120 13,37 32,72 57,102 6,7 15,16 24,24 26,24 51,47 59,88 5,29 -3,51 -11,74 -4,12 -9,25 -6,29z"/>
  <path class="fil0" d="M-3306 17880c11,-25 40,-38 65,-27 25,11 38,40 27,65 -3,8 -9,22 -15,38 -41,107 -121,317 -229,330 -36,4 -75,-2 -111,-16 -39,-14 -75,-37 -101,-61 -35,-33 -78,-117 -92,-191 -6,-31 -7,-62 -2,-89 7,-35 25,-62 57,-78 24,-12 54,-15 92,-8 27,6 44,32 39,59 -6,27 -32,44 -59,39 -14,-3 -23,-3 -28,-1 -1,1 -3,4 -4,9 -3,13 -2,30 2,50 11,55 40,116 63,138 16,15 40,30 66,40 22,8 45,13 64,10 48,-6 114,-178 148,-266 6,-16 11,-29 16,-41z"/>
  <path class="fil0" d="M-3014 18114c6,17 3,36 -10,51 -9,10 -20,15 -32,16l-1 1c4,3 6,6 6,7 -16,18 -32,35 -54,37l0 0c-33,3 -53,-11 -56,-46 -1,-12 2,-24 9,-34l0 0c22,-31 67,-99 98,-163 18,-36 31,-68 30,-86 -1,-63 -57,-162 -95,-230l0 0 0 0 -11 -19c0,-1 -1,-2 -1,-2 -12,-21 -30,-44 -47,-66 -24,-31 -48,-62 -65,-97 -12,-27 -17,-52 -22,-76 -6,-33 -13,-64 -47,-74 -26,-8 -42,-35 -34,-62 8,-26 35,-42 62,-34 93,27 105,87 117,151 4,19 8,39 15,53 12,25 32,51 53,78 20,25 39,50 55,78 1,1 1,2 2,3l11 19 0 0c44,77 107,189 108,278 1,36 -17,83 -41,131 -15,29 -32,60 -48,87z"/>
  <path class="fil0" d="M-2802 18089c16,23 10,54 -12,69 -23,16 -54,10 -69,-12 -29,-41 3,-97 36,-153 16,-28 33,-57 36,-71 8,-40 -24,-91 -53,-138 -11,-18 -22,-35 -32,-54 -16,-30 -58,-94 -100,-158l0 0 0 0c-32,-48 -64,-97 -88,-137 -14,-24 -7,-54 17,-69 24,-14 54,-7 69,17 21,35 54,85 87,134l0 0c44,68 88,134 105,167 7,14 18,30 28,47 39,63 82,132 66,211 -6,29 -27,65 -47,100 -17,29 -48,35 -41,46z"/>
  <path class="fil0" d="M-3209 17899c0,28 -22,50 -50,50 -28,0 -50,-22 -50,-50 0,-6 1,-12 3,-21 4,-19 13,-60 12,-66 -3,-12 -20,-30 -36,-48 -13,-14 -26,-28 -36,-43 -15,-22 -28,-41 -41,-60 -29,-42 -58,-84 -84,-127 -9,-16 -20,-49 -32,-86l-1 -2c-12,-37 -25,-78 -33,-96 -6,-2 -11,-6 -16,-11 -20,-19 -20,-51 -1,-71 28,-28 55,-25 81,1l0 0 0 0 0 0c24,23 45,89 63,146l1 2c10,31 19,59 23,66 24,41 52,81 80,121 15,22 30,43 42,62 6,9 16,19 25,30 25,27 51,55 60,93 6,27 -6,83 -11,109 0,1 -1,1 -1,0l0 0 0 1zm0 -1c0,-1 0,-1 0,0l0 0z"/>
  <path class="fil0" d="M-3160 18495c10,25 -2,55 -27,65 -25,10 -55,-2 -65,-27 -26,-64 -43,-146 -29,-218 12,-63 46,-118 112,-151 30,-15 96,-25 158,-17 48,6 97,22 132,54 20,19 22,50 3,71 -19,20 -50,22 -71,3 -18,-16 -47,-25 -77,-29 -44,-5 -85,-1 -101,7 -34,17 -52,47 -58,81 -10,52 3,113 23,162z"/>
  <path class="fil0" d="M-3218 18220c28,1 49,24 48,51 -1,28 -24,49 -51,48 -42,-1 -78,-8 -112,-20 -2,-1 -3,-1 -4,-2 -33,-13 -65,-32 -97,-58 -21,-17 -25,-49 -7,-70 17,-21 49,-25 70,-7 24,20 47,34 69,43 1,0 2,1 4,1 25,9 51,13 81,14z"/>
  <path class="fil0" d="M-3695 17781c21,-18 53,-15 70,7 18,21 15,53 -7,70 -12,10 -26,18 -39,24 -52,23 -107,15 -158,-10 -45,-22 -86,-58 -118,-96 -20,-25 -37,-51 -47,-75 -11,-25 0,-55 26,-66 25,-11 55,0 66,26 7,16 18,33 33,51 23,28 53,54 85,70 26,13 52,18 74,8 5,-2 11,-6 16,-10z"/>
  <path class="fil0" d="M-2914 18401c-25,34 -49,59 -81,76 -33,18 -71,26 -120,24 -28,-1 -49,-24 -48,-52 0,-7 2,-14 5,-21l0 0c11,-22 21,-45 30,-68 9,-24 18,-48 26,-72l0 -1c1,-2 2,-7 3,-11 9,-37 18,-79 73,-86 20,-3 39,1 55,10 23,12 41,33 52,56 10,20 16,43 19,64 3,27 0,53 -9,71 -2,3 -4,7 -6,9zm-114 -21c11,-9 21,-20 32,-35 0,-2 -1,-6 -2,-12 -1,-8 -3,-16 -6,-24 -1,3 -2,6 -3,9 0,1 -1,2 -1,3 -7,20 -14,40 -21,59z"/>
  <path class="fil0" d="M-4592 18171c16,-22 47,-27 70,-11 22,16 27,47 11,70 -97,134 -200,267 -310,398 -109,131 -225,261 -347,391 -19,20 -50,21 -70,2 -20,-19 -21,-50 -2,-70 120,-127 235,-256 343,-386 108,-130 210,-261 305,-393z"/>
  <path class="fil0" d="M-5278 20100c-1,28 -24,49 -51,48 -28,-1 -49,-24 -48,-51 1,-44 2,-86 0,-127 -1,-40 -4,-79 -9,-116 -3,-27 16,-52 43,-56 27,-3 52,16 56,43 5,40 8,82 10,125 1,43 1,88 0,133z"/>
  <path class="fil0" d="M6447 20767c26,9 40,38 30,64 -9,26 -38,40 -64,30 -229,-82 -402,-175 -545,-252 -152,-82 -269,-145 -376,-151 -28,-2 -49,-25 -47,-53 2,-28 25,-49 53,-47 130,8 255,75 418,163 140,75 309,167 531,246z"/>
  <path class="fil0" d="M3242 21662c-13,24 -44,33 -68,20 -24,-13 -33,-44 -20,-68 72,-133 88,-212 113,-338l0 0c5,-26 11,-53 19,-92 25,-118 82,-270 167,-418 70,-121 159,-240 265,-333l9 -8c39,-34 91,-80 110,-116 12,-25 42,-34 67,-22 25,12 34,42 22,67 -27,54 -88,107 -133,146l-9 8c-98,86 -180,195 -245,308 -79,138 -132,280 -156,389 -6,28 -13,60 -19,90l0 0 0 0c-27,135 -44,221 -123,366z"/>
  <path class="fil0" d="M2599 22529c-2,28 -25,48 -53,47 -28,-2 -48,-25 -47,-53 0,-2 36,-715 583,-1151 22,-17 53,-14 70,8 17,22 14,53 -8,70 -512,407 -546,1076 -546,1078z"/>
  <path class="fil0" d="M3674 22139c-26,10 -55,-3 -64,-29 -10,-26 3,-55 29,-64 4,-1 1304,-491 1304,-1200 0,-28 22,-50 50,-50 28,0 50,22 50,50 0,779 -1364,1292 -1368,1294z"/>
  <path class="fil0" d="M5323 21918c-21,18 -52,16 -70,-4 -18,-21 -16,-52 4,-70 12,-10 25,-24 40,-39 58,-60 125,-130 231,-132 108,-2 197,3 277,7 174,10 310,17 521,-58 26,-9 55,4 64,30 9,26 -4,55 -30,64 -229,81 -374,73 -559,63 -80,-4 -167,-9 -270,-7 -64,1 -116,55 -160,102 -15,16 -30,31 -45,45z"/>
  <path class="fil0" d="M6884 21096c-27,7 -54,-9 -61,-35 -7,-27 9,-54 35,-61 86,-23 154,-61 199,-117 44,-56 67,-133 62,-236 -1,-28 20,-51 47,-52 28,-1 51,20 52,47 6,129 -24,228 -83,303 -59,74 -145,122 -251,151z"/>
  <path class="fil0" d="M3715 17897c-10,-26 3,-55 29,-64 26,-10 55,3 64,29 22,58 86,102 164,131 108,41 238,53 323,42 27,-4 52,15 56,43 0,1 0,3 0,4 8,24 -3,50 -26,61 -18,9 -38,6 -53,-6 -97,6 -227,-9 -336,-51 -102,-39 -188,-100 -222,-189z"/>
  <path class="fil0" d="M3612 18112c-15,23 -46,29 -69,14 -23,-15 -29,-46 -14,-69 3,-4 -2,-16 -6,-29 -8,-23 -16,-45 -11,-74 7,-41 33,-64 59,-88 9,-8 18,-16 24,-24 25,-31 44,-65 57,-102 14,-39 22,-79 23,-120 1,-28 24,-49 52,-48 28,1 49,24 48,52 -2,51 -12,103 -29,151 -17,47 -42,92 -73,131 -11,14 -23,24 -34,35 -14,13 -27,25 -28,32 0,3 3,13 7,23 13,35 26,72 -4,117z"/>
  <path class="fil0" d="M3213 17918c-11,-25 2,-55 27,-65 25,-11 55,2 65,27 5,12 10,25 16,41 34,88 100,260 148,266 19,2 42,-2 64,-10 26,-10 50,-24 66,-40 23,-22 52,-82 63,-138 4,-19 5,-37 2,-50 -1,-5 -2,-9 -4,-9 -5,-2 -14,-2 -28,1 -27,6 -53,-12 -59,-39 -6,-27 12,-53 39,-59 38,-8 68,-4 92,8 32,16 50,44 57,78 6,27 4,57 -2,89 -14,74 -57,158 -92,191 -26,24 -62,47 -101,61 -36,13 -75,20 -111,16 -107,-13 -188,-223 -229,-330 -6,-16 -12,-30 -15,-38z"/>
  <path class="fil0" d="M3057 18180c-12,-1 -24,-6 -32,-16 -13,-14 -16,-34 -10,-51 -17,-28 -34,-58 -48,-87 -24,-48 -41,-96 -41,-131 1,-89 65,-201 108,-278l0 0 11 -19c1,-1 1,-2 2,-3 16,-28 36,-53 55,-78 21,-27 41,-53 53,-78 7,-15 11,-34 15,-53 13,-63 24,-123 117,-151 26,-8 54,7 62,34 8,26 -7,54 -34,62 -35,10 -41,41 -47,74 -5,25 -10,50 -22,76 -16,35 -40,66 -65,97 -17,22 -35,44 -47,66l-1 3 -11 19 0 0 0 0c-38,68 -94,167 -95,230 0,18 13,50 30,86 31,63 77,132 98,163l0 0c7,9 10,21 9,34 -4,36 -23,50 -56,46l0 0c-23,-2 -38,-19 -54,-37 -1,-1 1,-3 6,-7l-1 -1z"/>
  <path class="fil0" d="M2884 18146c-16,23 -47,28 -69,12 -23,-16 -28,-47 -12,-69 8,-11 -24,-17 -41,-46 -20,-35 -41,-71 -47,-100 -16,-79 27,-148 66,-211 10,-17 21,-33 28,-47 17,-33 61,-99 105,-167l0 0c32,-49 65,-99 87,-134 14,-24 45,-31 69,-17 24,14 31,45 17,69 -25,40 -57,89 -88,137l0 0 0 0c-43,65 -84,128 -100,158 -10,18 -20,36 -32,54 -29,47 -61,98 -53,138 3,14 19,43 36,71 32,56 64,112 36,153z"/>
  <path class="fil0" d="M3309 17899c0,28 -22,50 -50,50 -28,0 -50,-22 -50,-50l0 -1 0 0c0,1 0,2 -1,0 -5,-26 -18,-82 -11,-109 9,-37 35,-66 60,-93 10,-11 19,-21 25,-30 13,-19 27,-40 42,-62 28,-40 55,-80 80,-121 4,-6 13,-35 23,-66l1 -2c18,-57 39,-122 63,-146l0 0 0 0 0 0c26,-26 54,-29 81,-1 19,20 19,51 -1,71 -5,5 -10,8 -16,11 -8,18 -21,59 -33,96l-1 2c-12,37 -23,71 -32,86 -25,43 -55,85 -84,127 -13,19 -27,39 -41,60 -10,14 -22,28 -36,43 -16,17 -33,36 -36,48 -1,5 8,47 12,66 2,10 3,16 3,21zm-100 -1c0,-1 0,-1 0,0l0 0z"/>
  <path class="fil0" d="M3253 18533c-10,25 -40,38 -65,27 -25,-10 -38,-40 -27,-65 20,-49 33,-110 23,-162 -7,-34 -24,-64 -58,-81 -16,-8 -57,-13 -101,-7 -30,4 -60,13 -77,29 -20,19 -52,17 -71,-3 -19,-20 -17,-52 3,-71 35,-32 84,-48 132,-54 62,-8 127,2 158,17 66,33 100,88 112,151 14,72 -2,155 -29,218z"/>
  <path class="fil0" d="M3221 18319c-28,1 -51,-21 -51,-48 -1,-28 21,-51 48,-51 30,-1 56,-5 81,-14 1,0 2,-1 4,-1 23,-9 45,-23 69,-43 21,-17 53,-14 70,7 17,21 14,53 -7,70 -32,27 -64,45 -97,58 -1,1 -3,1 -4,2 -35,13 -71,19 -112,20z"/>
  <path class="fil0" d="M3631 17858c-21,-18 -24,-49 -7,-70 18,-21 49,-24 70,-7 5,4 11,8 16,10 22,10 48,4 74,-8 31,-16 62,-42 85,-70 15,-18 26,-36 33,-51 11,-25 41,-37 66,-26 25,11 37,41 26,66 -11,24 -27,50 -47,75 -31,38 -73,74 -118,96 -51,25 -106,33 -158,10 -14,-6 -27,-14 -39,-24z"/>
  <path class="fil0" d="M2996 18345c11,14 21,26 32,35 -7,-19 -14,-39 -21,-59l-1 -3c-1,-3 -2,-6 -3,-9 -3,8 -5,16 -6,24 -1,6 -1,11 -2,12zm-2 132c-31,-17 -56,-42 -81,-76 -2,-3 -5,-6 -6,-9 -9,-18 -12,-44 -9,-71 3,-21 9,-44 19,-64 12,-24 29,-44 52,-56 17,-9 35,-12 55,-10 55,7 65,49 73,86 1,5 2,9 3,11l0 1c8,24 16,48 26,72 9,23 19,46 30,68l0 0c3,6 5,13 5,21 1,28 -21,51 -48,52 -50,2 -87,-6 -120,-24z"/>
  <path class="fil0" d="M4511 18229c-16,-22 -11,-53 11,-70 22,-16 53,-11 70,11 96,132 197,263 305,393 109,130 223,259 343,386 19,20 18,51 -2,70 -20,19 -51,18 -70,-2 -122,-129 -238,-260 -347,-391 -110,-132 -213,-264 -310,-398z"/>
  <path class="fil0" d="M5377 20097c1,28 -21,51 -48,51 -28,1 -51,-21 -51,-48 -2,-46 -2,-90 0,-133 1,-43 4,-85 10,-125 3,-27 28,-47 56,-43 27,3 47,28 43,56 -5,37 -8,75 -9,116 -1,41 -1,83 0,127z"/>
 </g>
</svg>
