<?xml version="1.0" encoding="UTF-8"?>
<!DOCTYPE svg PUBLIC "-//W3C//DTD SVG 1.1//EN" "http://www.w3.org/Graphics/SVG/1.1/DTD/svg11.dtd">
<!-- Creator: CorelDRAW X6 -->
<svg xmlns="http://www.w3.org/2000/svg" xml:space="preserve" width="200mm" height="200mm" version="1.1" style="shape-rendering:geometricPrecision; text-rendering:geometricPrecision; image-rendering:optimizeQuality; fill-rule:evenodd; clip-rule:evenodd"
viewBox="0 0 20000 20000"
 xmlns:xlink="http://www.w3.org/1999/xlink">
 <defs>
  <style type="text/css">
   <![CDATA[
    .fil0 {fill:blue;fill-rule:nonzero}
   ]]>
  </style>
 </defs>
 <g id="Layer_x0020_1">
  <metadata id="CorelCorpID_0Corel-Layer"/>
  <path class="fil0" d="M1577 20158c0,28 -22,50 -50,50 -28,0 -50,-22 -50,-50l0 -933c0,-28 22,-50 50,-50 28,0 50,22 50,50l0 933z"/>
  <path class="fil0" d="M1868 20158c0,28 -22,50 -50,50 -28,0 -50,-22 -50,-50l0 -933c0,-28 22,-50 50,-50 28,0 50,22 50,50l0 933z"/>
  <path class="fil0" d="M2704 20763c28,0 50,22 50,50 0,28 -22,50 -50,50l-258 0c-28,0 -50,-22 -50,-50 0,-28 22,-50 50,-50l258 0z"/>
  <path class="fil0" d="M2447 20763c28,0 50,22 50,50 0,28 -22,50 -50,50 -101,0 -193,-41 -260,-108 -67,-67 -108,-158 -108,-260 0,-28 22,-50 50,-50 28,0 50,22 50,50 0,74 30,140 79,189 49,49 115,79 189,79z"/>
  <path class="fil0" d="M3414 18707c-28,0 -50,-22 -50,-50 0,-28 22,-50 50,-50 101,0 193,41 260,108 67,67 108,158 108,260 0,28 -22,50 -50,50 -28,0 -50,-22 -50,-50 0,-74 -30,-140 -79,-189 -49,-48 -115,-79 -189,-79z"/>
  <path class="fil0" d="M3682 18974c0,-28 22,-50 50,-50 28,0 50,22 50,50l0 1521c0,28 -22,50 -50,50 -28,0 -50,-22 -50,-50l0 -1521z"/>
  <path class="fil0" d="M3682 20496c0,-28 22,-50 50,-50 28,0 50,22 50,50 0,101 -41,193 -108,260 -67,67 -158,108 -260,108 -28,0 -50,-22 -50,-50 0,-28 22,-50 50,-50 74,0 140,-30 189,-79 49,-49 79,-115 79,-189z"/>
  <path class="fil0" d="M2788 19013c28,0 50,22 50,50 0,28 -22,50 -50,50l-609 0 0 1200 609 0c28,0 50,22 50,50 0,28 -22,50 -50,50l-659 0c-28,0 -50,-22 -50,-50l0 -1300c0,-28 22,-50 50,-50l659 0z"/>
  <path class="fil0" d="M2788 20413c-28,0 -50,-22 -50,-50 0,-28 22,-50 50,-50 90,0 171,-36 230,-95 59,-59 95,-140 95,-230 0,-28 22,-50 50,-50 28,0 50,22 50,50 0,117 -48,224 -124,301 -77,77 -183,124 -301,124z"/>
  <path class="fil0" d="M3213 19988c0,28 -22,50 -50,50 -28,0 -50,-22 -50,-50l0 -550c0,-28 22,-50 50,-50 28,0 50,22 50,50l0 550z"/>
  <path class="fil0" d="M3213 19438c0,28 -22,50 -50,50 -28,0 -50,-22 -50,-50 0,-90 -36,-171 -95,-230 -59,-59 -140,-95 -230,-95 -28,0 -50,-22 -50,-50 0,-28 22,-50 50,-50 117,0 224,48 301,124 77,77 124,183 124,301z"/>
  <path class="fil0" d="M-1477 20158c0,28 -22,50 -50,50 -28,0 -50,-22 -50,-50l0 -933c0,-28 22,-50 50,-50 28,0 50,22 50,50l0 933z"/>
  <path class="fil0" d="M-1768 20158c0,28 -22,50 -50,50 -28,0 -50,-22 -50,-50l0 -933c0,-28 22,-50 50,-50 28,0 50,22 50,50l0 933z"/>
  <path class="fil0" d="M-2704 20863c-28,0 -50,-22 -50,-50 0,-28 22,-50 50,-50l258 0c28,0 50,22 50,50 0,28 -22,50 -50,50l-258 0z"/>
  <path class="fil0" d="M-2447 20863c-28,0 -50,-22 -50,-50 0,-28 22,-50 50,-50 74,0 140,-30 189,-79 49,-49 79,-115 79,-189 0,-28 22,-50 50,-50 28,0 50,22 50,50 0,101 -41,193 -108,260 -67,67 -158,108 -260,108z"/>
  <path class="fil0" d="M-3414 18607c28,0 50,22 50,50 0,28 -22,50 -50,50 -74,0 -140,30 -189,79 -49,49 -79,115 -79,189 0,28 -22,50 -50,50 -28,0 -50,-22 -50,-50 0,-101 41,-193 108,-260 67,-67 158,-108 260,-108z"/>
  <path class="fil0" d="M-3782 18974c0,-28 22,-50 50,-50 28,0 50,22 50,50l0 1521c0,28 -22,50 -50,50 -28,0 -50,-22 -50,-50l0 -1521z"/>
  <path class="fil0" d="M-3782 20496c0,-28 22,-50 50,-50 28,0 50,22 50,50 0,74 30,140 79,189 49,49 115,79 189,79 28,0 50,22 50,50 0,28 -22,50 -50,50 -101,0 -193,-41 -260,-108 -67,-67 -108,-158 -108,-260z"/>
  <path class="fil0" d="M-2788 19113c-28,0 -50,-22 -50,-50 0,-28 22,-50 50,-50l659 0c28,0 50,22 50,50l0 1300c0,28 -22,50 -50,50l-659 0c-28,0 -50,-22 -50,-50 0,-28 22,-50 50,-50l609 0 0 -1200 -609 0z"/>
  <path class="fil0" d="M-2788 20313c28,0 50,22 50,50 0,28 -22,50 -50,50 -117,0 -224,-48 -301,-124 -77,-77 -124,-183 -124,-301 0,-28 22,-50 50,-50 28,0 50,22 50,50 0,90 36,171 95,230 59,59 140,95 230,95z"/>
  <path class="fil0" d="M-3113 19988c0,28 -22,50 -50,50 -28,0 -50,-22 -50,-50l0 -550c0,-28 22,-50 50,-50 28,0 50,22 50,50l0 550z"/>
  <path class="fil0" d="M-3113 19438c0,28 -22,50 -50,50 -28,0 -50,-22 -50,-50 0,-117 48,-224 124,-301 77,-77 183,-124 301,-124 28,0 50,22 50,50 0,28 -22,50 -50,50 -90,0 -171,36 -230,95 -59,59 -95,140 -95,230z"/>
 </g>
</svg>
