<?xml version="1.0" encoding="UTF-8"?>
<!DOCTYPE svg PUBLIC "-//W3C//DTD SVG 1.1//EN" "http://www.w3.org/Graphics/SVG/1.1/DTD/svg11.dtd">
<!-- Creator: CorelDRAW X6 -->
<svg xmlns="http://www.w3.org/2000/svg" xml:space="preserve" width="200mm" height="200mm" version="1.1" style="shape-rendering:geometricPrecision; text-rendering:geometricPrecision; image-rendering:optimizeQuality; fill-rule:evenodd; clip-rule:evenodd"
viewBox="0 0 20000 20000"
 xmlns:xlink="http://www.w3.org/1999/xlink">
 <defs>
  <style type="text/css">
   <![CDATA[
    .fil0 {fill:blue;fill-rule:nonzero}
   ]]>
  </style>
 </defs>
 <g id="Layer_x0020_1">
  <metadata id="CorelCorpID_0Corel-Layer"/>
  <path class="fil0" d="M-2091 20427c-12,25 -42,35 -66,23 -25,-12 -35,-42 -23,-66 77,-160 114,-313 114,-458 0,-149 -39,-292 -112,-427 -13,-24 -4,-54 20,-68 24,-13 54,-4 68,20 82,151 125,309 125,475 0,160 -40,327 -124,501z"/>
  <path class="fil0" d="M-1477 20408c0,28 -22,50 -50,50 -28,0 -50,-22 -50,-50l0 -933c0,-28 22,-50 50,-50 28,0 50,22 50,50l0 933z"/>
  <path class="fil0" d="M-1768 20408c0,28 -22,50 -50,50 -28,0 -50,-22 -50,-50l0 -933c0,-28 22,-50 50,-50 28,0 50,22 50,50l0 933z"/>
  <path class="fil0" d="M-2418 19881c0,19 8,36 20,49 12,12 30,20 49,20 19,0 36,-8 49,-20 12,-12 20,-30 20,-49 0,-19 -8,-36 -20,-49l-2 -2c-12,-11 -29,-18 -47,-18 -19,0 -36,8 -49,20l-2 2c-11,12 -18,29 -18,47zm-50 120c-31,-31 -50,-73 -50,-120 0,-45 18,-86 47,-116 1,-1 2,-2 3,-3 31,-31 73,-50 120,-50 45,0 86,18 116,47 1,1 2,2 3,3 31,31 50,73 50,120 0,47 -19,89 -50,120 -31,31 -73,50 -120,50 -47,0 -89,-19 -120,-50z"/>
  <path class="fil0" d="M-4270 19563c0,28 -22,50 -50,50 -28,0 -50,-22 -50,-50l0 -750c0,-28 22,-50 50,-50 28,0 50,22 50,50l0 750z"/>
  <path class="fil0" d="M-4370 20313c0,-28 22,-50 50,-50 28,0 50,22 50,50l0 750c0,28 -22,50 -50,50 -28,0 -50,-22 -50,-50l0 -750z"/>
  <path class="fil0" d="M2180 20384c12,25 1,55 -23,66 -25,12 -55,1 -66,-23 -84,-174 -124,-341 -124,-501 0,-166 43,-324 125,-475 13,-24 43,-33 68,-20 24,13 33,43 20,68 -74,136 -112,278 -112,427 0,146 37,298 114,458z"/>
  <path class="fil0" d="M1577 20408c0,28 -22,50 -50,50 -28,0 -50,-22 -50,-50l0 -933c0,-28 22,-50 50,-50 28,0 50,22 50,50l0 933z"/>
  <path class="fil0" d="M1868 20408c0,28 -22,50 -50,50 -28,0 -50,-22 -50,-50l0 -933c0,-28 22,-50 50,-50 28,0 50,22 50,50l0 933z"/>
  <path class="fil0" d="M2518 19881c0,47 -19,89 -50,120 -31,31 -73,50 -120,50 -46,0 -89,-19 -119,-50l0 0 0 0 0 0c-30,-31 -49,-73 -49,-119 0,-47 19,-89 50,-120 1,-1 2,-2 3,-3 30,-29 71,-47 116,-47 47,0 89,19 120,50 1,1 2,2 3,3 29,30 47,71 47,116zm-120 49c12,-12 20,-30 20,-49 0,-18 -7,-35 -18,-47l-2 -2c-12,-12 -30,-20 -49,-20 -18,0 -35,7 -47,18l-2 2c-12,12 -20,30 -20,49 0,19 8,36 20,49l0 0c12,12 30,20 49,20 19,0 36,-8 49,-20z"/>
  <path class="fil0" d="M4370 19563c0,28 -22,50 -50,50 -28,0 -50,-22 -50,-50l0 -750c0,-28 22,-50 50,-50 28,0 50,22 50,50l0 750z"/>
  <path class="fil0" d="M4270 20313c0,-28 22,-50 50,-50 28,0 50,22 50,50l0 750c0,28 -22,50 -50,50 -28,0 -50,-22 -50,-50l0 -750z"/>
 </g>
</svg>
