<?xml version="1.0" encoding="UTF-8"?>
<!DOCTYPE svg PUBLIC "-//W3C//DTD SVG 1.1//EN" "http://www.w3.org/Graphics/SVG/1.1/DTD/svg11.dtd">
<!-- Creator: CorelDRAW X6 -->
<svg xmlns="http://www.w3.org/2000/svg" xml:space="preserve" width="200mm" height="200mm" version="1.1" style="shape-rendering:geometricPrecision; text-rendering:geometricPrecision; image-rendering:optimizeQuality; fill-rule:evenodd; clip-rule:evenodd"
viewBox="0 0 20000 20000"
 xmlns:xlink="http://www.w3.org/1999/xlink">
 <defs>
  <style type="text/css">
   <![CDATA[
    .fil0 {fill:none;fill-rule:nonzero}
    .fil1 {fill:blue}
    .fil2 {fill:blue;fill-rule:nonzero}
   ]]>
  </style>
 </defs>
 <g id="Layer_x0020_1">
  <metadata id="CorelCorpID_0Corel-Layer"/>
  <path class="fil0" d="M22732 15600c-237,-273 -488,-451 -715,-730"/>
  <path class="fil1" d="M-1081 16779l0 0 5 -181c1,-28 23,-49 51,-49 28,1 49,23 49,51l-5 186c132,20 251,80 344,166 1,-2 3,-3 5,-5l175 -152c21,-18 52,-16 71,5 18,21 16,52 -5,71l-175 152c-1,1 -2,2 -3,2 87,109 138,247 138,397 0,355 -291,644 -650,644 -359,0 -650,-288 -650,-644 0,-214 105,-403 267,-520 -2,-1 -4,-3 -6,-5l-139 -128c-20,-19 -22,-50 -3,-71 19,-20 50,-22 71,-3l139 128c9,8 14,19 16,30 91,-48 195,-76 306,-76zm29 563c69,0 124,54 124,120 0,66 -56,120 -124,120 -69,0 -124,-54 -124,-120 0,-66 56,-120 124,-120z"/>
  <path class="fil1" d="M1020 16780c-112,4 -216,36 -307,90 3,-16 -3,-33 -15,-45l-139 -128c-20,-19 -52,-17 -71,3 -19,20 -17,52 3,71l139 128c7,6 14,10 22,12 -156,118 -257,304 -257,513 0,355 291,644 650,644 359,0 650,-288 650,-644 0,-156 -56,-298 -149,-410l163 -142c21,-18 23,-50 5,-71 -18,-21 -50,-23 -71,-5l-167 145c-97,-85 -221,-143 -357,-158l5 -183c1,-28 -21,-50 -49,-51 -28,-1 -50,21 -51,49l-5 181zm23 559c69,0 124,54 124,120 0,66 -56,120 -124,120 -69,0 -124,-54 -124,-120 0,-66 56,-120 124,-120z"/>
  <path class="fil2" d="M-1438 16416c41,-55 95,-99 150,-143 48,-39 96,-77 131,-122 31,-40 60,-80 87,-121 27,-41 51,-83 70,-126 3,-7 6,-12 8,-17 9,-19 26,-41 24,-43 -7,-5 -66,23 -98,38 -5,2 -9,4 -16,7 -78,35 -151,83 -224,130 -28,18 -56,36 -79,51 -20,12 -174,84 -261,122 -16,7 -31,13 -44,19 -40,17 -70,11 -82,-22 -1,-3 -2,-5 -2,-8l0 0 0 0c-1,-6 -1,-11 -1,-16 11,-156 50,-308 112,-452 47,-110 107,-216 177,-316l-11 3c-51,15 -103,30 -150,58 -24,14 -54,6 -68,-18 -8,-14 -9,-30 -3,-44l0 0c71,-176 204,-327 363,-454 195,-155 432,-272 645,-350 41,-15 83,-29 125,-42 42,-13 86,-25 131,-37 27,-6 54,10 60,37 2,6 2,13 1,19l0 0c-12,82 -21,138 -31,203l-1 7 16 -67c102,57 175,103 214,129 65,45 78,55 140,103 118,90 229,185 338,280 -6,-35 -11,-69 -15,-93 -6,-39 -10,-63 -13,-86 -49,-53 -91,-108 -138,-158 -176,-188 -356,-358 -525,-552l72 -423c74,57 128,103 156,129 48,45 57,55 102,103 99,103 190,213 281,322l8 52c2,-1 5,-1 7,-2 8,-1 15,0 22,2 105,25 208,57 307,97 95,38 188,83 276,136 125,75 257,172 368,286 95,96 175,205 227,322l0 0c28,64 49,130 62,198 14,70 20,141 19,213 -1,36 -3,71 -6,105 -4,35 -9,70 -17,106 -3,14 -12,39 -22,69 -16,45 -49,83 -43,93l-85 53c-48,-77 -97,-158 -144,-240 -33,-59 -65,-118 -95,-178 -70,83 -147,169 -236,236 -50,38 -103,72 -156,103 -54,31 -109,60 -165,86 -12,6 -29,14 -46,23 -69,36 -150,78 -229,72 -28,-2 -48,-26 -46,-54 0,-6 2,-11 4,-16 14,-37 31,-72 48,-107 25,-52 51,-103 61,-158 2,-12 6,-28 10,-48 7,-30 16,-69 23,-108 -16,-13 -31,-26 -46,-40 -12,15 -24,29 -37,44 -86,103 -171,206 -282,295 -76,60 -148,116 -224,166 -77,50 -158,96 -252,135 -139,59 -293,113 -452,138 -162,25 -328,19 -485,-43 -26,-10 -38,-39 -28,-65 1,-4 3,-7 5,-10l0 0 4 -5 2 -2 3 -4 0 0 0 0zm955 -1257c-5,33 -10,64 -14,93 -8,56 -18,139 -21,164 5,18 17,63 38,87 31,36 68,67 108,92 86,54 187,83 286,82 74,-1 147,-19 210,-55 -204,-155 -411,-301 -607,-462zm580 -1634l60 472c-52,-40 -165,-157 -188,-180 -61,-61 -198,-218 -258,-270l36 -344c74,75 116,94 187,169 37,40 118,122 163,153zm-98 -735l52 372c-98,-81 -178,-172 -284,-243l27 -310c52,32 77,69 115,105 16,15 51,39 90,77zm489 6254c23,-15 54,-9 69,14 15,23 9,54 -14,69 -64,42 -134,77 -207,103 -78,28 -159,47 -236,57 -73,10 -142,7 -210,-3 -67,-10 -133,-28 -201,-50l-13 -4c-79,-26 -156,-50 -230,-95 -24,-14 -31,-45 -17,-68 14,-24 45,-31 68,-17 65,39 136,62 209,85l13 4c63,20 124,37 185,46 60,9 121,11 183,3 70,-9 144,-26 215,-52 65,-23 128,-54 186,-92zm-502 96c-105,-1 -200,-43 -269,-112 -69,-69 -112,-165 -112,-271 0,-28 22,-50 50,-50 28,0 50,22 50,50 0,78 32,149 83,200 51,51 122,83 200,83l1 0c78,0 149,-32 200,-83 51,-51 83,-122 83,-200 0,-28 22,-50 50,-50 28,0 50,22 50,50 0,106 -43,202 -112,271 -69,69 -164,112 -269,112l-1 0 -1 0 -1 0zm335 -903c21,18 38,47 48,80 8,25 12,52 11,79 -1,30 -9,59 -26,81l0 0 0 0c-13,17 -30,30 -52,37 -15,5 -29,6 -43,5 -29,-2 -52,-16 -70,-36 -15,-17 -25,-37 -32,-58 -8,-26 -11,-54 -9,-76 1,-16 3,-34 9,-54 8,-24 21,-46 44,-61 51,-33 87,-19 107,-5 5,2 9,5 13,9zm-47 109c-3,-9 -6,-16 -9,-22 -6,-3 -8,-7 -13,-12l0 0c2,2 3,4 3,5 -1,1 -2,4 -4,8 -3,8 -4,20 -5,31 -1,11 1,26 5,39 3,9 6,17 11,22 1,1 2,2 3,2 1,0 3,0 6,-1 1,0 2,-1 3,-2l0 0c4,-5 6,-14 6,-25 1,-14 -2,-30 -7,-45zm-23 -36l2 2 0 0 -1 -1 0 0zm-569 11c-4,6 -7,15 -10,25 -5,15 -7,31 -7,45 0,11 2,20 6,25l1 1c1,0 1,1 2,1 2,1 4,1 6,1 1,0 2,-1 3,-2 4,-5 8,-13 11,-21 4,-13 6,-28 5,-39 -1,-11 -2,-23 -5,-31 -1,-4 -3,-7 -4,-8 0,0 1,-3 3,-5l0 -1 -2 2c-3,3 -6,6 -10,8zm-106 -5c10,-32 27,-61 47,-79 4,-4 9,-8 14,-10 20,-14 56,-27 107,5 23,15 37,37 44,61 6,19 8,38 9,54 2,22 -1,50 -9,76 -7,21 -17,42 -32,58 -18,20 -41,33 -70,36 -13,1 -28,-1 -43,-5 -21,-6 -37,-18 -49,-33 -1,-1 -2,-2 -3,-3 -17,-22 -25,-51 -26,-81 -1,-26 3,-54 11,-79zm117 -4l2 -2 -1 1 0 1zm-488 -14c-12,25 -42,36 -66,24 -25,-12 -36,-42 -24,-66 28,-60 76,-126 132,-184 53,-55 114,-103 173,-131 1,-1 2,-1 3,-1 117,-54 233,-17 342,18 13,4 27,8 41,13 53,16 107,25 159,24 51,-1 101,-13 150,-37 38,-19 80,-37 123,-48l2 -1c37,-10 76,-15 114,-14 18,1 36,3 54,6 21,4 41,9 59,14 40,12 78,27 114,46 34,18 65,40 94,67 37,34 72,75 103,120 34,49 63,101 86,150 9,19 5,41 -9,55 -14,19 -40,27 -62,16 -19,-9 -29,-28 -28,-47 -19,-40 -43,-80 -69,-117 -27,-38 -56,-74 -89,-103 -22,-21 -47,-38 -74,-53 -30,-16 -62,-29 -94,-38 -16,-5 -32,-9 -48,-12 -13,-2 -26,-4 -39,-4 -28,-1 -57,3 -86,11l-2 1c-36,10 -71,24 -103,41 -62,32 -127,46 -192,48 -64,2 -128,-9 -191,-28 -13,-4 -28,-9 -42,-13 -91,-29 -188,-60 -271,-22l-2 1c-47,22 -98,63 -143,110 -49,51 -90,108 -114,158z"/>
 </g>
</svg>
