<?xml version="1.0" encoding="UTF-8"?>
<!DOCTYPE svg PUBLIC "-//W3C//DTD SVG 1.1//EN" "http://www.w3.org/Graphics/SVG/1.1/DTD/svg11.dtd">
<!-- Creator: CorelDRAW X6 -->
<svg xmlns="http://www.w3.org/2000/svg" xml:space="preserve" width="200mm" height="200mm" version="1.1" style="shape-rendering:geometricPrecision; text-rendering:geometricPrecision; image-rendering:optimizeQuality; fill-rule:evenodd; clip-rule:evenodd"
viewBox="0 0 20000 20000"
 xmlns:xlink="http://www.w3.org/1999/xlink">
 <defs>
  <style type="text/css">
   <![CDATA[
    .str0 {stroke:black;stroke-width:52.92;stroke-linecap:round;stroke-linejoin:round}
    .fil0 {fill:none}
   ]]>
  </style>
 </defs>
 <g id="Layer_x0020_1">
  <metadata id="CorelCorpID_0Corel-Layer"/>
  <path class="fil0 str0" d="M-1450 20992l0 -329c-134,-7 -268,-13 -401,-27 -139,-15 -264,-7 -383,76 -263,186 -555,324 -875,351 -379,33 -724,182 -1086,269 -82,20 -166,36 -249,54l-279 0c-44,-25 -96,-42 -97,-107 -1,-69 39,-111 93,-141 45,-25 92,-46 141,-64 235,-85 472,-166 706,-252 39,-14 73,-44 110,-67 -4,-10 -8,-19 -11,-29 -73,7 -149,4 -219,23 -387,109 -781,169 -1181,192 -81,5 -166,-1 -246,-17 -110,-22 -147,-108 -106,-213 38,-97 125,-116 212,-132 266,-48 533,-93 799,-144 153,-29 304,-68 455,-103 -51,-19 -100,-31 -148,-30 -281,11 -561,25 -842,37 -227,9 -454,20 -680,23 -89,1 -174,-25 -226,-109l0 -124c70,-132 200,-139 326,-155 238,-29 476,-61 715,-84 172,-16 345,-19 518,-28 93,-5 186,-8 279,-16 24,-2 47,-19 71,-29 0,-10 0,-19 -1,-29 -42,-10 -84,-28 -127,-29 -369,-12 -739,-19 -1108,-34 -107,-4 -215,-25 -319,-51 -79,-20 -111,-85 -110,-167 1,-82 36,-143 112,-168 58,-19 121,-27 182,-29 312,-11 625,-15 937,-27 263,-10 526,-26 789,-43 55,-4 110,-23 180,-38 -152,-55 -290,-99 -423,-155 -92,-39 -179,-91 -267,-140 -27,-15 -50,-37 -73,-58 -97,-88 -149,-211 -100,-279 65,-88 170,-68 257,-50 156,32 308,83 463,125 82,22 163,48 247,63 371,69 732,177 1054,370 249,150 509,179 782,194 43,2 86,7 128,13l0 -197c0,-276 224,-500 500,-500l400 0c276,0 500,224 500,500l0 1900c0,276 -224,500 -500,500l-400 0c-276,0 -500,-224 -500,-500z"/>
  <path class="fil0 str0" d="M1450 20992l0 -329c134,-7 268,-13 401,-27 139,-15 264,-7 383,76 263,186 555,324 875,351 379,33 724,182 1086,269 82,20 166,36 249,54l279 0c44,-25 96,-42 97,-107 1,-69 -39,-111 -93,-141 -45,-25 -92,-46 -141,-64 -235,-85 -472,-166 -706,-252 -39,-14 -73,-44 -110,-67 4,-10 8,-19 11,-29 73,7 149,4 219,23 387,109 781,169 1181,192 81,5 166,-1 246,-17 110,-22 147,-108 106,-213 -38,-97 -125,-116 -212,-132 -266,-48 -533,-93 -799,-144 -153,-29 -304,-68 -455,-103 51,-19 100,-31 148,-30 281,11 561,25 842,37 227,9 454,20 680,23 89,1 174,-25 226,-109l0 -124c-70,-132 -200,-139 -326,-155 -238,-29 -476,-61 -715,-84 -172,-16 -345,-19 -518,-28 -93,-5 -186,-8 -279,-16 -24,-2 -47,-19 -71,-29 0,-10 0,-19 1,-29 42,-10 84,-28 127,-29 369,-12 739,-19 1108,-34 107,-4 215,-25 319,-51 79,-20 111,-85 110,-167 -1,-82 -36,-143 -112,-168 -58,-19 -121,-27 -182,-29 -312,-11 -625,-15 -937,-27 -263,-10 -526,-26 -789,-43 -55,-4 -110,-23 -180,-38 152,-55 290,-99 423,-155 92,-39 179,-91 267,-140 27,-15 50,-37 73,-58 97,-88 149,-211 100,-279 -65,-88 -170,-68 -257,-50 -156,32 -308,83 -463,125 -82,22 -163,48 -247,63 -371,69 -732,177 -1054,370 -249,150 -509,179 -782,194 -43,2 -86,7 -128,13l0 -197c0,-276 -224,-500 -500,-500l-400 0c-276,0 -500,224 -500,500l0 1900c0,276 224,500 500,500l400 0c276,0 500,-224 500,-500z"/>
 </g>
</svg>
