<?xml version="1.0" encoding="UTF-8"?>
<!DOCTYPE svg PUBLIC "-//W3C//DTD SVG 1.1//EN" "http://www.w3.org/Graphics/SVG/1.1/DTD/svg11.dtd">
<!-- Creator: CorelDRAW X6 -->
<svg xmlns="http://www.w3.org/2000/svg" xml:space="preserve" width="200mm" height="200mm" version="1.1" style="shape-rendering:geometricPrecision; text-rendering:geometricPrecision; image-rendering:optimizeQuality; fill-rule:evenodd; clip-rule:evenodd"
viewBox="0 0 20000 20000"
 xmlns:xlink="http://www.w3.org/1999/xlink">
 <defs>
  <style type="text/css">
   <![CDATA[
    .str0 {stroke:black;stroke-width:52.92;stroke-linecap:round;stroke-linejoin:round}
    .fil0 {fill:none}
   ]]>
  </style>
 </defs>
 <g id="Layer_x0020_1">
  <metadata id="CorelCorpID_0Corel-Layer"/>
  <path class="fil0 str0" d="M488 19336l0 -255 527 0 711 0c47,0 92,-13 130,-35 283,178 564,359 843,542 -76,-640 -295,-1264 -632,-1809 240,148 491,272 749,371 -148,-578 -435,-1124 -825,-1576 -8,-10 -17,-20 -26,-30 9,2 17,3 26,5 380,76 747,260 1046,526 -214,-605 -444,-1232 -906,-1678 -390,-375 -932,-589 -1451,-570 80,-139 160,-278 239,-416 -263,46 -508,162 -705,332 -37,-129 -104,-252 -195,-356 -70,113 -146,223 -226,330 -251,-135 -532,-213 -812,-226 161,118 325,232 492,341 -356,9 -709,72 -1044,185 -155,55 -272,142 -397,245 -468,385 -921,974 -1006,1592 211,-119 592,-216 820,-291 -426,520 -813,1210 -784,1909 212,-140 581,-278 790,-415 -250,472 -481,1046 -352,1584 128,-96 247,-204 361,-316 54,-54 108,-108 163,-162 16,-16 117,-122 106,-143 33,64 125,63 185,60 396,-23 800,-2 1197,0l0 255 -1213 0c-276,0 -500,224 -500,500l0 400c0,276 224,500 500,500l3400 0c276,0 500,-224 500,-500l0 -400c0,-276 -224,-500 -500,-500l-1213 0z"/>
 </g>
</svg>
