<?xml version="1.0" encoding="UTF-8"?>
<!DOCTYPE svg PUBLIC "-//W3C//DTD SVG 1.1//EN" "http://www.w3.org/Graphics/SVG/1.1/DTD/svg11.dtd">
<!-- Creator: CorelDRAW X6 -->
<svg xmlns="http://www.w3.org/2000/svg" xml:space="preserve" width="200mm" height="200mm" version="1.1" style="shape-rendering:geometricPrecision; text-rendering:geometricPrecision; image-rendering:optimizeQuality; fill-rule:evenodd; clip-rule:evenodd"
viewBox="0 0 20000 20000"
 xmlns:xlink="http://www.w3.org/1999/xlink">
 <defs>
  <style type="text/css">
   <![CDATA[
    .fil1 {fill:blue}
    .fil0 {fill:blue;fill-rule:nonzero}
   ]]>
  </style>
 </defs>
 <g id="Layer_x0020_1">
  <metadata id="CorelCorpID_0Corel-Layer"/>
  <path class="fil0" d="M254 18399c0,-28 22,-50 50,-50 28,0 50,22 50,50 0,106 -43,202 -112,271 -69,69 -164,112 -269,112l-1 0 -1 0 -1 0c-105,-1 -200,-43 -269,-112 -69,-69 -112,-165 -112,-271 0,-28 22,-50 50,-50 28,0 50,22 50,50 0,78 32,149 83,200 51,51 122,83 200,83l1 0c78,0 149,-32 200,-83 51,-51 83,-122 83,-200z"/>
  <path class="fil0" d="M-1818 17596c-9,103 -17,208 -5,304 6,8 10,16 13,25 1,2 1,4 1,5 3,13 3,26 0,40l0 8c0,27 -21,49 -48,50l-11 31c-4,14 -15,25 -29,31 -26,10 -55,-3 -65,-28 -19,-49 -38,-104 -57,-160 -6,-19 -13,-38 -20,-57 -12,18 -24,36 -37,54 -42,61 -83,121 -109,188l-93 -36c50,-128 34,-330 21,-497 -3,-37 -6,-73 -8,-112l-1 -24c-11,-190 -22,-380 -15,-573 6,-168 24,-374 89,-552 68,-186 188,-341 398,-395 67,-17 154,-34 222,-25 92,13 152,62 118,185 -14,52 -48,96 -82,140 -27,35 -54,70 -66,104 -35,97 -48,213 -61,322 -3,23 -5,46 -10,81 -22,170 -35,351 -32,530 2,154 17,307 48,452l0 0c4,19 -3,39 -20,51 -23,16 -54,10 -69,-12 -29,-41 -51,-87 -72,-132z"/>
  <path class="fil0" d="M878 15288c-132,-46 -271,-77 -418,-105 -126,-24 -249,-20 -376,-16 -22,1 -45,2 -70,2 -117,3 -232,16 -347,36 -115,21 -229,49 -342,83 -40,12 -79,26 -118,40l0 0 0 0c-2,1 -4,2 -6,2 -13,5 -27,10 -40,16 -32,-22 -57,-48 -79,-75 20,-9 41,-17 62,-26 57,-205 138,-410 246,-609 91,-167 202,-330 334,-484 -41,8 -88,15 -141,21 -175,18 -416,30 -681,30 -265,0 -506,-11 -681,-30 -201,-21 -325,-63 -325,-120 0,-57 124,-99 325,-120 175,-18 416,-30 681,-30 265,0 506,11 681,30 151,16 259,43 303,80 24,-16 49,-23 72,-23 23,0 49,8 73,24l2 1c43,-38 151,-66 305,-82 175,-18 416,-30 681,-30 265,0 506,11 681,30 201,21 325,63 325,120 0,57 -124,99 -325,120 -175,18 -416,30 -681,30 -265,0 -506,-11 -681,-30 -26,-3 -50,-6 -73,-9 151,147 276,299 376,458 114,180 198,368 255,567 6,2 12,4 18,6 7,2 14,5 20,7 -10,32 -13,66 -58,85z"/>
  <path class="fil0" d="M1819 17564c9,103 17,208 5,304 -6,8 -10,16 -13,25 -1,2 -1,4 -1,5 -3,13 -3,26 0,40l0 8c0,27 21,49 48,50l11 31c4,14 15,25 29,31 26,10 55,-3 65,-28 19,-49 38,-104 57,-160 6,-19 13,-38 20,-57 12,18 24,36 37,54 42,61 83,121 109,188l93 -36c-50,-128 -34,-330 -21,-497 3,-37 6,-73 8,-112l1 -24c11,-190 22,-380 15,-573 -6,-168 -24,-374 -89,-552 -68,-186 -188,-341 -398,-395 -67,-17 -154,-34 -222,-25 -92,13 -152,62 -118,185 14,52 48,96 82,140 27,35 54,70 66,104 35,97 48,213 61,322 3,23 5,46 10,81 22,170 35,351 32,530 -2,154 -17,307 -48,452l0 0c-4,19 3,39 20,51 23,16 54,10 69,-12 29,-41 51,-87 72,-132z"/>
  <path class="fil1" d="M745 16584c-336,0 -626,193 -763,474 -137,-280 -427,-474 -763,-474 -468,0 -847,375 -847,839 0,463 379,839 847,839 336,0 626,-193 763,-474 137,280 427,474 763,474 468,0 847,-375 847,-839 0,-463 -379,-839 -847,-839zm-1488 734c89,0 162,70 162,157 0,86 -72,157 -162,157 -89,0 -162,-70 -162,-157 0,-86 72,-157 162,-157zm1485 -4c89,0 162,70 162,157 0,86 -72,157 -162,157 -89,0 -162,-70 -162,-157 0,-86 72,-157 162,-157z"/>
 </g>
</svg>
