<?xml version="1.0" encoding="UTF-8"?>
<!DOCTYPE svg PUBLIC "-//W3C//DTD SVG 1.1//EN" "http://www.w3.org/Graphics/SVG/1.1/DTD/svg11.dtd">
<!-- Creator: CorelDRAW X6 -->
<svg xmlns="http://www.w3.org/2000/svg" xml:space="preserve" width="200mm" height="200mm" version="1.1" style="shape-rendering:geometricPrecision; text-rendering:geometricPrecision; image-rendering:optimizeQuality; fill-rule:evenodd; clip-rule:evenodd"
viewBox="0 0 20000 20000"
 xmlns:xlink="http://www.w3.org/1999/xlink">
 <defs>
  <style type="text/css">
   <![CDATA[
    .str0 {stroke:black;stroke-width:52.92;stroke-linecap:round;stroke-linejoin:round}
    .fil0 {fill:none}
   ]]>
  </style>
 </defs>
 <g id="Layer_x0020_1">
  <metadata id="CorelCorpID_0Corel-Layer"/>
  <path class="fil0 str0" d="M1700 20700l-3400 0c-276,0 -500,-224 -500,-500l0 -400c0,-276 224,-500 500,-500l1213 0 0 -347 -781 0c-334,0 -607,-273 -607,-607l0 -417c-11,33 -27,78 -41,116 -37,-94 -73,-214 -111,-315 -61,118 -155,215 -203,340 66,-171 26,-444 16,-629 -11,-197 -23,-395 -16,-592 12,-328 68,-803 450,-901 108,-28 276,-56 286,47l8 -3c-16,-30 -26,-61 -31,-93l-39 -5c-2,-39 -4,-78 -4,-117 0,-813 523,-1493 1223,-1662 -175,24 -449,39 -758,39 -528,0 -956,-45 -956,-100 0,-55 428,-100 956,-100 401,0 745,26 887,62 7,-93 85,-167 180,-167 94,0 171,71 180,163 151,-34 484,-58 870,-58 528,0 956,45 956,100 0,55 -428,100 -956,100 -238,0 -455,-9 -622,-24 671,191 1167,856 1167,1647 0,39 -1,79 -4,117l-13 2c1,4 1,8 1,11 17,-5 36,-9 59,-10 124,-9 298,116 376,205 123,140 189,337 234,518 40,162 36,334 36,501 0,174 53,464 3,621 -22,-75 -84,-156 -147,-199 -7,135 -60,309 -132,421 -28,-130 -43,-267 -80,-398 -25,31 -49,65 -71,100l0 681c0,334 -273,607 -607,607l-733 0 0 347 1213 0c276,0 500,224 500,500l0 400c0,276 -224,500 -500,500z"/>
 </g>
</svg>
